%TF.GenerationSoftware,KiCad,Pcbnew,10.0.4*%
%TF.CreationDate,2026-09-25T15:00:12-07:00*%
%TF.ProjectId,Ethernet,45746865-726e-4657-942e-6b696361645f,rev?*%
%TF.SameCoordinates,Original*%
%TF.FileFunction,Copper,L4,Bot*%
%TF.FilePolarity,Positive*%
%FSLAX46Y46*%
G04 Gerber Fmt 4.6, Leading zero omitted, Abs format (unit mm)*
G04 Created by KiCad (PCBNEW 10.0.4) date 2026-09-25 15:00:12*
%MOMM*%
%LPD*%
G01*
G04 APERTURE LIST*
%TA.AperFunction,ComponentPad*%
%ADD10R,1.800000X1.800000*%
%TD*%
%TA.AperFunction,ComponentPad*%
%ADD11C,1.800000*%
%TD*%
%TA.AperFunction,ComponentPad*%
%ADD12C,2.000000*%
%TD*%
%TA.AperFunction,ComponentPad*%
%ADD13C,3.000000*%
%TD*%
%TA.AperFunction,ComponentPad*%
%ADD14R,1.700000X1.700000*%
%TD*%
%TA.AperFunction,ComponentPad*%
%ADD15C,1.700000*%
%TD*%
%TA.AperFunction,ViaPad*%
%ADD16C,0.600000*%
%TD*%
%TA.AperFunction,Conductor*%
%ADD17C,0.500000*%
%TD*%
%TA.AperFunction,Conductor*%
%ADD18C,0.200000*%
%TD*%
G04 APERTURE END LIST*
D10*
%TO.P,J1,1,TD+_1*%
%TO.N,/RJ45/TXP*%
X42455000Y-36255000D03*
D11*
%TO.P,J1,2,TD-_2*%
%TO.N,/RJ45/TXN*%
X44995000Y-37525000D03*
%TO.P,J1,3,RD+_3*%
%TO.N,Net-(J1-RD+)*%
X42455000Y-38795000D03*
%TO.P,J1,4,TCT_4*%
%TO.N,Net-(J1-TCT)*%
X44995000Y-40065000D03*
%TO.P,J1,5,RCT_5*%
%TO.N,Net-(J1-RCT)*%
X42455000Y-41334999D03*
%TO.P,J1,6,RD-_6*%
%TO.N,Net-(J1-RD-)*%
X44995000Y-42605000D03*
%TO.P,J1,7,NC_7*%
%TO.N,unconnected-(J1-NC-Pad7)*%
X42455000Y-43875000D03*
%TO.P,J1,8*%
%TO.N,GND*%
X44995000Y-45145000D03*
D12*
%TO.P,J1,9*%
%TO.N,+3.3V*%
X32045000Y-34070000D03*
%TO.P,J1,10*%
%TO.N,Net-(J1-Pad10)*%
X32045000Y-36609999D03*
%TO.P,J1,11*%
%TO.N,+3.3V*%
X32045000Y-44790000D03*
%TO.P,J1,12*%
%TO.N,Net-(J1-Pad12)*%
X32045000Y-47330000D03*
D13*
%TO.P,J1,SH*%
%TO.N,GND*%
X39155000Y-32955000D03*
X39155000Y-48445000D03*
%TD*%
D14*
%TO.P,J2,1,Pin_1_1*%
%TO.N,GND*%
X78200000Y-49600000D03*
D15*
%TO.P,J2,2,Pin_2_2*%
%TO.N,+3.3V*%
X78200000Y-47060000D03*
%TO.P,J2,3,Pin_3_3*%
%TO.N,/Connector/~{SCS}*%
X78200000Y-44520001D03*
%TO.P,J2,4,Pin_4_4*%
%TO.N,/Connector/SCLK*%
X78200000Y-41980000D03*
%TO.P,J2,5,Pin_5_5*%
%TO.N,/Connector/MISO*%
X78200000Y-39440000D03*
%TO.P,J2,6,Pin_6_6*%
%TO.N,/Connector/MOSI*%
X78200000Y-36900000D03*
%TO.P,J2,7,Pin_7_7*%
%TO.N,/Connector/~{INT}*%
X78200000Y-34360000D03*
%TO.P,J2,8,Pin_8_8*%
%TO.N,/Connector/~{RST}*%
X78200000Y-31819999D03*
%TD*%
D16*
%TO.N,+3.3V*%
X66256250Y-33000000D03*
X65600000Y-42100000D03*
%TO.N,GND*%
X61000000Y-48475000D03*
X60000000Y-39700000D03*
X59000000Y-41700000D03*
X73050000Y-49775000D03*
X61000000Y-40700000D03*
X58700000Y-32900000D03*
X61000000Y-39700000D03*
X69400000Y-43400000D03*
X56000000Y-49400000D03*
X61000000Y-41700000D03*
X59000000Y-39700000D03*
X67650000Y-48150000D03*
X52000000Y-43700000D03*
X57900000Y-49300000D03*
X60000000Y-41700000D03*
X60000000Y-40700000D03*
X59000000Y-40700000D03*
X47000000Y-34400000D03*
%TO.N,+3.3VA*%
X47100000Y-36000000D03*
X61556250Y-32150000D03*
X59250000Y-43450000D03*
X58150000Y-43450000D03*
X57050000Y-43100000D03*
X57100000Y-39450000D03*
X61200000Y-43450000D03*
X57100000Y-41550000D03*
X51200000Y-33500000D03*
%TO.N,Net-(J1-RCT)*%
X54400000Y-35300000D03*
%TO.N,/RJ45/RXN*%
X54400000Y-37100000D03*
X52000000Y-39200000D03*
%TO.N,Net-(J1-TCT)*%
X48900000Y-36000000D03*
%TO.N,/RJ45/RXP*%
X56000000Y-37100000D03*
X52000000Y-40000000D03*
%TO.N,/W5500/SPDLED*%
X67500000Y-31950000D03*
X63500000Y-45800000D03*
%TO.N,/W5500/DUPLED*%
X62850000Y-43000000D03*
X69500000Y-31950000D03*
%TO.N,/RJ45/ACTLED*%
X65400000Y-46000000D03*
X55800000Y-48400000D03*
%TD*%
%TO.N,+3.3VA*%
D17*
X47100000Y-36000000D02*
X49600000Y-33500000D01*
X61556250Y-32150000D02*
X59956250Y-33750000D01*
X59956250Y-33750000D02*
X51450000Y-33750000D01*
X49600000Y-33500000D02*
X51200000Y-33500000D01*
X51450000Y-33750000D02*
X51200000Y-33500000D01*
%TO.N,Net-(J1-RCT)*%
D18*
X54400000Y-35300000D02*
X48365001Y-41334999D01*
X48365001Y-41334999D02*
X42455000Y-41334999D01*
%TO.N,/RJ45/RXN*%
X52300000Y-39200000D02*
X54400000Y-37100000D01*
X52000000Y-39200000D02*
X52300000Y-39200000D01*
%TO.N,Net-(J1-TCT)*%
X44995000Y-40065000D02*
X48900000Y-36160000D01*
X48900000Y-36160000D02*
X48900000Y-36000000D01*
%TO.N,/RJ45/RXP*%
X52000000Y-40000000D02*
X53100000Y-40000000D01*
X53100000Y-40000000D02*
X56000000Y-37100000D01*
%TO.N,/W5500/SPDLED*%
X67500000Y-31950000D02*
X67500000Y-41800000D01*
X67500000Y-41800000D02*
X63500000Y-45800000D01*
%TO.N,/W5500/DUPLED*%
X63292893Y-46300000D02*
X63707107Y-46300000D01*
X63707107Y-46300000D02*
X69500000Y-40507107D01*
X69500000Y-40507107D02*
X69500000Y-31950000D01*
X62850000Y-43000000D02*
X62850000Y-45857107D01*
X62850000Y-45857107D02*
X63292893Y-46300000D01*
%TO.N,/RJ45/ACTLED*%
X58800000Y-47600000D02*
X63800000Y-47600000D01*
X63800000Y-47600000D02*
X65400000Y-46000000D01*
X58000000Y-48400000D02*
X58800000Y-47600000D01*
X55800000Y-48400000D02*
X58000000Y-48400000D01*
%TD*%
M02*
