%TF.GenerationSoftware,KiCad,Pcbnew,10.0.4*%
%TF.CreationDate,2026-09-25T15:00:12-07:00*%
%TF.ProjectId,Ethernet,45746865-726e-4657-942e-6b696361645f,rev?*%
%TF.SameCoordinates,Original*%
%TF.FileFunction,Legend,Top*%
%TF.FilePolarity,Positive*%
%FSLAX46Y46*%
G04 Gerber Fmt 4.6, Leading zero omitted, Abs format (unit mm)*
G04 Created by KiCad (PCBNEW 10.0.4) date 2026-09-25 15:00:12*
%MOMM*%
%LPD*%
G01*
G04 APERTURE LIST*
%ADD10C,0.150000*%
%ADD11C,0.120000*%
%ADD12C,0.200000*%
G04 APERTURE END LIST*
D10*
X63759580Y-50366666D02*
X63807200Y-50414285D01*
X63807200Y-50414285D02*
X63854819Y-50557142D01*
X63854819Y-50557142D02*
X63854819Y-50652380D01*
X63854819Y-50652380D02*
X63807200Y-50795237D01*
X63807200Y-50795237D02*
X63711961Y-50890475D01*
X63711961Y-50890475D02*
X63616723Y-50938094D01*
X63616723Y-50938094D02*
X63426247Y-50985713D01*
X63426247Y-50985713D02*
X63283390Y-50985713D01*
X63283390Y-50985713D02*
X63092914Y-50938094D01*
X63092914Y-50938094D02*
X62997676Y-50890475D01*
X62997676Y-50890475D02*
X62902438Y-50795237D01*
X62902438Y-50795237D02*
X62854819Y-50652380D01*
X62854819Y-50652380D02*
X62854819Y-50557142D01*
X62854819Y-50557142D02*
X62902438Y-50414285D01*
X62902438Y-50414285D02*
X62950057Y-50366666D01*
X62854819Y-49461904D02*
X62854819Y-49938094D01*
X62854819Y-49938094D02*
X63331009Y-49985713D01*
X63331009Y-49985713D02*
X63283390Y-49938094D01*
X63283390Y-49938094D02*
X63235771Y-49842856D01*
X63235771Y-49842856D02*
X63235771Y-49604761D01*
X63235771Y-49604761D02*
X63283390Y-49509523D01*
X63283390Y-49509523D02*
X63331009Y-49461904D01*
X63331009Y-49461904D02*
X63426247Y-49414285D01*
X63426247Y-49414285D02*
X63664342Y-49414285D01*
X63664342Y-49414285D02*
X63759580Y-49461904D01*
X63759580Y-49461904D02*
X63807200Y-49509523D01*
X63807200Y-49509523D02*
X63854819Y-49604761D01*
X63854819Y-49604761D02*
X63854819Y-49842856D01*
X63854819Y-49842856D02*
X63807200Y-49938094D01*
X63807200Y-49938094D02*
X63759580Y-49985713D01*
X48133333Y-33454819D02*
X47800000Y-32978628D01*
X47561905Y-33454819D02*
X47561905Y-32454819D01*
X47561905Y-32454819D02*
X47942857Y-32454819D01*
X47942857Y-32454819D02*
X48038095Y-32502438D01*
X48038095Y-32502438D02*
X48085714Y-32550057D01*
X48085714Y-32550057D02*
X48133333Y-32645295D01*
X48133333Y-32645295D02*
X48133333Y-32788152D01*
X48133333Y-32788152D02*
X48085714Y-32883390D01*
X48085714Y-32883390D02*
X48038095Y-32931009D01*
X48038095Y-32931009D02*
X47942857Y-32978628D01*
X47942857Y-32978628D02*
X47561905Y-32978628D01*
X48704762Y-32883390D02*
X48609524Y-32835771D01*
X48609524Y-32835771D02*
X48561905Y-32788152D01*
X48561905Y-32788152D02*
X48514286Y-32692914D01*
X48514286Y-32692914D02*
X48514286Y-32645295D01*
X48514286Y-32645295D02*
X48561905Y-32550057D01*
X48561905Y-32550057D02*
X48609524Y-32502438D01*
X48609524Y-32502438D02*
X48704762Y-32454819D01*
X48704762Y-32454819D02*
X48895238Y-32454819D01*
X48895238Y-32454819D02*
X48990476Y-32502438D01*
X48990476Y-32502438D02*
X49038095Y-32550057D01*
X49038095Y-32550057D02*
X49085714Y-32645295D01*
X49085714Y-32645295D02*
X49085714Y-32692914D01*
X49085714Y-32692914D02*
X49038095Y-32788152D01*
X49038095Y-32788152D02*
X48990476Y-32835771D01*
X48990476Y-32835771D02*
X48895238Y-32883390D01*
X48895238Y-32883390D02*
X48704762Y-32883390D01*
X48704762Y-32883390D02*
X48609524Y-32931009D01*
X48609524Y-32931009D02*
X48561905Y-32978628D01*
X48561905Y-32978628D02*
X48514286Y-33073866D01*
X48514286Y-33073866D02*
X48514286Y-33264342D01*
X48514286Y-33264342D02*
X48561905Y-33359580D01*
X48561905Y-33359580D02*
X48609524Y-33407200D01*
X48609524Y-33407200D02*
X48704762Y-33454819D01*
X48704762Y-33454819D02*
X48895238Y-33454819D01*
X48895238Y-33454819D02*
X48990476Y-33407200D01*
X48990476Y-33407200D02*
X49038095Y-33359580D01*
X49038095Y-33359580D02*
X49085714Y-33264342D01*
X49085714Y-33264342D02*
X49085714Y-33073866D01*
X49085714Y-33073866D02*
X49038095Y-32978628D01*
X49038095Y-32978628D02*
X48990476Y-32931009D01*
X48990476Y-32931009D02*
X48895238Y-32883390D01*
X50009523Y-33554819D02*
X49676190Y-33078628D01*
X49438095Y-33554819D02*
X49438095Y-32554819D01*
X49438095Y-32554819D02*
X49819047Y-32554819D01*
X49819047Y-32554819D02*
X49914285Y-32602438D01*
X49914285Y-32602438D02*
X49961904Y-32650057D01*
X49961904Y-32650057D02*
X50009523Y-32745295D01*
X50009523Y-32745295D02*
X50009523Y-32888152D01*
X50009523Y-32888152D02*
X49961904Y-32983390D01*
X49961904Y-32983390D02*
X49914285Y-33031009D01*
X49914285Y-33031009D02*
X49819047Y-33078628D01*
X49819047Y-33078628D02*
X49438095Y-33078628D01*
X50438095Y-33554819D02*
X50438095Y-32554819D01*
X50438095Y-32554819D02*
X51009523Y-33554819D01*
X51009523Y-33554819D02*
X51009523Y-32554819D01*
X52009523Y-33554819D02*
X51438095Y-33554819D01*
X51723809Y-33554819D02*
X51723809Y-32554819D01*
X51723809Y-32554819D02*
X51628571Y-32697676D01*
X51628571Y-32697676D02*
X51533333Y-32792914D01*
X51533333Y-32792914D02*
X51438095Y-32840533D01*
X48157142Y-42459580D02*
X48109523Y-42507200D01*
X48109523Y-42507200D02*
X47966666Y-42554819D01*
X47966666Y-42554819D02*
X47871428Y-42554819D01*
X47871428Y-42554819D02*
X47728571Y-42507200D01*
X47728571Y-42507200D02*
X47633333Y-42411961D01*
X47633333Y-42411961D02*
X47585714Y-42316723D01*
X47585714Y-42316723D02*
X47538095Y-42126247D01*
X47538095Y-42126247D02*
X47538095Y-41983390D01*
X47538095Y-41983390D02*
X47585714Y-41792914D01*
X47585714Y-41792914D02*
X47633333Y-41697676D01*
X47633333Y-41697676D02*
X47728571Y-41602438D01*
X47728571Y-41602438D02*
X47871428Y-41554819D01*
X47871428Y-41554819D02*
X47966666Y-41554819D01*
X47966666Y-41554819D02*
X48109523Y-41602438D01*
X48109523Y-41602438D02*
X48157142Y-41650057D01*
X49109523Y-42554819D02*
X48538095Y-42554819D01*
X48823809Y-42554819D02*
X48823809Y-41554819D01*
X48823809Y-41554819D02*
X48728571Y-41697676D01*
X48728571Y-41697676D02*
X48633333Y-41792914D01*
X48633333Y-41792914D02*
X48538095Y-41840533D01*
X49442857Y-41554819D02*
X50109523Y-41554819D01*
X50109523Y-41554819D02*
X49680952Y-42554819D01*
X70009580Y-41866666D02*
X70057200Y-41914285D01*
X70057200Y-41914285D02*
X70104819Y-42057142D01*
X70104819Y-42057142D02*
X70104819Y-42152380D01*
X70104819Y-42152380D02*
X70057200Y-42295237D01*
X70057200Y-42295237D02*
X69961961Y-42390475D01*
X69961961Y-42390475D02*
X69866723Y-42438094D01*
X69866723Y-42438094D02*
X69676247Y-42485713D01*
X69676247Y-42485713D02*
X69533390Y-42485713D01*
X69533390Y-42485713D02*
X69342914Y-42438094D01*
X69342914Y-42438094D02*
X69247676Y-42390475D01*
X69247676Y-42390475D02*
X69152438Y-42295237D01*
X69152438Y-42295237D02*
X69104819Y-42152380D01*
X69104819Y-42152380D02*
X69104819Y-42057142D01*
X69104819Y-42057142D02*
X69152438Y-41914285D01*
X69152438Y-41914285D02*
X69200057Y-41866666D01*
X70104819Y-40914285D02*
X70104819Y-41485713D01*
X70104819Y-41199999D02*
X69104819Y-41199999D01*
X69104819Y-41199999D02*
X69247676Y-41295237D01*
X69247676Y-41295237D02*
X69342914Y-41390475D01*
X69342914Y-41390475D02*
X69390533Y-41485713D01*
X50933333Y-32254819D02*
X50600000Y-31778628D01*
X50361905Y-32254819D02*
X50361905Y-31254819D01*
X50361905Y-31254819D02*
X50742857Y-31254819D01*
X50742857Y-31254819D02*
X50838095Y-31302438D01*
X50838095Y-31302438D02*
X50885714Y-31350057D01*
X50885714Y-31350057D02*
X50933333Y-31445295D01*
X50933333Y-31445295D02*
X50933333Y-31588152D01*
X50933333Y-31588152D02*
X50885714Y-31683390D01*
X50885714Y-31683390D02*
X50838095Y-31731009D01*
X50838095Y-31731009D02*
X50742857Y-31778628D01*
X50742857Y-31778628D02*
X50361905Y-31778628D01*
X51790476Y-31254819D02*
X51600000Y-31254819D01*
X51600000Y-31254819D02*
X51504762Y-31302438D01*
X51504762Y-31302438D02*
X51457143Y-31350057D01*
X51457143Y-31350057D02*
X51361905Y-31492914D01*
X51361905Y-31492914D02*
X51314286Y-31683390D01*
X51314286Y-31683390D02*
X51314286Y-32064342D01*
X51314286Y-32064342D02*
X51361905Y-32159580D01*
X51361905Y-32159580D02*
X51409524Y-32207200D01*
X51409524Y-32207200D02*
X51504762Y-32254819D01*
X51504762Y-32254819D02*
X51695238Y-32254819D01*
X51695238Y-32254819D02*
X51790476Y-32207200D01*
X51790476Y-32207200D02*
X51838095Y-32159580D01*
X51838095Y-32159580D02*
X51885714Y-32064342D01*
X51885714Y-32064342D02*
X51885714Y-31826247D01*
X51885714Y-31826247D02*
X51838095Y-31731009D01*
X51838095Y-31731009D02*
X51790476Y-31683390D01*
X51790476Y-31683390D02*
X51695238Y-31635771D01*
X51695238Y-31635771D02*
X51504762Y-31635771D01*
X51504762Y-31635771D02*
X51409524Y-31683390D01*
X51409524Y-31683390D02*
X51361905Y-31731009D01*
X51361905Y-31731009D02*
X51314286Y-31826247D01*
X34958333Y-31804819D02*
X34625000Y-31328628D01*
X34386905Y-31804819D02*
X34386905Y-30804819D01*
X34386905Y-30804819D02*
X34767857Y-30804819D01*
X34767857Y-30804819D02*
X34863095Y-30852438D01*
X34863095Y-30852438D02*
X34910714Y-30900057D01*
X34910714Y-30900057D02*
X34958333Y-30995295D01*
X34958333Y-30995295D02*
X34958333Y-31138152D01*
X34958333Y-31138152D02*
X34910714Y-31233390D01*
X34910714Y-31233390D02*
X34863095Y-31281009D01*
X34863095Y-31281009D02*
X34767857Y-31328628D01*
X34767857Y-31328628D02*
X34386905Y-31328628D01*
X35434524Y-31804819D02*
X35625000Y-31804819D01*
X35625000Y-31804819D02*
X35720238Y-31757200D01*
X35720238Y-31757200D02*
X35767857Y-31709580D01*
X35767857Y-31709580D02*
X35863095Y-31566723D01*
X35863095Y-31566723D02*
X35910714Y-31376247D01*
X35910714Y-31376247D02*
X35910714Y-30995295D01*
X35910714Y-30995295D02*
X35863095Y-30900057D01*
X35863095Y-30900057D02*
X35815476Y-30852438D01*
X35815476Y-30852438D02*
X35720238Y-30804819D01*
X35720238Y-30804819D02*
X35529762Y-30804819D01*
X35529762Y-30804819D02*
X35434524Y-30852438D01*
X35434524Y-30852438D02*
X35386905Y-30900057D01*
X35386905Y-30900057D02*
X35339286Y-30995295D01*
X35339286Y-30995295D02*
X35339286Y-31233390D01*
X35339286Y-31233390D02*
X35386905Y-31328628D01*
X35386905Y-31328628D02*
X35434524Y-31376247D01*
X35434524Y-31376247D02*
X35529762Y-31423866D01*
X35529762Y-31423866D02*
X35720238Y-31423866D01*
X35720238Y-31423866D02*
X35815476Y-31376247D01*
X35815476Y-31376247D02*
X35863095Y-31328628D01*
X35863095Y-31328628D02*
X35910714Y-31233390D01*
X43541666Y-30954819D02*
X43541666Y-31669104D01*
X43541666Y-31669104D02*
X43494047Y-31811961D01*
X43494047Y-31811961D02*
X43398809Y-31907200D01*
X43398809Y-31907200D02*
X43255952Y-31954819D01*
X43255952Y-31954819D02*
X43160714Y-31954819D01*
X44541666Y-31954819D02*
X43970238Y-31954819D01*
X44255952Y-31954819D02*
X44255952Y-30954819D01*
X44255952Y-30954819D02*
X44160714Y-31097676D01*
X44160714Y-31097676D02*
X44065476Y-31192914D01*
X44065476Y-31192914D02*
X43970238Y-31240533D01*
X48157142Y-38174580D02*
X48109523Y-38222200D01*
X48109523Y-38222200D02*
X47966666Y-38269819D01*
X47966666Y-38269819D02*
X47871428Y-38269819D01*
X47871428Y-38269819D02*
X47728571Y-38222200D01*
X47728571Y-38222200D02*
X47633333Y-38126961D01*
X47633333Y-38126961D02*
X47585714Y-38031723D01*
X47585714Y-38031723D02*
X47538095Y-37841247D01*
X47538095Y-37841247D02*
X47538095Y-37698390D01*
X47538095Y-37698390D02*
X47585714Y-37507914D01*
X47585714Y-37507914D02*
X47633333Y-37412676D01*
X47633333Y-37412676D02*
X47728571Y-37317438D01*
X47728571Y-37317438D02*
X47871428Y-37269819D01*
X47871428Y-37269819D02*
X47966666Y-37269819D01*
X47966666Y-37269819D02*
X48109523Y-37317438D01*
X48109523Y-37317438D02*
X48157142Y-37365057D01*
X49109523Y-38269819D02*
X48538095Y-38269819D01*
X48823809Y-38269819D02*
X48823809Y-37269819D01*
X48823809Y-37269819D02*
X48728571Y-37412676D01*
X48728571Y-37412676D02*
X48633333Y-37507914D01*
X48633333Y-37507914D02*
X48538095Y-37555533D01*
X50014285Y-37269819D02*
X49538095Y-37269819D01*
X49538095Y-37269819D02*
X49490476Y-37746009D01*
X49490476Y-37746009D02*
X49538095Y-37698390D01*
X49538095Y-37698390D02*
X49633333Y-37650771D01*
X49633333Y-37650771D02*
X49871428Y-37650771D01*
X49871428Y-37650771D02*
X49966666Y-37698390D01*
X49966666Y-37698390D02*
X50014285Y-37746009D01*
X50014285Y-37746009D02*
X50061904Y-37841247D01*
X50061904Y-37841247D02*
X50061904Y-38079342D01*
X50061904Y-38079342D02*
X50014285Y-38174580D01*
X50014285Y-38174580D02*
X49966666Y-38222200D01*
X49966666Y-38222200D02*
X49871428Y-38269819D01*
X49871428Y-38269819D02*
X49633333Y-38269819D01*
X49633333Y-38269819D02*
X49538095Y-38222200D01*
X49538095Y-38222200D02*
X49490476Y-38174580D01*
X66404819Y-32038094D02*
X65404819Y-32038094D01*
X65404819Y-32038094D02*
X65404819Y-31799999D01*
X65404819Y-31799999D02*
X65452438Y-31657142D01*
X65452438Y-31657142D02*
X65547676Y-31561904D01*
X65547676Y-31561904D02*
X65642914Y-31514285D01*
X65642914Y-31514285D02*
X65833390Y-31466666D01*
X65833390Y-31466666D02*
X65976247Y-31466666D01*
X65976247Y-31466666D02*
X66166723Y-31514285D01*
X66166723Y-31514285D02*
X66261961Y-31561904D01*
X66261961Y-31561904D02*
X66357200Y-31657142D01*
X66357200Y-31657142D02*
X66404819Y-31799999D01*
X66404819Y-31799999D02*
X66404819Y-32038094D01*
X66404819Y-30514285D02*
X66404819Y-31085713D01*
X66404819Y-30799999D02*
X65404819Y-30799999D01*
X65404819Y-30799999D02*
X65547676Y-30895237D01*
X65547676Y-30895237D02*
X65642914Y-30990475D01*
X65642914Y-30990475D02*
X65690533Y-31085713D01*
X54854819Y-32966666D02*
X54378628Y-33299999D01*
X54854819Y-33538094D02*
X53854819Y-33538094D01*
X53854819Y-33538094D02*
X53854819Y-33157142D01*
X53854819Y-33157142D02*
X53902438Y-33061904D01*
X53902438Y-33061904D02*
X53950057Y-33014285D01*
X53950057Y-33014285D02*
X54045295Y-32966666D01*
X54045295Y-32966666D02*
X54188152Y-32966666D01*
X54188152Y-32966666D02*
X54283390Y-33014285D01*
X54283390Y-33014285D02*
X54331009Y-33061904D01*
X54331009Y-33061904D02*
X54378628Y-33157142D01*
X54378628Y-33157142D02*
X54378628Y-33538094D01*
X53854819Y-32633332D02*
X53854819Y-31966666D01*
X53854819Y-31966666D02*
X54854819Y-32395237D01*
X65254581Y-49567857D02*
X65302201Y-49615476D01*
X65302201Y-49615476D02*
X65349820Y-49758333D01*
X65349820Y-49758333D02*
X65349820Y-49853571D01*
X65349820Y-49853571D02*
X65302201Y-49996428D01*
X65302201Y-49996428D02*
X65206962Y-50091666D01*
X65206962Y-50091666D02*
X65111724Y-50139285D01*
X65111724Y-50139285D02*
X64921248Y-50186904D01*
X64921248Y-50186904D02*
X64778391Y-50186904D01*
X64778391Y-50186904D02*
X64587915Y-50139285D01*
X64587915Y-50139285D02*
X64492677Y-50091666D01*
X64492677Y-50091666D02*
X64397439Y-49996428D01*
X64397439Y-49996428D02*
X64349820Y-49853571D01*
X64349820Y-49853571D02*
X64349820Y-49758333D01*
X64349820Y-49758333D02*
X64397439Y-49615476D01*
X64397439Y-49615476D02*
X64445058Y-49567857D01*
X65349820Y-48615476D02*
X65349820Y-49186904D01*
X65349820Y-48901190D02*
X64349820Y-48901190D01*
X64349820Y-48901190D02*
X64492677Y-48996428D01*
X64492677Y-48996428D02*
X64587915Y-49091666D01*
X64587915Y-49091666D02*
X64635534Y-49186904D01*
X64445058Y-48234523D02*
X64397439Y-48186904D01*
X64397439Y-48186904D02*
X64349820Y-48091666D01*
X64349820Y-48091666D02*
X64349820Y-47853571D01*
X64349820Y-47853571D02*
X64397439Y-47758333D01*
X64397439Y-47758333D02*
X64445058Y-47710714D01*
X64445058Y-47710714D02*
X64540296Y-47663095D01*
X64540296Y-47663095D02*
X64635534Y-47663095D01*
X64635534Y-47663095D02*
X64778391Y-47710714D01*
X64778391Y-47710714D02*
X65349820Y-48282142D01*
X65349820Y-48282142D02*
X65349820Y-47663095D01*
X53254819Y-32966666D02*
X52778628Y-33299999D01*
X53254819Y-33538094D02*
X52254819Y-33538094D01*
X52254819Y-33538094D02*
X52254819Y-33157142D01*
X52254819Y-33157142D02*
X52302438Y-33061904D01*
X52302438Y-33061904D02*
X52350057Y-33014285D01*
X52350057Y-33014285D02*
X52445295Y-32966666D01*
X52445295Y-32966666D02*
X52588152Y-32966666D01*
X52588152Y-32966666D02*
X52683390Y-33014285D01*
X52683390Y-33014285D02*
X52731009Y-33061904D01*
X52731009Y-33061904D02*
X52778628Y-33157142D01*
X52778628Y-33157142D02*
X52778628Y-33538094D01*
X52588152Y-32109523D02*
X53254819Y-32109523D01*
X52207200Y-32347618D02*
X52921485Y-32585713D01*
X52921485Y-32585713D02*
X52921485Y-31966666D01*
X59238095Y-34304819D02*
X59238095Y-35114342D01*
X59238095Y-35114342D02*
X59285714Y-35209580D01*
X59285714Y-35209580D02*
X59333333Y-35257200D01*
X59333333Y-35257200D02*
X59428571Y-35304819D01*
X59428571Y-35304819D02*
X59619047Y-35304819D01*
X59619047Y-35304819D02*
X59714285Y-35257200D01*
X59714285Y-35257200D02*
X59761904Y-35209580D01*
X59761904Y-35209580D02*
X59809523Y-35114342D01*
X59809523Y-35114342D02*
X59809523Y-34304819D01*
X60809523Y-35304819D02*
X60238095Y-35304819D01*
X60523809Y-35304819D02*
X60523809Y-34304819D01*
X60523809Y-34304819D02*
X60428571Y-34447676D01*
X60428571Y-34447676D02*
X60333333Y-34542914D01*
X60333333Y-34542914D02*
X60238095Y-34590533D01*
X57557142Y-50859580D02*
X57509523Y-50907200D01*
X57509523Y-50907200D02*
X57366666Y-50954819D01*
X57366666Y-50954819D02*
X57271428Y-50954819D01*
X57271428Y-50954819D02*
X57128571Y-50907200D01*
X57128571Y-50907200D02*
X57033333Y-50811961D01*
X57033333Y-50811961D02*
X56985714Y-50716723D01*
X56985714Y-50716723D02*
X56938095Y-50526247D01*
X56938095Y-50526247D02*
X56938095Y-50383390D01*
X56938095Y-50383390D02*
X56985714Y-50192914D01*
X56985714Y-50192914D02*
X57033333Y-50097676D01*
X57033333Y-50097676D02*
X57128571Y-50002438D01*
X57128571Y-50002438D02*
X57271428Y-49954819D01*
X57271428Y-49954819D02*
X57366666Y-49954819D01*
X57366666Y-49954819D02*
X57509523Y-50002438D01*
X57509523Y-50002438D02*
X57557142Y-50050057D01*
X58509523Y-50954819D02*
X57938095Y-50954819D01*
X58223809Y-50954819D02*
X58223809Y-49954819D01*
X58223809Y-49954819D02*
X58128571Y-50097676D01*
X58128571Y-50097676D02*
X58033333Y-50192914D01*
X58033333Y-50192914D02*
X57938095Y-50240533D01*
X59461904Y-50954819D02*
X58890476Y-50954819D01*
X59176190Y-50954819D02*
X59176190Y-49954819D01*
X59176190Y-49954819D02*
X59080952Y-50097676D01*
X59080952Y-50097676D02*
X58985714Y-50192914D01*
X58985714Y-50192914D02*
X58890476Y-50240533D01*
X66524819Y-35166666D02*
X66048628Y-35499999D01*
X66524819Y-35738094D02*
X65524819Y-35738094D01*
X65524819Y-35738094D02*
X65524819Y-35357142D01*
X65524819Y-35357142D02*
X65572438Y-35261904D01*
X65572438Y-35261904D02*
X65620057Y-35214285D01*
X65620057Y-35214285D02*
X65715295Y-35166666D01*
X65715295Y-35166666D02*
X65858152Y-35166666D01*
X65858152Y-35166666D02*
X65953390Y-35214285D01*
X65953390Y-35214285D02*
X66001009Y-35261904D01*
X66001009Y-35261904D02*
X66048628Y-35357142D01*
X66048628Y-35357142D02*
X66048628Y-35738094D01*
X65620057Y-34785713D02*
X65572438Y-34738094D01*
X65572438Y-34738094D02*
X65524819Y-34642856D01*
X65524819Y-34642856D02*
X65524819Y-34404761D01*
X65524819Y-34404761D02*
X65572438Y-34309523D01*
X65572438Y-34309523D02*
X65620057Y-34261904D01*
X65620057Y-34261904D02*
X65715295Y-34214285D01*
X65715295Y-34214285D02*
X65810533Y-34214285D01*
X65810533Y-34214285D02*
X65953390Y-34261904D01*
X65953390Y-34261904D02*
X66524819Y-34833332D01*
X66524819Y-34833332D02*
X66524819Y-34214285D01*
X34857142Y-50454819D02*
X34523809Y-49978628D01*
X34285714Y-50454819D02*
X34285714Y-49454819D01*
X34285714Y-49454819D02*
X34666666Y-49454819D01*
X34666666Y-49454819D02*
X34761904Y-49502438D01*
X34761904Y-49502438D02*
X34809523Y-49550057D01*
X34809523Y-49550057D02*
X34857142Y-49645295D01*
X34857142Y-49645295D02*
X34857142Y-49788152D01*
X34857142Y-49788152D02*
X34809523Y-49883390D01*
X34809523Y-49883390D02*
X34761904Y-49931009D01*
X34761904Y-49931009D02*
X34666666Y-49978628D01*
X34666666Y-49978628D02*
X34285714Y-49978628D01*
X35809523Y-50454819D02*
X35238095Y-50454819D01*
X35523809Y-50454819D02*
X35523809Y-49454819D01*
X35523809Y-49454819D02*
X35428571Y-49597676D01*
X35428571Y-49597676D02*
X35333333Y-49692914D01*
X35333333Y-49692914D02*
X35238095Y-49740533D01*
X36428571Y-49454819D02*
X36523809Y-49454819D01*
X36523809Y-49454819D02*
X36619047Y-49502438D01*
X36619047Y-49502438D02*
X36666666Y-49550057D01*
X36666666Y-49550057D02*
X36714285Y-49645295D01*
X36714285Y-49645295D02*
X36761904Y-49835771D01*
X36761904Y-49835771D02*
X36761904Y-50073866D01*
X36761904Y-50073866D02*
X36714285Y-50264342D01*
X36714285Y-50264342D02*
X36666666Y-50359580D01*
X36666666Y-50359580D02*
X36619047Y-50407200D01*
X36619047Y-50407200D02*
X36523809Y-50454819D01*
X36523809Y-50454819D02*
X36428571Y-50454819D01*
X36428571Y-50454819D02*
X36333333Y-50407200D01*
X36333333Y-50407200D02*
X36285714Y-50359580D01*
X36285714Y-50359580D02*
X36238095Y-50264342D01*
X36238095Y-50264342D02*
X36190476Y-50073866D01*
X36190476Y-50073866D02*
X36190476Y-49835771D01*
X36190476Y-49835771D02*
X36238095Y-49645295D01*
X36238095Y-49645295D02*
X36285714Y-49550057D01*
X36285714Y-49550057D02*
X36333333Y-49502438D01*
X36333333Y-49502438D02*
X36428571Y-49454819D01*
X62159580Y-50366666D02*
X62207200Y-50414285D01*
X62207200Y-50414285D02*
X62254819Y-50557142D01*
X62254819Y-50557142D02*
X62254819Y-50652380D01*
X62254819Y-50652380D02*
X62207200Y-50795237D01*
X62207200Y-50795237D02*
X62111961Y-50890475D01*
X62111961Y-50890475D02*
X62016723Y-50938094D01*
X62016723Y-50938094D02*
X61826247Y-50985713D01*
X61826247Y-50985713D02*
X61683390Y-50985713D01*
X61683390Y-50985713D02*
X61492914Y-50938094D01*
X61492914Y-50938094D02*
X61397676Y-50890475D01*
X61397676Y-50890475D02*
X61302438Y-50795237D01*
X61302438Y-50795237D02*
X61254819Y-50652380D01*
X61254819Y-50652380D02*
X61254819Y-50557142D01*
X61254819Y-50557142D02*
X61302438Y-50414285D01*
X61302438Y-50414285D02*
X61350057Y-50366666D01*
X61254819Y-49509523D02*
X61254819Y-49699999D01*
X61254819Y-49699999D02*
X61302438Y-49795237D01*
X61302438Y-49795237D02*
X61350057Y-49842856D01*
X61350057Y-49842856D02*
X61492914Y-49938094D01*
X61492914Y-49938094D02*
X61683390Y-49985713D01*
X61683390Y-49985713D02*
X62064342Y-49985713D01*
X62064342Y-49985713D02*
X62159580Y-49938094D01*
X62159580Y-49938094D02*
X62207200Y-49890475D01*
X62207200Y-49890475D02*
X62254819Y-49795237D01*
X62254819Y-49795237D02*
X62254819Y-49604761D01*
X62254819Y-49604761D02*
X62207200Y-49509523D01*
X62207200Y-49509523D02*
X62159580Y-49461904D01*
X62159580Y-49461904D02*
X62064342Y-49414285D01*
X62064342Y-49414285D02*
X61826247Y-49414285D01*
X61826247Y-49414285D02*
X61731009Y-49461904D01*
X61731009Y-49461904D02*
X61683390Y-49509523D01*
X61683390Y-49509523D02*
X61635771Y-49604761D01*
X61635771Y-49604761D02*
X61635771Y-49795237D01*
X61635771Y-49795237D02*
X61683390Y-49890475D01*
X61683390Y-49890475D02*
X61731009Y-49938094D01*
X61731009Y-49938094D02*
X61826247Y-49985713D01*
X49433333Y-46059580D02*
X49385714Y-46107200D01*
X49385714Y-46107200D02*
X49242857Y-46154819D01*
X49242857Y-46154819D02*
X49147619Y-46154819D01*
X49147619Y-46154819D02*
X49004762Y-46107200D01*
X49004762Y-46107200D02*
X48909524Y-46011961D01*
X48909524Y-46011961D02*
X48861905Y-45916723D01*
X48861905Y-45916723D02*
X48814286Y-45726247D01*
X48814286Y-45726247D02*
X48814286Y-45583390D01*
X48814286Y-45583390D02*
X48861905Y-45392914D01*
X48861905Y-45392914D02*
X48909524Y-45297676D01*
X48909524Y-45297676D02*
X49004762Y-45202438D01*
X49004762Y-45202438D02*
X49147619Y-45154819D01*
X49147619Y-45154819D02*
X49242857Y-45154819D01*
X49242857Y-45154819D02*
X49385714Y-45202438D01*
X49385714Y-45202438D02*
X49433333Y-45250057D01*
X50290476Y-45488152D02*
X50290476Y-46154819D01*
X50052381Y-45107200D02*
X49814286Y-45821485D01*
X49814286Y-45821485D02*
X50433333Y-45821485D01*
X70009580Y-43566666D02*
X70057200Y-43614285D01*
X70057200Y-43614285D02*
X70104819Y-43757142D01*
X70104819Y-43757142D02*
X70104819Y-43852380D01*
X70104819Y-43852380D02*
X70057200Y-43995237D01*
X70057200Y-43995237D02*
X69961961Y-44090475D01*
X69961961Y-44090475D02*
X69866723Y-44138094D01*
X69866723Y-44138094D02*
X69676247Y-44185713D01*
X69676247Y-44185713D02*
X69533390Y-44185713D01*
X69533390Y-44185713D02*
X69342914Y-44138094D01*
X69342914Y-44138094D02*
X69247676Y-44090475D01*
X69247676Y-44090475D02*
X69152438Y-43995237D01*
X69152438Y-43995237D02*
X69104819Y-43852380D01*
X69104819Y-43852380D02*
X69104819Y-43757142D01*
X69104819Y-43757142D02*
X69152438Y-43614285D01*
X69152438Y-43614285D02*
X69200057Y-43566666D01*
X69200057Y-43185713D02*
X69152438Y-43138094D01*
X69152438Y-43138094D02*
X69104819Y-43042856D01*
X69104819Y-43042856D02*
X69104819Y-42804761D01*
X69104819Y-42804761D02*
X69152438Y-42709523D01*
X69152438Y-42709523D02*
X69200057Y-42661904D01*
X69200057Y-42661904D02*
X69295295Y-42614285D01*
X69295295Y-42614285D02*
X69390533Y-42614285D01*
X69390533Y-42614285D02*
X69533390Y-42661904D01*
X69533390Y-42661904D02*
X70104819Y-43233332D01*
X70104819Y-43233332D02*
X70104819Y-42614285D01*
X63422916Y-34361009D02*
X63089583Y-34361009D01*
X63089583Y-34884819D02*
X63089583Y-33884819D01*
X63089583Y-33884819D02*
X63565773Y-33884819D01*
X64280059Y-34361009D02*
X64422916Y-34408628D01*
X64422916Y-34408628D02*
X64470535Y-34456247D01*
X64470535Y-34456247D02*
X64518154Y-34551485D01*
X64518154Y-34551485D02*
X64518154Y-34694342D01*
X64518154Y-34694342D02*
X64470535Y-34789580D01*
X64470535Y-34789580D02*
X64422916Y-34837200D01*
X64422916Y-34837200D02*
X64327678Y-34884819D01*
X64327678Y-34884819D02*
X63946726Y-34884819D01*
X63946726Y-34884819D02*
X63946726Y-33884819D01*
X63946726Y-33884819D02*
X64280059Y-33884819D01*
X64280059Y-33884819D02*
X64375297Y-33932438D01*
X64375297Y-33932438D02*
X64422916Y-33980057D01*
X64422916Y-33980057D02*
X64470535Y-34075295D01*
X64470535Y-34075295D02*
X64470535Y-34170533D01*
X64470535Y-34170533D02*
X64422916Y-34265771D01*
X64422916Y-34265771D02*
X64375297Y-34313390D01*
X64375297Y-34313390D02*
X64280059Y-34361009D01*
X64280059Y-34361009D02*
X63946726Y-34361009D01*
X65470535Y-34884819D02*
X64899107Y-34884819D01*
X65184821Y-34884819D02*
X65184821Y-33884819D01*
X65184821Y-33884819D02*
X65089583Y-34027676D01*
X65089583Y-34027676D02*
X64994345Y-34122914D01*
X64994345Y-34122914D02*
X64899107Y-34170533D01*
X49433333Y-43659580D02*
X49385714Y-43707200D01*
X49385714Y-43707200D02*
X49242857Y-43754819D01*
X49242857Y-43754819D02*
X49147619Y-43754819D01*
X49147619Y-43754819D02*
X49004762Y-43707200D01*
X49004762Y-43707200D02*
X48909524Y-43611961D01*
X48909524Y-43611961D02*
X48861905Y-43516723D01*
X48861905Y-43516723D02*
X48814286Y-43326247D01*
X48814286Y-43326247D02*
X48814286Y-43183390D01*
X48814286Y-43183390D02*
X48861905Y-42992914D01*
X48861905Y-42992914D02*
X48909524Y-42897676D01*
X48909524Y-42897676D02*
X49004762Y-42802438D01*
X49004762Y-42802438D02*
X49147619Y-42754819D01*
X49147619Y-42754819D02*
X49242857Y-42754819D01*
X49242857Y-42754819D02*
X49385714Y-42802438D01*
X49385714Y-42802438D02*
X49433333Y-42850057D01*
X49766667Y-42754819D02*
X50385714Y-42754819D01*
X50385714Y-42754819D02*
X50052381Y-43135771D01*
X50052381Y-43135771D02*
X50195238Y-43135771D01*
X50195238Y-43135771D02*
X50290476Y-43183390D01*
X50290476Y-43183390D02*
X50338095Y-43231009D01*
X50338095Y-43231009D02*
X50385714Y-43326247D01*
X50385714Y-43326247D02*
X50385714Y-43564342D01*
X50385714Y-43564342D02*
X50338095Y-43659580D01*
X50338095Y-43659580D02*
X50290476Y-43707200D01*
X50290476Y-43707200D02*
X50195238Y-43754819D01*
X50195238Y-43754819D02*
X49909524Y-43754819D01*
X49909524Y-43754819D02*
X49814286Y-43707200D01*
X49814286Y-43707200D02*
X49766667Y-43659580D01*
X57057142Y-31859580D02*
X57009523Y-31907200D01*
X57009523Y-31907200D02*
X56866666Y-31954819D01*
X56866666Y-31954819D02*
X56771428Y-31954819D01*
X56771428Y-31954819D02*
X56628571Y-31907200D01*
X56628571Y-31907200D02*
X56533333Y-31811961D01*
X56533333Y-31811961D02*
X56485714Y-31716723D01*
X56485714Y-31716723D02*
X56438095Y-31526247D01*
X56438095Y-31526247D02*
X56438095Y-31383390D01*
X56438095Y-31383390D02*
X56485714Y-31192914D01*
X56485714Y-31192914D02*
X56533333Y-31097676D01*
X56533333Y-31097676D02*
X56628571Y-31002438D01*
X56628571Y-31002438D02*
X56771428Y-30954819D01*
X56771428Y-30954819D02*
X56866666Y-30954819D01*
X56866666Y-30954819D02*
X57009523Y-31002438D01*
X57009523Y-31002438D02*
X57057142Y-31050057D01*
X58009523Y-31954819D02*
X57438095Y-31954819D01*
X57723809Y-31954819D02*
X57723809Y-30954819D01*
X57723809Y-30954819D02*
X57628571Y-31097676D01*
X57628571Y-31097676D02*
X57533333Y-31192914D01*
X57533333Y-31192914D02*
X57438095Y-31240533D01*
X58866666Y-31288152D02*
X58866666Y-31954819D01*
X58628571Y-30907200D02*
X58390476Y-31621485D01*
X58390476Y-31621485D02*
X59009523Y-31621485D01*
X49433333Y-47259580D02*
X49385714Y-47307200D01*
X49385714Y-47307200D02*
X49242857Y-47354819D01*
X49242857Y-47354819D02*
X49147619Y-47354819D01*
X49147619Y-47354819D02*
X49004762Y-47307200D01*
X49004762Y-47307200D02*
X48909524Y-47211961D01*
X48909524Y-47211961D02*
X48861905Y-47116723D01*
X48861905Y-47116723D02*
X48814286Y-46926247D01*
X48814286Y-46926247D02*
X48814286Y-46783390D01*
X48814286Y-46783390D02*
X48861905Y-46592914D01*
X48861905Y-46592914D02*
X48909524Y-46497676D01*
X48909524Y-46497676D02*
X49004762Y-46402438D01*
X49004762Y-46402438D02*
X49147619Y-46354819D01*
X49147619Y-46354819D02*
X49242857Y-46354819D01*
X49242857Y-46354819D02*
X49385714Y-46402438D01*
X49385714Y-46402438D02*
X49433333Y-46450057D01*
X50004762Y-46783390D02*
X49909524Y-46735771D01*
X49909524Y-46735771D02*
X49861905Y-46688152D01*
X49861905Y-46688152D02*
X49814286Y-46592914D01*
X49814286Y-46592914D02*
X49814286Y-46545295D01*
X49814286Y-46545295D02*
X49861905Y-46450057D01*
X49861905Y-46450057D02*
X49909524Y-46402438D01*
X49909524Y-46402438D02*
X50004762Y-46354819D01*
X50004762Y-46354819D02*
X50195238Y-46354819D01*
X50195238Y-46354819D02*
X50290476Y-46402438D01*
X50290476Y-46402438D02*
X50338095Y-46450057D01*
X50338095Y-46450057D02*
X50385714Y-46545295D01*
X50385714Y-46545295D02*
X50385714Y-46592914D01*
X50385714Y-46592914D02*
X50338095Y-46688152D01*
X50338095Y-46688152D02*
X50290476Y-46735771D01*
X50290476Y-46735771D02*
X50195238Y-46783390D01*
X50195238Y-46783390D02*
X50004762Y-46783390D01*
X50004762Y-46783390D02*
X49909524Y-46831009D01*
X49909524Y-46831009D02*
X49861905Y-46878628D01*
X49861905Y-46878628D02*
X49814286Y-46973866D01*
X49814286Y-46973866D02*
X49814286Y-47164342D01*
X49814286Y-47164342D02*
X49861905Y-47259580D01*
X49861905Y-47259580D02*
X49909524Y-47307200D01*
X49909524Y-47307200D02*
X50004762Y-47354819D01*
X50004762Y-47354819D02*
X50195238Y-47354819D01*
X50195238Y-47354819D02*
X50290476Y-47307200D01*
X50290476Y-47307200D02*
X50338095Y-47259580D01*
X50338095Y-47259580D02*
X50385714Y-47164342D01*
X50385714Y-47164342D02*
X50385714Y-46973866D01*
X50385714Y-46973866D02*
X50338095Y-46878628D01*
X50338095Y-46878628D02*
X50290476Y-46831009D01*
X50290476Y-46831009D02*
X50195238Y-46783390D01*
X48157142Y-32059580D02*
X48109523Y-32107200D01*
X48109523Y-32107200D02*
X47966666Y-32154819D01*
X47966666Y-32154819D02*
X47871428Y-32154819D01*
X47871428Y-32154819D02*
X47728571Y-32107200D01*
X47728571Y-32107200D02*
X47633333Y-32011961D01*
X47633333Y-32011961D02*
X47585714Y-31916723D01*
X47585714Y-31916723D02*
X47538095Y-31726247D01*
X47538095Y-31726247D02*
X47538095Y-31583390D01*
X47538095Y-31583390D02*
X47585714Y-31392914D01*
X47585714Y-31392914D02*
X47633333Y-31297676D01*
X47633333Y-31297676D02*
X47728571Y-31202438D01*
X47728571Y-31202438D02*
X47871428Y-31154819D01*
X47871428Y-31154819D02*
X47966666Y-31154819D01*
X47966666Y-31154819D02*
X48109523Y-31202438D01*
X48109523Y-31202438D02*
X48157142Y-31250057D01*
X49109523Y-32154819D02*
X48538095Y-32154819D01*
X48823809Y-32154819D02*
X48823809Y-31154819D01*
X48823809Y-31154819D02*
X48728571Y-31297676D01*
X48728571Y-31297676D02*
X48633333Y-31392914D01*
X48633333Y-31392914D02*
X48538095Y-31440533D01*
X49966666Y-31154819D02*
X49776190Y-31154819D01*
X49776190Y-31154819D02*
X49680952Y-31202438D01*
X49680952Y-31202438D02*
X49633333Y-31250057D01*
X49633333Y-31250057D02*
X49538095Y-31392914D01*
X49538095Y-31392914D02*
X49490476Y-31583390D01*
X49490476Y-31583390D02*
X49490476Y-31964342D01*
X49490476Y-31964342D02*
X49538095Y-32059580D01*
X49538095Y-32059580D02*
X49585714Y-32107200D01*
X49585714Y-32107200D02*
X49680952Y-32154819D01*
X49680952Y-32154819D02*
X49871428Y-32154819D01*
X49871428Y-32154819D02*
X49966666Y-32107200D01*
X49966666Y-32107200D02*
X50014285Y-32059580D01*
X50014285Y-32059580D02*
X50061904Y-31964342D01*
X50061904Y-31964342D02*
X50061904Y-31726247D01*
X50061904Y-31726247D02*
X50014285Y-31631009D01*
X50014285Y-31631009D02*
X49966666Y-31583390D01*
X49966666Y-31583390D02*
X49871428Y-31535771D01*
X49871428Y-31535771D02*
X49680952Y-31535771D01*
X49680952Y-31535771D02*
X49585714Y-31583390D01*
X49585714Y-31583390D02*
X49538095Y-31631009D01*
X49538095Y-31631009D02*
X49490476Y-31726247D01*
X73258332Y-46984580D02*
X73210713Y-47032200D01*
X73210713Y-47032200D02*
X73067856Y-47079819D01*
X73067856Y-47079819D02*
X72972618Y-47079819D01*
X72972618Y-47079819D02*
X72829761Y-47032200D01*
X72829761Y-47032200D02*
X72734523Y-46936961D01*
X72734523Y-46936961D02*
X72686904Y-46841723D01*
X72686904Y-46841723D02*
X72639285Y-46651247D01*
X72639285Y-46651247D02*
X72639285Y-46508390D01*
X72639285Y-46508390D02*
X72686904Y-46317914D01*
X72686904Y-46317914D02*
X72734523Y-46222676D01*
X72734523Y-46222676D02*
X72829761Y-46127438D01*
X72829761Y-46127438D02*
X72972618Y-46079819D01*
X72972618Y-46079819D02*
X73067856Y-46079819D01*
X73067856Y-46079819D02*
X73210713Y-46127438D01*
X73210713Y-46127438D02*
X73258332Y-46175057D01*
X73734523Y-47079819D02*
X73924999Y-47079819D01*
X73924999Y-47079819D02*
X74020237Y-47032200D01*
X74020237Y-47032200D02*
X74067856Y-46984580D01*
X74067856Y-46984580D02*
X74163094Y-46841723D01*
X74163094Y-46841723D02*
X74210713Y-46651247D01*
X74210713Y-46651247D02*
X74210713Y-46270295D01*
X74210713Y-46270295D02*
X74163094Y-46175057D01*
X74163094Y-46175057D02*
X74115475Y-46127438D01*
X74115475Y-46127438D02*
X74020237Y-46079819D01*
X74020237Y-46079819D02*
X73829761Y-46079819D01*
X73829761Y-46079819D02*
X73734523Y-46127438D01*
X73734523Y-46127438D02*
X73686904Y-46175057D01*
X73686904Y-46175057D02*
X73639285Y-46270295D01*
X73639285Y-46270295D02*
X73639285Y-46508390D01*
X73639285Y-46508390D02*
X73686904Y-46603628D01*
X73686904Y-46603628D02*
X73734523Y-46651247D01*
X73734523Y-46651247D02*
X73829761Y-46698866D01*
X73829761Y-46698866D02*
X74020237Y-46698866D01*
X74020237Y-46698866D02*
X74115475Y-46651247D01*
X74115475Y-46651247D02*
X74163094Y-46603628D01*
X74163094Y-46603628D02*
X74210713Y-46508390D01*
X71394819Y-35403924D02*
X70918628Y-35737257D01*
X71394819Y-35975352D02*
X70394819Y-35975352D01*
X70394819Y-35975352D02*
X70394819Y-35594400D01*
X70394819Y-35594400D02*
X70442438Y-35499162D01*
X70442438Y-35499162D02*
X70490057Y-35451543D01*
X70490057Y-35451543D02*
X70585295Y-35403924D01*
X70585295Y-35403924D02*
X70728152Y-35403924D01*
X70728152Y-35403924D02*
X70823390Y-35451543D01*
X70823390Y-35451543D02*
X70871009Y-35499162D01*
X70871009Y-35499162D02*
X70918628Y-35594400D01*
X70918628Y-35594400D02*
X70918628Y-35975352D01*
X70394819Y-35070590D02*
X70394819Y-34451543D01*
X70394819Y-34451543D02*
X70775771Y-34784876D01*
X70775771Y-34784876D02*
X70775771Y-34642019D01*
X70775771Y-34642019D02*
X70823390Y-34546781D01*
X70823390Y-34546781D02*
X70871009Y-34499162D01*
X70871009Y-34499162D02*
X70966247Y-34451543D01*
X70966247Y-34451543D02*
X71204342Y-34451543D01*
X71204342Y-34451543D02*
X71299580Y-34499162D01*
X71299580Y-34499162D02*
X71347200Y-34546781D01*
X71347200Y-34546781D02*
X71394819Y-34642019D01*
X71394819Y-34642019D02*
X71394819Y-34927733D01*
X71394819Y-34927733D02*
X71347200Y-35022971D01*
X71347200Y-35022971D02*
X71299580Y-35070590D01*
X54657142Y-50759580D02*
X54609523Y-50807200D01*
X54609523Y-50807200D02*
X54466666Y-50854819D01*
X54466666Y-50854819D02*
X54371428Y-50854819D01*
X54371428Y-50854819D02*
X54228571Y-50807200D01*
X54228571Y-50807200D02*
X54133333Y-50711961D01*
X54133333Y-50711961D02*
X54085714Y-50616723D01*
X54085714Y-50616723D02*
X54038095Y-50426247D01*
X54038095Y-50426247D02*
X54038095Y-50283390D01*
X54038095Y-50283390D02*
X54085714Y-50092914D01*
X54085714Y-50092914D02*
X54133333Y-49997676D01*
X54133333Y-49997676D02*
X54228571Y-49902438D01*
X54228571Y-49902438D02*
X54371428Y-49854819D01*
X54371428Y-49854819D02*
X54466666Y-49854819D01*
X54466666Y-49854819D02*
X54609523Y-49902438D01*
X54609523Y-49902438D02*
X54657142Y-49950057D01*
X55609523Y-50854819D02*
X55038095Y-50854819D01*
X55323809Y-50854819D02*
X55323809Y-49854819D01*
X55323809Y-49854819D02*
X55228571Y-49997676D01*
X55228571Y-49997676D02*
X55133333Y-50092914D01*
X55133333Y-50092914D02*
X55038095Y-50140533D01*
X56228571Y-49854819D02*
X56323809Y-49854819D01*
X56323809Y-49854819D02*
X56419047Y-49902438D01*
X56419047Y-49902438D02*
X56466666Y-49950057D01*
X56466666Y-49950057D02*
X56514285Y-50045295D01*
X56514285Y-50045295D02*
X56561904Y-50235771D01*
X56561904Y-50235771D02*
X56561904Y-50473866D01*
X56561904Y-50473866D02*
X56514285Y-50664342D01*
X56514285Y-50664342D02*
X56466666Y-50759580D01*
X56466666Y-50759580D02*
X56419047Y-50807200D01*
X56419047Y-50807200D02*
X56323809Y-50854819D01*
X56323809Y-50854819D02*
X56228571Y-50854819D01*
X56228571Y-50854819D02*
X56133333Y-50807200D01*
X56133333Y-50807200D02*
X56085714Y-50759580D01*
X56085714Y-50759580D02*
X56038095Y-50664342D01*
X56038095Y-50664342D02*
X55990476Y-50473866D01*
X55990476Y-50473866D02*
X55990476Y-50235771D01*
X55990476Y-50235771D02*
X56038095Y-50045295D01*
X56038095Y-50045295D02*
X56085714Y-49950057D01*
X56085714Y-49950057D02*
X56133333Y-49902438D01*
X56133333Y-49902438D02*
X56228571Y-49854819D01*
X71384819Y-32738094D02*
X70384819Y-32738094D01*
X70384819Y-32738094D02*
X70384819Y-32499999D01*
X70384819Y-32499999D02*
X70432438Y-32357142D01*
X70432438Y-32357142D02*
X70527676Y-32261904D01*
X70527676Y-32261904D02*
X70622914Y-32214285D01*
X70622914Y-32214285D02*
X70813390Y-32166666D01*
X70813390Y-32166666D02*
X70956247Y-32166666D01*
X70956247Y-32166666D02*
X71146723Y-32214285D01*
X71146723Y-32214285D02*
X71241961Y-32261904D01*
X71241961Y-32261904D02*
X71337200Y-32357142D01*
X71337200Y-32357142D02*
X71384819Y-32499999D01*
X71384819Y-32499999D02*
X71384819Y-32738094D01*
X70480057Y-31785713D02*
X70432438Y-31738094D01*
X70432438Y-31738094D02*
X70384819Y-31642856D01*
X70384819Y-31642856D02*
X70384819Y-31404761D01*
X70384819Y-31404761D02*
X70432438Y-31309523D01*
X70432438Y-31309523D02*
X70480057Y-31261904D01*
X70480057Y-31261904D02*
X70575295Y-31214285D01*
X70575295Y-31214285D02*
X70670533Y-31214285D01*
X70670533Y-31214285D02*
X70813390Y-31261904D01*
X70813390Y-31261904D02*
X71384819Y-31833332D01*
X71384819Y-31833332D02*
X71384819Y-31214285D01*
X49433333Y-44954819D02*
X49100000Y-44478628D01*
X48861905Y-44954819D02*
X48861905Y-43954819D01*
X48861905Y-43954819D02*
X49242857Y-43954819D01*
X49242857Y-43954819D02*
X49338095Y-44002438D01*
X49338095Y-44002438D02*
X49385714Y-44050057D01*
X49385714Y-44050057D02*
X49433333Y-44145295D01*
X49433333Y-44145295D02*
X49433333Y-44288152D01*
X49433333Y-44288152D02*
X49385714Y-44383390D01*
X49385714Y-44383390D02*
X49338095Y-44431009D01*
X49338095Y-44431009D02*
X49242857Y-44478628D01*
X49242857Y-44478628D02*
X48861905Y-44478628D01*
X50385714Y-44954819D02*
X49814286Y-44954819D01*
X50100000Y-44954819D02*
X50100000Y-43954819D01*
X50100000Y-43954819D02*
X50004762Y-44097676D01*
X50004762Y-44097676D02*
X49909524Y-44192914D01*
X49909524Y-44192914D02*
X49814286Y-44240533D01*
X60253973Y-31559580D02*
X60206354Y-31607200D01*
X60206354Y-31607200D02*
X60063497Y-31654819D01*
X60063497Y-31654819D02*
X59968259Y-31654819D01*
X59968259Y-31654819D02*
X59825402Y-31607200D01*
X59825402Y-31607200D02*
X59730164Y-31511961D01*
X59730164Y-31511961D02*
X59682545Y-31416723D01*
X59682545Y-31416723D02*
X59634926Y-31226247D01*
X59634926Y-31226247D02*
X59634926Y-31083390D01*
X59634926Y-31083390D02*
X59682545Y-30892914D01*
X59682545Y-30892914D02*
X59730164Y-30797676D01*
X59730164Y-30797676D02*
X59825402Y-30702438D01*
X59825402Y-30702438D02*
X59968259Y-30654819D01*
X59968259Y-30654819D02*
X60063497Y-30654819D01*
X60063497Y-30654819D02*
X60206354Y-30702438D01*
X60206354Y-30702438D02*
X60253973Y-30750057D01*
X61206354Y-31654819D02*
X60634926Y-31654819D01*
X60920640Y-31654819D02*
X60920640Y-30654819D01*
X60920640Y-30654819D02*
X60825402Y-30797676D01*
X60825402Y-30797676D02*
X60730164Y-30892914D01*
X60730164Y-30892914D02*
X60634926Y-30940533D01*
X61539688Y-30654819D02*
X62158735Y-30654819D01*
X62158735Y-30654819D02*
X61825402Y-31035771D01*
X61825402Y-31035771D02*
X61968259Y-31035771D01*
X61968259Y-31035771D02*
X62063497Y-31083390D01*
X62063497Y-31083390D02*
X62111116Y-31131009D01*
X62111116Y-31131009D02*
X62158735Y-31226247D01*
X62158735Y-31226247D02*
X62158735Y-31464342D01*
X62158735Y-31464342D02*
X62111116Y-31559580D01*
X62111116Y-31559580D02*
X62063497Y-31607200D01*
X62063497Y-31607200D02*
X61968259Y-31654819D01*
X61968259Y-31654819D02*
X61682545Y-31654819D01*
X61682545Y-31654819D02*
X61587307Y-31607200D01*
X61587307Y-31607200D02*
X61539688Y-31559580D01*
X60559580Y-50366666D02*
X60607200Y-50414285D01*
X60607200Y-50414285D02*
X60654819Y-50557142D01*
X60654819Y-50557142D02*
X60654819Y-50652380D01*
X60654819Y-50652380D02*
X60607200Y-50795237D01*
X60607200Y-50795237D02*
X60511961Y-50890475D01*
X60511961Y-50890475D02*
X60416723Y-50938094D01*
X60416723Y-50938094D02*
X60226247Y-50985713D01*
X60226247Y-50985713D02*
X60083390Y-50985713D01*
X60083390Y-50985713D02*
X59892914Y-50938094D01*
X59892914Y-50938094D02*
X59797676Y-50890475D01*
X59797676Y-50890475D02*
X59702438Y-50795237D01*
X59702438Y-50795237D02*
X59654819Y-50652380D01*
X59654819Y-50652380D02*
X59654819Y-50557142D01*
X59654819Y-50557142D02*
X59702438Y-50414285D01*
X59702438Y-50414285D02*
X59750057Y-50366666D01*
X59654819Y-50033332D02*
X59654819Y-49366666D01*
X59654819Y-49366666D02*
X60654819Y-49795237D01*
X56454819Y-33066666D02*
X55978628Y-33399999D01*
X56454819Y-33638094D02*
X55454819Y-33638094D01*
X55454819Y-33638094D02*
X55454819Y-33257142D01*
X55454819Y-33257142D02*
X55502438Y-33161904D01*
X55502438Y-33161904D02*
X55550057Y-33114285D01*
X55550057Y-33114285D02*
X55645295Y-33066666D01*
X55645295Y-33066666D02*
X55788152Y-33066666D01*
X55788152Y-33066666D02*
X55883390Y-33114285D01*
X55883390Y-33114285D02*
X55931009Y-33161904D01*
X55931009Y-33161904D02*
X55978628Y-33257142D01*
X55978628Y-33257142D02*
X55978628Y-33638094D01*
X55454819Y-32161904D02*
X55454819Y-32638094D01*
X55454819Y-32638094D02*
X55931009Y-32685713D01*
X55931009Y-32685713D02*
X55883390Y-32638094D01*
X55883390Y-32638094D02*
X55835771Y-32542856D01*
X55835771Y-32542856D02*
X55835771Y-32304761D01*
X55835771Y-32304761D02*
X55883390Y-32209523D01*
X55883390Y-32209523D02*
X55931009Y-32161904D01*
X55931009Y-32161904D02*
X56026247Y-32114285D01*
X56026247Y-32114285D02*
X56264342Y-32114285D01*
X56264342Y-32114285D02*
X56359580Y-32161904D01*
X56359580Y-32161904D02*
X56407200Y-32209523D01*
X56407200Y-32209523D02*
X56454819Y-32304761D01*
X56454819Y-32304761D02*
X56454819Y-32542856D01*
X56454819Y-32542856D02*
X56407200Y-32638094D01*
X56407200Y-32638094D02*
X56359580Y-32685713D01*
%TO.C,C5*%
D11*
X62890000Y-47559419D02*
X62890000Y-47840581D01*
X63910000Y-47559419D02*
X63910000Y-47840581D01*
%TO.C,R8*%
X48662742Y-35477500D02*
X49137258Y-35477500D01*
X48662742Y-36522500D02*
X49137258Y-36522500D01*
%TO.C,RN1*%
X50400000Y-37300000D02*
X53600000Y-37300000D01*
X50400000Y-39200000D02*
X50527000Y-39200000D01*
X50400000Y-41100000D02*
X50400000Y-37300000D01*
X50527000Y-38425300D02*
X50412700Y-38425300D01*
X50527000Y-39974700D02*
X50412700Y-39974700D01*
X53473000Y-38425300D02*
X53587300Y-38425300D01*
X53473000Y-39974700D02*
X53587300Y-39974700D01*
X53600000Y-37300000D02*
X53600000Y-41100000D01*
X53600000Y-39200000D02*
X53473000Y-39200000D01*
X53600000Y-41100000D02*
X50400000Y-41100000D01*
%TO.C,C17*%
X48940581Y-40190000D02*
X48659419Y-40190000D01*
X48940581Y-41210000D02*
X48659419Y-41210000D01*
%TO.C,C1*%
X67359420Y-41240000D02*
X67640580Y-41240000D01*
X67359420Y-42260000D02*
X67640580Y-42260000D01*
%TO.C,R6*%
X50677500Y-35062742D02*
X50677500Y-35537258D01*
X51722500Y-35062742D02*
X51722500Y-35537258D01*
%TO.C,R9*%
X32737258Y-30827500D02*
X32262742Y-30827500D01*
X32737258Y-31872500D02*
X32262742Y-31872500D01*
%TO.C,J1*%
X31105000Y-32530000D02*
X37395000Y-32530000D01*
X31105000Y-48870000D02*
X37395000Y-48870000D01*
X42055000Y-31630000D02*
X42455000Y-32430001D01*
X42455000Y-32430001D02*
X42855000Y-31630000D01*
X42855000Y-31630000D02*
X42055000Y-31630000D01*
X47025000Y-32530000D02*
X40915000Y-32530000D01*
X47025000Y-48870000D02*
X40915001Y-48870000D01*
X47025000Y-48870000D02*
X47025000Y-32530000D01*
%TO.C,C15*%
X48940581Y-38690000D02*
X48659419Y-38690000D01*
X48940581Y-39710000D02*
X48659419Y-39710000D01*
%TO.C,D1*%
X66765000Y-30515000D02*
X66765000Y-32800000D01*
X68235000Y-30515000D02*
X66765000Y-30515000D01*
X68235000Y-32800000D02*
X68235000Y-30515000D01*
%TO.C,J2*%
X76820000Y-48330000D02*
X76820001Y-30440000D01*
X79579999Y-30440000D02*
X76820001Y-30440000D01*
X79579999Y-49600000D02*
X79580000Y-50980000D01*
X79580000Y-48330000D02*
X76820000Y-48330000D01*
X79580000Y-48330000D02*
X79579999Y-30440000D01*
X79580000Y-50980000D02*
X78200000Y-50979999D01*
%TO.C,R7*%
X53877500Y-35537258D02*
X53877500Y-35062742D01*
X54922500Y-35537258D02*
X54922500Y-35062742D01*
%TO.C,C12*%
X65815001Y-49065581D02*
X65815001Y-48784419D01*
X66835001Y-49065581D02*
X66835001Y-48784419D01*
%TO.C,R4*%
X52277500Y-35062742D02*
X52277500Y-35537258D01*
X53322500Y-35062742D02*
X53322500Y-35537258D01*
%TO.C,U1*%
X56390000Y-37090000D02*
X56840000Y-37090000D01*
X56390000Y-37540000D02*
X56390000Y-37090000D01*
X56390000Y-44310000D02*
X56390000Y-43860000D01*
X56840000Y-44310000D02*
X56390000Y-44310000D01*
X63160000Y-37090000D02*
X63610000Y-37090000D01*
X63610000Y-37090000D02*
X63610000Y-37540000D01*
X63610000Y-43860000D02*
X63610000Y-44310000D01*
X63610000Y-44310000D02*
X63160000Y-44310000D01*
X55750000Y-37540000D02*
X55410000Y-37070000D01*
X56090000Y-37070000D01*
X55750000Y-37540000D01*
G36*
X55750000Y-37540000D02*
G01*
X55410000Y-37070000D01*
X56090000Y-37070000D01*
X55750000Y-37540000D01*
G37*
%TO.C,C11*%
X58090000Y-47559419D02*
X58090000Y-47840581D01*
X59110000Y-47559419D02*
X59110000Y-47840581D01*
%TO.C,R2*%
X66977500Y-35237258D02*
X66977500Y-34762742D01*
X68022500Y-35237258D02*
X68022500Y-34762742D01*
%TO.C,R10*%
X32737258Y-49477500D02*
X32262742Y-49477500D01*
X32737258Y-50522500D02*
X32262742Y-50522500D01*
%TO.C,C6*%
X61290000Y-47559419D02*
X61290000Y-47840581D01*
X62310000Y-47559419D02*
X62310000Y-47840581D01*
%TO.C,C4*%
X52140581Y-44790000D02*
X51859419Y-44790000D01*
X52140581Y-45810000D02*
X51859419Y-45810000D01*
%TO.C,C2*%
X67359420Y-42890000D02*
X67640580Y-42890000D01*
X67359420Y-43910000D02*
X67640580Y-43910000D01*
%TO.C,FB1*%
X64419030Y-32490000D02*
X64093470Y-32490000D01*
X64419030Y-33510000D02*
X64093470Y-33510000D01*
%TO.C,C3*%
X52140581Y-41590000D02*
X51859419Y-41590000D01*
X52140581Y-42610000D02*
X51859419Y-42610000D01*
%TO.C,C14*%
X57190000Y-33559419D02*
X57190000Y-33840581D01*
X58210000Y-33559419D02*
X58210000Y-33840581D01*
%TO.C,X1*%
X68125000Y-47125000D02*
X72025000Y-47125000D01*
X68125000Y-50725000D02*
X68125000Y-47125000D01*
X72525000Y-47625000D02*
X72525000Y-50725000D01*
X72525000Y-50725000D02*
X68125000Y-50725000D01*
D12*
X72388500Y-47325000D02*
G75*
G02*
X72261500Y-47325000I-63500J0D01*
G01*
X72261500Y-47325000D02*
G75*
G02*
X72388500Y-47325000I63500J0D01*
G01*
%TO.C,C8*%
D11*
X52140581Y-46390000D02*
X51859419Y-46390000D01*
X52140581Y-47410000D02*
X51859419Y-47410000D01*
%TO.C,C16*%
X48759419Y-33890000D02*
X49040581Y-33890000D01*
X48759419Y-34910000D02*
X49040581Y-34910000D01*
%TO.C,C9*%
X73815000Y-48784419D02*
X73815000Y-49065581D01*
X74835000Y-48784419D02*
X74835000Y-49065581D01*
%TO.C,R3*%
X68977500Y-35237258D02*
X68977500Y-34762742D01*
X70022500Y-35237258D02*
X70022500Y-34762742D01*
%TO.C,C10*%
X56490000Y-47559419D02*
X56490000Y-47840581D01*
X57510000Y-47559419D02*
X57510000Y-47840581D01*
%TO.C,D2*%
X68765000Y-30515000D02*
X68765000Y-32800000D01*
X70235000Y-30515000D02*
X68765000Y-30515000D01*
X70235000Y-32800000D02*
X70235000Y-30515000D01*
%TO.C,R1*%
X52237258Y-43177500D02*
X51762742Y-43177500D01*
X52237258Y-44222500D02*
X51762742Y-44222500D01*
%TO.C,C13*%
X60896831Y-32490000D02*
X60615669Y-32490000D01*
X60896831Y-33510000D02*
X60615669Y-33510000D01*
%TO.C,C7*%
X59690000Y-47559419D02*
X59690000Y-47840581D01*
X60710000Y-47559419D02*
X60710000Y-47840581D01*
%TO.C,R5*%
X55477500Y-35537258D02*
X55477500Y-35062742D01*
X56522500Y-35537258D02*
X56522500Y-35062742D01*
%TD*%
M02*
