M48
; DRILL file KiCad 10.0.4 date 2026-09-25T15:00:12
; FORMAT={-:-/ absolute / metric / decimal}
; #@! TF.CreationDate,2026-09-25T15:00:12-07:00
; #@! TF.GenerationSoftware,Kicad,Pcbnew,10.0.4
; #@! TF.FileFunction,MixedPlating,1,4
FMAT,2
METRIC
; #@! TA.AperFunction,Plated,PTH,ViaDrill
T1C0.300
; #@! TA.AperFunction,Plated,PTH,ComponentDrill
T2C0.890
; #@! TA.AperFunction,Plated,PTH,ComponentDrill
T3C1.000
; #@! TA.AperFunction,Plated,PTH,ComponentDrill
T4C1.020
; #@! TA.AperFunction,Plated,PTH,ComponentDrill
T5C1.600
; #@! TA.AperFunction,NonPlated,NPTH,ComponentDrill
T6C3.250
%
G90
G05
T1
X47.0Y-34.4
X47.1Y-36.0
X48.9Y-36.0
X51.2Y-33.5
X52.0Y-39.2
X52.0Y-40.0
X52.0Y-43.7
X54.4Y-35.3
X54.4Y-37.1
X55.8Y-48.4
X56.0Y-37.1
X56.0Y-49.4
X57.05Y-43.1
X57.1Y-39.45
X57.1Y-41.55
X57.9Y-49.3
X58.15Y-43.45
X58.7Y-32.9
X59.0Y-39.7
X59.0Y-40.7
X59.0Y-41.7
X59.25Y-43.45
X60.0Y-39.7
X60.0Y-40.7
X60.0Y-41.7
X61.0Y-39.7
X61.0Y-40.7
X61.0Y-41.7
X61.0Y-48.475
X61.2Y-43.45
X61.556Y-32.15
X62.85Y-43.0
X63.5Y-45.8
X65.4Y-46.0
X65.6Y-42.1
X66.256Y-33.0
X67.5Y-31.95
X67.65Y-48.15
X69.4Y-43.4
X69.5Y-31.95
X73.05Y-49.775
T2
X42.455Y-36.255
X42.455Y-38.795
X42.455Y-41.335
X42.455Y-43.875
X44.995Y-37.525
X44.995Y-40.065
X44.995Y-42.605
X44.995Y-45.145
T3
X78.2Y-31.82
X78.2Y-34.36
X78.2Y-36.9
X78.2Y-39.44
X78.2Y-41.98
X78.2Y-44.52
X78.2Y-47.06
X78.2Y-49.6
T4
X32.045Y-34.07
X32.045Y-36.61
X32.045Y-44.79
X32.045Y-47.33
T5
X39.155Y-32.955
X39.155Y-48.445
T6
X36.105Y-34.985
X36.105Y-46.415
M30
