%TF.GenerationSoftware,KiCad,Pcbnew,10.0.4*%
%TF.CreationDate,2026-09-25T15:00:12-07:00*%
%TF.ProjectId,Ethernet,45746865-726e-4657-942e-6b696361645f,rev?*%
%TF.SameCoordinates,Original*%
%TF.FileFunction,Copper,L2,Inr*%
%TF.FilePolarity,Positive*%
%FSLAX46Y46*%
G04 Gerber Fmt 4.6, Leading zero omitted, Abs format (unit mm)*
G04 Created by KiCad (PCBNEW 10.0.4) date 2026-09-25 15:00:12*
%MOMM*%
%LPD*%
G01*
G04 APERTURE LIST*
%TA.AperFunction,ComponentPad*%
%ADD10R,1.800000X1.800000*%
%TD*%
%TA.AperFunction,ComponentPad*%
%ADD11C,1.800000*%
%TD*%
%TA.AperFunction,ComponentPad*%
%ADD12C,2.000000*%
%TD*%
%TA.AperFunction,ComponentPad*%
%ADD13C,3.000000*%
%TD*%
%TA.AperFunction,ComponentPad*%
%ADD14R,1.700000X1.700000*%
%TD*%
%TA.AperFunction,ComponentPad*%
%ADD15C,1.700000*%
%TD*%
%TA.AperFunction,ViaPad*%
%ADD16C,0.600000*%
%TD*%
G04 APERTURE END LIST*
D10*
%TO.N,/RJ45/TXP*%
%TO.C,J1*%
X42455000Y-36255000D03*
D11*
%TO.N,/RJ45/TXN*%
X44995000Y-37525000D03*
%TO.N,Net-(J1-RD+)*%
X42455000Y-38795000D03*
%TO.N,Net-(J1-TCT)*%
X44995000Y-40065000D03*
%TO.N,Net-(J1-RCT)*%
X42455000Y-41334999D03*
%TO.N,Net-(J1-RD-)*%
X44995000Y-42605000D03*
%TO.N,unconnected-(J1-NC-Pad7)*%
X42455000Y-43875000D03*
%TO.N,GND*%
X44995000Y-45145000D03*
D12*
%TO.N,+3.3V*%
X32045000Y-34070000D03*
%TO.N,Net-(J1-Pad10)*%
X32045000Y-36609999D03*
%TO.N,+3.3V*%
X32045000Y-44790000D03*
%TO.N,Net-(J1-Pad12)*%
X32045000Y-47330000D03*
D13*
%TO.N,GND*%
X39155000Y-32955000D03*
X39155000Y-48445000D03*
%TD*%
D14*
%TO.N,GND*%
%TO.C,J2*%
X78200000Y-49600000D03*
D15*
%TO.N,+3.3V*%
X78200000Y-47060000D03*
%TO.N,/Connector/~{SCS}*%
X78200000Y-44520001D03*
%TO.N,/Connector/SCLK*%
X78200000Y-41980000D03*
%TO.N,/Connector/MISO*%
X78200000Y-39440000D03*
%TO.N,/Connector/MOSI*%
X78200000Y-36900000D03*
%TO.N,/Connector/~{INT}*%
X78200000Y-34360000D03*
%TO.N,/Connector/~{RST}*%
X78200000Y-31819999D03*
%TD*%
D16*
%TO.N,+3.3V*%
X66256250Y-33000000D03*
X65600000Y-42100000D03*
%TO.N,GND*%
X61000000Y-48475000D03*
X60000000Y-39700000D03*
X59000000Y-41700000D03*
X73050000Y-49775000D03*
X61000000Y-40700000D03*
X58700000Y-32900000D03*
X61000000Y-39700000D03*
X69400000Y-43400000D03*
X56000000Y-49400000D03*
X61000000Y-41700000D03*
X59000000Y-39700000D03*
X67650000Y-48150000D03*
X52000000Y-43700000D03*
X57900000Y-49300000D03*
X60000000Y-41700000D03*
X60000000Y-40700000D03*
X59000000Y-40700000D03*
X47000000Y-34400000D03*
%TO.N,+3.3VA*%
X47100000Y-36000000D03*
X61556250Y-32150000D03*
X59250000Y-43450000D03*
X58150000Y-43450000D03*
X57050000Y-43100000D03*
X57100000Y-39450000D03*
X61200000Y-43450000D03*
X57100000Y-41550000D03*
X51200000Y-33500000D03*
%TO.N,Net-(J1-RCT)*%
X54400000Y-35300000D03*
%TO.N,/RJ45/RXN*%
X54400000Y-37100000D03*
X52000000Y-39200000D03*
%TO.N,Net-(J1-TCT)*%
X48900000Y-36000000D03*
%TO.N,/RJ45/RXP*%
X56000000Y-37100000D03*
X52000000Y-40000000D03*
%TO.N,/W5500/SPDLED*%
X67500000Y-31950000D03*
X63500000Y-45800000D03*
%TO.N,/W5500/DUPLED*%
X62850000Y-43000000D03*
X69500000Y-31950000D03*
%TO.N,/RJ45/ACTLED*%
X65400000Y-46000000D03*
X55800000Y-48400000D03*
%TD*%
%TA.AperFunction,Conductor*%
%TO.N,GND*%
G36*
X77403932Y-30520185D02*
G01*
X77449687Y-30572989D01*
X77459631Y-30642147D01*
X77430606Y-30705703D01*
X77409778Y-30724818D01*
X77320214Y-30789889D01*
X77320209Y-30789893D01*
X77169890Y-30940212D01*
X77044951Y-31112178D01*
X76948444Y-31301584D01*
X76948443Y-31301586D01*
X76948443Y-31301587D01*
X76922879Y-31380264D01*
X76882753Y-31503759D01*
X76849500Y-31713712D01*
X76849500Y-31926285D01*
X76872445Y-32071158D01*
X76882754Y-32136242D01*
X76945445Y-32329185D01*
X76948444Y-32338413D01*
X77044951Y-32527819D01*
X77169890Y-32699785D01*
X77320213Y-32850108D01*
X77492179Y-32975047D01*
X77492181Y-32975048D01*
X77492184Y-32975050D01*
X77500945Y-32979513D01*
X77551741Y-33027487D01*
X77568537Y-33095307D01*
X77546001Y-33161443D01*
X77500950Y-33200481D01*
X77492187Y-33204946D01*
X77492184Y-33204948D01*
X77320213Y-33329890D01*
X77169890Y-33480213D01*
X77044951Y-33652179D01*
X76948444Y-33841585D01*
X76882753Y-34043760D01*
X76856520Y-34209390D01*
X76849500Y-34253713D01*
X76849500Y-34466287D01*
X76859534Y-34529644D01*
X76877962Y-34645992D01*
X76882754Y-34676243D01*
X76943131Y-34862064D01*
X76948444Y-34878414D01*
X77044951Y-35067820D01*
X77169890Y-35239786D01*
X77320213Y-35390109D01*
X77492182Y-35515050D01*
X77500946Y-35519516D01*
X77551742Y-35567491D01*
X77568536Y-35635312D01*
X77545998Y-35701447D01*
X77500946Y-35740484D01*
X77492182Y-35744949D01*
X77320213Y-35869890D01*
X77169890Y-36020213D01*
X77044951Y-36192179D01*
X76948444Y-36381585D01*
X76882753Y-36583760D01*
X76849500Y-36793713D01*
X76849500Y-37006286D01*
X76879713Y-37197047D01*
X76882754Y-37216243D01*
X76947262Y-37414778D01*
X76948444Y-37418414D01*
X77044951Y-37607820D01*
X77169890Y-37779786D01*
X77320213Y-37930109D01*
X77492182Y-38055050D01*
X77500946Y-38059516D01*
X77551742Y-38107491D01*
X77568536Y-38175312D01*
X77545998Y-38241447D01*
X77500946Y-38280484D01*
X77492182Y-38284949D01*
X77320213Y-38409890D01*
X77169890Y-38560213D01*
X77044951Y-38732179D01*
X76948444Y-38921585D01*
X76882753Y-39123760D01*
X76868065Y-39216498D01*
X76849500Y-39333713D01*
X76849500Y-39546287D01*
X76857563Y-39597197D01*
X76879713Y-39737047D01*
X76882754Y-39756243D01*
X76947262Y-39954778D01*
X76948444Y-39958414D01*
X77044951Y-40147820D01*
X77169890Y-40319786D01*
X77320213Y-40470109D01*
X77492182Y-40595050D01*
X77500946Y-40599516D01*
X77551742Y-40647491D01*
X77568536Y-40715312D01*
X77545998Y-40781447D01*
X77500946Y-40820484D01*
X77492182Y-40824949D01*
X77320213Y-40949890D01*
X77169890Y-41100213D01*
X77044951Y-41272179D01*
X76948444Y-41461585D01*
X76948443Y-41461587D01*
X76948443Y-41461588D01*
X76945334Y-41471158D01*
X76882753Y-41663760D01*
X76849500Y-41873713D01*
X76849500Y-42086286D01*
X76881861Y-42290609D01*
X76882754Y-42296243D01*
X76947262Y-42494778D01*
X76948444Y-42498414D01*
X77044951Y-42687820D01*
X77169890Y-42859786D01*
X77320213Y-43010109D01*
X77492179Y-43135048D01*
X77492181Y-43135049D01*
X77492184Y-43135051D01*
X77500945Y-43139514D01*
X77551741Y-43187488D01*
X77568537Y-43255308D01*
X77546001Y-43321444D01*
X77500950Y-43360482D01*
X77492187Y-43364947D01*
X77492184Y-43364949D01*
X77320213Y-43489891D01*
X77169890Y-43640214D01*
X77044951Y-43812180D01*
X76948444Y-44001586D01*
X76882753Y-44203761D01*
X76849676Y-44412603D01*
X76849500Y-44413714D01*
X76849500Y-44626288D01*
X76856725Y-44671902D01*
X76865816Y-44729306D01*
X76882754Y-44836244D01*
X76945795Y-45030264D01*
X76948444Y-45038415D01*
X77044951Y-45227821D01*
X77169890Y-45399787D01*
X77320213Y-45550110D01*
X77492179Y-45675049D01*
X77492181Y-45675050D01*
X77492184Y-45675052D01*
X77500942Y-45679514D01*
X77551739Y-45727488D01*
X77568535Y-45795308D01*
X77545999Y-45861444D01*
X77500949Y-45900482D01*
X77492183Y-45904948D01*
X77320213Y-46029890D01*
X77169890Y-46180213D01*
X77044951Y-46352179D01*
X76948444Y-46541585D01*
X76882753Y-46743760D01*
X76849500Y-46953713D01*
X76849500Y-47166286D01*
X76862170Y-47246285D01*
X76882754Y-47376243D01*
X76909712Y-47459212D01*
X76948444Y-47578414D01*
X77044951Y-47767820D01*
X77169890Y-47939786D01*
X77320213Y-48090109D01*
X77492179Y-48215048D01*
X77492181Y-48215049D01*
X77492184Y-48215051D01*
X77681588Y-48311557D01*
X77883757Y-48377246D01*
X78093713Y-48410500D01*
X78093714Y-48410500D01*
X78306286Y-48410500D01*
X78306287Y-48410500D01*
X78516243Y-48377246D01*
X78718412Y-48311557D01*
X78907816Y-48215051D01*
X78929789Y-48199086D01*
X79079786Y-48090109D01*
X79079788Y-48090106D01*
X79079792Y-48090104D01*
X79230104Y-47939792D01*
X79275181Y-47877747D01*
X79330511Y-47835082D01*
X79400124Y-47829103D01*
X79461920Y-47861708D01*
X79496277Y-47922547D01*
X79499500Y-47950633D01*
X79499500Y-50775500D01*
X79479815Y-50842539D01*
X79427011Y-50888294D01*
X79375500Y-50899500D01*
X30624500Y-50899500D01*
X30557461Y-50879815D01*
X30511706Y-50827011D01*
X30500500Y-50775500D01*
X30500500Y-48120381D01*
X30520185Y-48053342D01*
X30572989Y-48007587D01*
X30642147Y-47997643D01*
X30705703Y-48026668D01*
X30734984Y-48064085D01*
X30761657Y-48116433D01*
X30900483Y-48307510D01*
X31067490Y-48474517D01*
X31258567Y-48613343D01*
X31357991Y-48664002D01*
X31469003Y-48720566D01*
X31469005Y-48720566D01*
X31469008Y-48720568D01*
X31589412Y-48759689D01*
X31693631Y-48793553D01*
X31926903Y-48830500D01*
X31926908Y-48830500D01*
X32163097Y-48830500D01*
X32396368Y-48793553D01*
X32440628Y-48779172D01*
X32620992Y-48720568D01*
X32831433Y-48613343D01*
X33022510Y-48474517D01*
X33175874Y-48321153D01*
X54999500Y-48321153D01*
X54999500Y-48478846D01*
X55030261Y-48633489D01*
X55030264Y-48633501D01*
X55090602Y-48779172D01*
X55090609Y-48779185D01*
X55178210Y-48910288D01*
X55178213Y-48910292D01*
X55289707Y-49021786D01*
X55289711Y-49021789D01*
X55420814Y-49109390D01*
X55420827Y-49109397D01*
X55566498Y-49169735D01*
X55566503Y-49169737D01*
X55721153Y-49200499D01*
X55721156Y-49200500D01*
X55721158Y-49200500D01*
X55878844Y-49200500D01*
X55878845Y-49200499D01*
X56033497Y-49169737D01*
X56179179Y-49109394D01*
X56310289Y-49021789D01*
X56421789Y-48910289D01*
X56509394Y-48779179D01*
X56569737Y-48633497D01*
X56600500Y-48478842D01*
X56600500Y-48321158D01*
X56600500Y-48321155D01*
X56600499Y-48321153D01*
X56594402Y-48290500D01*
X56569737Y-48166503D01*
X56550633Y-48120381D01*
X56509397Y-48020827D01*
X56509390Y-48020814D01*
X56421789Y-47889711D01*
X56421786Y-47889707D01*
X56310292Y-47778213D01*
X56310288Y-47778210D01*
X56179185Y-47690609D01*
X56179172Y-47690602D01*
X56033501Y-47630264D01*
X56033489Y-47630261D01*
X55878845Y-47599500D01*
X55878842Y-47599500D01*
X55721158Y-47599500D01*
X55721155Y-47599500D01*
X55566510Y-47630261D01*
X55566498Y-47630264D01*
X55420827Y-47690602D01*
X55420814Y-47690609D01*
X55289711Y-47778210D01*
X55289707Y-47778213D01*
X55178213Y-47889707D01*
X55178210Y-47889711D01*
X55090609Y-48020814D01*
X55090602Y-48020827D01*
X55030264Y-48166498D01*
X55030261Y-48166510D01*
X54999500Y-48321153D01*
X33175874Y-48321153D01*
X33189517Y-48307510D01*
X33328343Y-48116433D01*
X33435568Y-47905992D01*
X33508553Y-47681368D01*
X33516647Y-47630263D01*
X33545500Y-47448097D01*
X33545500Y-47211902D01*
X33508553Y-46978631D01*
X33440679Y-46769738D01*
X33435568Y-46754008D01*
X33435566Y-46754005D01*
X33435566Y-46754003D01*
X33368199Y-46621789D01*
X33328343Y-46543567D01*
X33189517Y-46352490D01*
X33129092Y-46292065D01*
X34229500Y-46292065D01*
X34229500Y-46537934D01*
X34252075Y-46709397D01*
X34261591Y-46781677D01*
X34314365Y-46978632D01*
X34325222Y-47019152D01*
X34325225Y-47019162D01*
X34419303Y-47246285D01*
X34419306Y-47246292D01*
X34542233Y-47459208D01*
X34542235Y-47459211D01*
X34542236Y-47459212D01*
X34691897Y-47654254D01*
X34691903Y-47654261D01*
X34865738Y-47828096D01*
X34865744Y-47828101D01*
X35060792Y-47977767D01*
X35273708Y-48100694D01*
X35500847Y-48194778D01*
X35738323Y-48258409D01*
X35982073Y-48290500D01*
X35982080Y-48290500D01*
X36227920Y-48290500D01*
X36227927Y-48290500D01*
X36471677Y-48258409D01*
X36709153Y-48194778D01*
X36936292Y-48100694D01*
X37149208Y-47977767D01*
X37344256Y-47828101D01*
X37518101Y-47654256D01*
X37667767Y-47459208D01*
X37790694Y-47246292D01*
X37884778Y-47019153D01*
X37948409Y-46781677D01*
X37980500Y-46537927D01*
X37980500Y-46292073D01*
X37948409Y-46048323D01*
X37884778Y-45810847D01*
X37847626Y-45721153D01*
X62699500Y-45721153D01*
X62699500Y-45878846D01*
X62730261Y-46033489D01*
X62730264Y-46033501D01*
X62790602Y-46179172D01*
X62790609Y-46179185D01*
X62878210Y-46310288D01*
X62878213Y-46310292D01*
X62989707Y-46421786D01*
X62989711Y-46421789D01*
X63120814Y-46509390D01*
X63120827Y-46509397D01*
X63266498Y-46569735D01*
X63266503Y-46569737D01*
X63398103Y-46595914D01*
X63421153Y-46600499D01*
X63421156Y-46600500D01*
X63421158Y-46600500D01*
X63578844Y-46600500D01*
X63578845Y-46600499D01*
X63733497Y-46569737D01*
X63879179Y-46509394D01*
X64010289Y-46421789D01*
X64121789Y-46310289D01*
X64209394Y-46179179D01*
X64269737Y-46033497D01*
X64289425Y-45934519D01*
X64292084Y-45921153D01*
X64599500Y-45921153D01*
X64599500Y-46078846D01*
X64630261Y-46233489D01*
X64630264Y-46233501D01*
X64690602Y-46379172D01*
X64690609Y-46379185D01*
X64778210Y-46510288D01*
X64778213Y-46510292D01*
X64889707Y-46621786D01*
X64889711Y-46621789D01*
X65020814Y-46709390D01*
X65020827Y-46709397D01*
X65166498Y-46769735D01*
X65166503Y-46769737D01*
X65321153Y-46800499D01*
X65321156Y-46800500D01*
X65321158Y-46800500D01*
X65478844Y-46800500D01*
X65478845Y-46800499D01*
X65633497Y-46769737D01*
X65779179Y-46709394D01*
X65910289Y-46621789D01*
X66021789Y-46510289D01*
X66109394Y-46379179D01*
X66169737Y-46233497D01*
X66200500Y-46078842D01*
X66200500Y-45921158D01*
X66200500Y-45921155D01*
X66200499Y-45921153D01*
X66194476Y-45890874D01*
X66169737Y-45766503D01*
X66150955Y-45721158D01*
X66109397Y-45620827D01*
X66109390Y-45620814D01*
X66021789Y-45489711D01*
X66021786Y-45489707D01*
X65910292Y-45378213D01*
X65910288Y-45378210D01*
X65779185Y-45290609D01*
X65779172Y-45290602D01*
X65633501Y-45230264D01*
X65633489Y-45230261D01*
X65478845Y-45199500D01*
X65478842Y-45199500D01*
X65321158Y-45199500D01*
X65321155Y-45199500D01*
X65166510Y-45230261D01*
X65166498Y-45230264D01*
X65020827Y-45290602D01*
X65020814Y-45290609D01*
X64889711Y-45378210D01*
X64889707Y-45378213D01*
X64778213Y-45489707D01*
X64778210Y-45489711D01*
X64690609Y-45620814D01*
X64690602Y-45620827D01*
X64630264Y-45766498D01*
X64630261Y-45766510D01*
X64599500Y-45921153D01*
X64292084Y-45921153D01*
X64298107Y-45890875D01*
X64298107Y-45890874D01*
X64300500Y-45878844D01*
X64300500Y-45721155D01*
X64300499Y-45721153D01*
X64280543Y-45620827D01*
X64269737Y-45566503D01*
X64262945Y-45550105D01*
X64209397Y-45420827D01*
X64209390Y-45420814D01*
X64121789Y-45289711D01*
X64121786Y-45289707D01*
X64010292Y-45178213D01*
X64010288Y-45178210D01*
X63879185Y-45090609D01*
X63879172Y-45090602D01*
X63733501Y-45030264D01*
X63733489Y-45030261D01*
X63578845Y-44999500D01*
X63578842Y-44999500D01*
X63421158Y-44999500D01*
X63421155Y-44999500D01*
X63266510Y-45030261D01*
X63266498Y-45030264D01*
X63120827Y-45090602D01*
X63120814Y-45090609D01*
X62989711Y-45178210D01*
X62989707Y-45178213D01*
X62878213Y-45289707D01*
X62878210Y-45289711D01*
X62790609Y-45420814D01*
X62790602Y-45420827D01*
X62730264Y-45566498D01*
X62730261Y-45566510D01*
X62699500Y-45721153D01*
X37847626Y-45721153D01*
X37790694Y-45583708D01*
X37667767Y-45370792D01*
X37559935Y-45230263D01*
X37518102Y-45175745D01*
X37518096Y-45175738D01*
X37344261Y-45001903D01*
X37344254Y-45001897D01*
X37149212Y-44852236D01*
X37149211Y-44852235D01*
X37149208Y-44852233D01*
X36936292Y-44729306D01*
X36936285Y-44729303D01*
X36709162Y-44635225D01*
X36709155Y-44635223D01*
X36709153Y-44635222D01*
X36471677Y-44571591D01*
X36430939Y-44566227D01*
X36227934Y-44539500D01*
X36227927Y-44539500D01*
X35982073Y-44539500D01*
X35982065Y-44539500D01*
X35750059Y-44570045D01*
X35738323Y-44571591D01*
X35500847Y-44635222D01*
X35500837Y-44635225D01*
X35273714Y-44729303D01*
X35273705Y-44729307D01*
X35060787Y-44852236D01*
X34865745Y-45001897D01*
X34865738Y-45001903D01*
X34691903Y-45175738D01*
X34691897Y-45175745D01*
X34542236Y-45370787D01*
X34542233Y-45370791D01*
X34542233Y-45370792D01*
X34535446Y-45382548D01*
X34419307Y-45583705D01*
X34419303Y-45583714D01*
X34325225Y-45810837D01*
X34325222Y-45810847D01*
X34265061Y-46035375D01*
X34261592Y-46048320D01*
X34261590Y-46048331D01*
X34229500Y-46292065D01*
X33129092Y-46292065D01*
X33022510Y-46185483D01*
X32987872Y-46160317D01*
X32945207Y-46104989D01*
X32939228Y-46035375D01*
X32971833Y-45973580D01*
X32987873Y-45959682D01*
X33022510Y-45934517D01*
X33189517Y-45767510D01*
X33328343Y-45576433D01*
X33435568Y-45365992D01*
X33508553Y-45141368D01*
X33545500Y-44908097D01*
X33545500Y-44671902D01*
X33508553Y-44438631D01*
X33447425Y-44250500D01*
X33435568Y-44214008D01*
X33435566Y-44214005D01*
X33435566Y-44214003D01*
X33355015Y-44055914D01*
X33328343Y-44003567D01*
X33189517Y-43812490D01*
X33022510Y-43645483D01*
X32831433Y-43506657D01*
X32786240Y-43483630D01*
X32620996Y-43399433D01*
X32396368Y-43326446D01*
X32163097Y-43289500D01*
X32163092Y-43289500D01*
X31926908Y-43289500D01*
X31926903Y-43289500D01*
X31693631Y-43326446D01*
X31469003Y-43399433D01*
X31258566Y-43506657D01*
X31202975Y-43547047D01*
X31067490Y-43645483D01*
X31067488Y-43645485D01*
X31067487Y-43645485D01*
X30900485Y-43812487D01*
X30900485Y-43812488D01*
X30900483Y-43812490D01*
X30879443Y-43841449D01*
X30761655Y-44003568D01*
X30734984Y-44055914D01*
X30687010Y-44106709D01*
X30619189Y-44123504D01*
X30553054Y-44100966D01*
X30509603Y-44046251D01*
X30500500Y-43999618D01*
X30500500Y-37400380D01*
X30520185Y-37333341D01*
X30572989Y-37287586D01*
X30642147Y-37277642D01*
X30705703Y-37306667D01*
X30734984Y-37344084D01*
X30761657Y-37396432D01*
X30900483Y-37587509D01*
X31067490Y-37754516D01*
X31258567Y-37893342D01*
X31357991Y-37944001D01*
X31469003Y-38000565D01*
X31469005Y-38000565D01*
X31469008Y-38000567D01*
X31589412Y-38039688D01*
X31693631Y-38073552D01*
X31926903Y-38110499D01*
X31926908Y-38110499D01*
X32163097Y-38110499D01*
X32396368Y-38073552D01*
X32430065Y-38062603D01*
X32620992Y-38000567D01*
X32831433Y-37893342D01*
X33022510Y-37754516D01*
X33189517Y-37587509D01*
X33328343Y-37396432D01*
X33435568Y-37185991D01*
X33508553Y-36961367D01*
X33524529Y-36860498D01*
X33545500Y-36728096D01*
X33545500Y-36491901D01*
X33508553Y-36258630D01*
X33474689Y-36154411D01*
X33435568Y-36034007D01*
X33435566Y-36034004D01*
X33435566Y-36034002D01*
X33377970Y-35920965D01*
X33328343Y-35823566D01*
X33189517Y-35632489D01*
X33022510Y-35465482D01*
X32987872Y-35440316D01*
X32945208Y-35384986D01*
X32939229Y-35315373D01*
X32971835Y-35253578D01*
X32987869Y-35239684D01*
X33022510Y-35214517D01*
X33189517Y-35047510D01*
X33324252Y-34862064D01*
X34229500Y-34862064D01*
X34229500Y-35107933D01*
X34247878Y-35247517D01*
X34261591Y-35351676D01*
X34317024Y-35558556D01*
X34325222Y-35589151D01*
X34325225Y-35589161D01*
X34416819Y-35810288D01*
X34419306Y-35816291D01*
X34542233Y-36029207D01*
X34542235Y-36029210D01*
X34542236Y-36029211D01*
X34691897Y-36224253D01*
X34691903Y-36224260D01*
X34865738Y-36398095D01*
X34865745Y-36398101D01*
X34942186Y-36456756D01*
X35060792Y-36547766D01*
X35273708Y-36670693D01*
X35500847Y-36764777D01*
X35738323Y-36828408D01*
X35982073Y-36860499D01*
X35982080Y-36860499D01*
X36227920Y-36860499D01*
X36227927Y-36860499D01*
X36471677Y-36828408D01*
X36709153Y-36764777D01*
X36936292Y-36670693D01*
X37149208Y-36547766D01*
X37344256Y-36398100D01*
X37518101Y-36224255D01*
X37667767Y-36029207D01*
X37790694Y-35816291D01*
X37884778Y-35589152D01*
X37948409Y-35351676D01*
X37954273Y-35307135D01*
X41054500Y-35307135D01*
X41054500Y-37202870D01*
X41054501Y-37202876D01*
X41060908Y-37262483D01*
X41111202Y-37397328D01*
X41111206Y-37397335D01*
X41197452Y-37512544D01*
X41197455Y-37512547D01*
X41312664Y-37598793D01*
X41312671Y-37598797D01*
X41392580Y-37628601D01*
X41448514Y-37670472D01*
X41472931Y-37735936D01*
X41458080Y-37804209D01*
X41436929Y-37832463D01*
X41386756Y-37882636D01*
X41386752Y-37882641D01*
X41257187Y-38060974D01*
X41157104Y-38257393D01*
X41157103Y-38257396D01*
X41088985Y-38467047D01*
X41059725Y-38651791D01*
X41054500Y-38684778D01*
X41054500Y-38905222D01*
X41059962Y-38939707D01*
X41088985Y-39122952D01*
X41157103Y-39332603D01*
X41157104Y-39332606D01*
X41176748Y-39371158D01*
X41257095Y-39528846D01*
X41257187Y-39529025D01*
X41386752Y-39707358D01*
X41386756Y-39707363D01*
X41542640Y-39863247D01*
X41682254Y-39964681D01*
X41724920Y-40020010D01*
X41730899Y-40089624D01*
X41698294Y-40151419D01*
X41682254Y-40165317D01*
X41542641Y-40266751D01*
X41542636Y-40266755D01*
X41386756Y-40422635D01*
X41386752Y-40422640D01*
X41257187Y-40600973D01*
X41157104Y-40797392D01*
X41157103Y-40797395D01*
X41088985Y-41007046D01*
X41068997Y-41133247D01*
X41054500Y-41224777D01*
X41054500Y-41445221D01*
X41068997Y-41536752D01*
X41088985Y-41662951D01*
X41157103Y-41872602D01*
X41157104Y-41872605D01*
X41194591Y-41946175D01*
X41256355Y-42067393D01*
X41257187Y-42069024D01*
X41386752Y-42247357D01*
X41386756Y-42247362D01*
X41542636Y-42403242D01*
X41542641Y-42403246D01*
X41682255Y-42504681D01*
X41724921Y-42560010D01*
X41730900Y-42629624D01*
X41698295Y-42691419D01*
X41682255Y-42705317D01*
X41542641Y-42806752D01*
X41542636Y-42806756D01*
X41386756Y-42962636D01*
X41386752Y-42962641D01*
X41257187Y-43140974D01*
X41157104Y-43337393D01*
X41157103Y-43337396D01*
X41088985Y-43547047D01*
X41061309Y-43721786D01*
X41054500Y-43764778D01*
X41054500Y-43985222D01*
X41057406Y-44003567D01*
X41088985Y-44202952D01*
X41157103Y-44412603D01*
X41157104Y-44412606D01*
X41257187Y-44609025D01*
X41386752Y-44787358D01*
X41386756Y-44787363D01*
X41542636Y-44943243D01*
X41542641Y-44943247D01*
X41623375Y-45001903D01*
X41720978Y-45072815D01*
X41849375Y-45138237D01*
X41917393Y-45172895D01*
X41917396Y-45172896D01*
X41999277Y-45199500D01*
X42127049Y-45241015D01*
X42344778Y-45275500D01*
X42344779Y-45275500D01*
X42565221Y-45275500D01*
X42565222Y-45275500D01*
X42782951Y-45241015D01*
X42992606Y-45172895D01*
X43189022Y-45072815D01*
X43367365Y-44943242D01*
X43523242Y-44787365D01*
X43652815Y-44609022D01*
X43752895Y-44412606D01*
X43821015Y-44202951D01*
X43855500Y-43985222D01*
X43855500Y-43764778D01*
X43855229Y-43763069D01*
X43855313Y-43762414D01*
X43855118Y-43759927D01*
X43855640Y-43759885D01*
X43864182Y-43693778D01*
X43909177Y-43640325D01*
X43975928Y-43619684D01*
X44043242Y-43638407D01*
X44065383Y-43655990D01*
X44082636Y-43673243D01*
X44082641Y-43673247D01*
X44201947Y-43759927D01*
X44260978Y-43802815D01*
X44389375Y-43868237D01*
X44457393Y-43902895D01*
X44457396Y-43902896D01*
X44562221Y-43936955D01*
X44667049Y-43971015D01*
X44884778Y-44005500D01*
X44884779Y-44005500D01*
X45105221Y-44005500D01*
X45105222Y-44005500D01*
X45322951Y-43971015D01*
X45532606Y-43902895D01*
X45729022Y-43802815D01*
X45907365Y-43673242D01*
X46063242Y-43517365D01*
X46192815Y-43339022D01*
X46292895Y-43142606D01*
X46332357Y-43021153D01*
X56249500Y-43021153D01*
X56249500Y-43178846D01*
X56280261Y-43333489D01*
X56280264Y-43333501D01*
X56340602Y-43479172D01*
X56340609Y-43479185D01*
X56428210Y-43610288D01*
X56428213Y-43610292D01*
X56539707Y-43721786D01*
X56539711Y-43721789D01*
X56670814Y-43809390D01*
X56670827Y-43809397D01*
X56816498Y-43869735D01*
X56816503Y-43869737D01*
X56941442Y-43894589D01*
X56971153Y-43900499D01*
X56971156Y-43900500D01*
X56971158Y-43900500D01*
X57128844Y-43900500D01*
X57128845Y-43900499D01*
X57283497Y-43869737D01*
X57333757Y-43848918D01*
X57403224Y-43841449D01*
X57465704Y-43872723D01*
X57484311Y-43894589D01*
X57528207Y-43960284D01*
X57528213Y-43960292D01*
X57639707Y-44071786D01*
X57639711Y-44071789D01*
X57770814Y-44159390D01*
X57770827Y-44159397D01*
X57875980Y-44202952D01*
X57916503Y-44219737D01*
X58071153Y-44250499D01*
X58071156Y-44250500D01*
X58071158Y-44250500D01*
X58228844Y-44250500D01*
X58228845Y-44250499D01*
X58383497Y-44219737D01*
X58529179Y-44159394D01*
X58631111Y-44091284D01*
X58697786Y-44070408D01*
X58765166Y-44088892D01*
X58768847Y-44091257D01*
X58870821Y-44159394D01*
X58870823Y-44159395D01*
X58870827Y-44159397D01*
X58975980Y-44202952D01*
X59016503Y-44219737D01*
X59171153Y-44250499D01*
X59171156Y-44250500D01*
X59171158Y-44250500D01*
X59328844Y-44250500D01*
X59328845Y-44250499D01*
X59483497Y-44219737D01*
X59629179Y-44159394D01*
X59760289Y-44071789D01*
X59871789Y-43960289D01*
X59959394Y-43829179D01*
X59970316Y-43802812D01*
X59986068Y-43764782D01*
X60019737Y-43683497D01*
X60050500Y-43528842D01*
X60050500Y-43371158D01*
X60050500Y-43371155D01*
X60050499Y-43371153D01*
X60399500Y-43371153D01*
X60399500Y-43528846D01*
X60430261Y-43683489D01*
X60430264Y-43683501D01*
X60490602Y-43829172D01*
X60490609Y-43829185D01*
X60578210Y-43960288D01*
X60578213Y-43960292D01*
X60689707Y-44071786D01*
X60689711Y-44071789D01*
X60820814Y-44159390D01*
X60820827Y-44159397D01*
X60925980Y-44202952D01*
X60966503Y-44219737D01*
X61121153Y-44250499D01*
X61121156Y-44250500D01*
X61121158Y-44250500D01*
X61278844Y-44250500D01*
X61278845Y-44250499D01*
X61433497Y-44219737D01*
X61579179Y-44159394D01*
X61710289Y-44071789D01*
X61821789Y-43960289D01*
X61909394Y-43829179D01*
X61920316Y-43802812D01*
X61936068Y-43764782D01*
X61969737Y-43683497D01*
X61997178Y-43545539D01*
X62029562Y-43483630D01*
X62090278Y-43449056D01*
X62160047Y-43452795D01*
X62216720Y-43493661D01*
X62221895Y-43500838D01*
X62228209Y-43510287D01*
X62228213Y-43510292D01*
X62339707Y-43621786D01*
X62339711Y-43621789D01*
X62470814Y-43709390D01*
X62470827Y-43709397D01*
X62600412Y-43763072D01*
X62616503Y-43769737D01*
X62771153Y-43800499D01*
X62771156Y-43800500D01*
X62771158Y-43800500D01*
X62928844Y-43800500D01*
X62928845Y-43800499D01*
X63083497Y-43769737D01*
X63229179Y-43709394D01*
X63360289Y-43621789D01*
X63471789Y-43510289D01*
X63559394Y-43379179D01*
X63562719Y-43371153D01*
X63581236Y-43326447D01*
X63619737Y-43233497D01*
X63650500Y-43078842D01*
X63650500Y-42921158D01*
X63650500Y-42921155D01*
X63650499Y-42921153D01*
X63640271Y-42869735D01*
X63619737Y-42766503D01*
X63609711Y-42742297D01*
X63559397Y-42620827D01*
X63559390Y-42620814D01*
X63471789Y-42489711D01*
X63471786Y-42489707D01*
X63360292Y-42378213D01*
X63360288Y-42378210D01*
X63229185Y-42290609D01*
X63229172Y-42290602D01*
X63083501Y-42230264D01*
X63083489Y-42230261D01*
X62928845Y-42199500D01*
X62928842Y-42199500D01*
X62771158Y-42199500D01*
X62771155Y-42199500D01*
X62616510Y-42230261D01*
X62616498Y-42230264D01*
X62470827Y-42290602D01*
X62470814Y-42290609D01*
X62339711Y-42378210D01*
X62339707Y-42378213D01*
X62228213Y-42489707D01*
X62228210Y-42489711D01*
X62140609Y-42620814D01*
X62140602Y-42620827D01*
X62080264Y-42766498D01*
X62080261Y-42766508D01*
X62052821Y-42904459D01*
X62020436Y-42966370D01*
X61959720Y-43000944D01*
X61889951Y-42997204D01*
X61833279Y-42956337D01*
X61828103Y-42949160D01*
X61821788Y-42939709D01*
X61710292Y-42828213D01*
X61710288Y-42828210D01*
X61579185Y-42740609D01*
X61579172Y-42740602D01*
X61433501Y-42680264D01*
X61433489Y-42680261D01*
X61278845Y-42649500D01*
X61278842Y-42649500D01*
X61121158Y-42649500D01*
X61121155Y-42649500D01*
X60966510Y-42680261D01*
X60966498Y-42680264D01*
X60820827Y-42740602D01*
X60820814Y-42740609D01*
X60689711Y-42828210D01*
X60689707Y-42828213D01*
X60578213Y-42939707D01*
X60578210Y-42939711D01*
X60490609Y-43070814D01*
X60490602Y-43070827D01*
X60430264Y-43216498D01*
X60430261Y-43216510D01*
X60399500Y-43371153D01*
X60050499Y-43371153D01*
X60043784Y-43337393D01*
X60019737Y-43216503D01*
X60004139Y-43178846D01*
X59959397Y-43070827D01*
X59959390Y-43070814D01*
X59871789Y-42939711D01*
X59871786Y-42939707D01*
X59760292Y-42828213D01*
X59760288Y-42828210D01*
X59629185Y-42740609D01*
X59629172Y-42740602D01*
X59483501Y-42680264D01*
X59483489Y-42680261D01*
X59328845Y-42649500D01*
X59328842Y-42649500D01*
X59171158Y-42649500D01*
X59171155Y-42649500D01*
X59016510Y-42680261D01*
X59016498Y-42680264D01*
X58870827Y-42740602D01*
X58870814Y-42740609D01*
X58768891Y-42808713D01*
X58702213Y-42829591D01*
X58634833Y-42811107D01*
X58631109Y-42808713D01*
X58529185Y-42740609D01*
X58529172Y-42740602D01*
X58383501Y-42680264D01*
X58383489Y-42680261D01*
X58228845Y-42649500D01*
X58228842Y-42649500D01*
X58071158Y-42649500D01*
X58071155Y-42649500D01*
X57916510Y-42680261D01*
X57916498Y-42680264D01*
X57866242Y-42701081D01*
X57796772Y-42708550D01*
X57734293Y-42677274D01*
X57715690Y-42655413D01*
X57671789Y-42589711D01*
X57671787Y-42589708D01*
X57560292Y-42478213D01*
X57560288Y-42478210D01*
X57510296Y-42444806D01*
X57465491Y-42391193D01*
X57456784Y-42321868D01*
X57486939Y-42258841D01*
X57510297Y-42238602D01*
X57599733Y-42178842D01*
X57610289Y-42171789D01*
X57721789Y-42060289D01*
X57747939Y-42021153D01*
X64799500Y-42021153D01*
X64799500Y-42178846D01*
X64830261Y-42333489D01*
X64830264Y-42333501D01*
X64890602Y-42479172D01*
X64890609Y-42479185D01*
X64978210Y-42610288D01*
X64978213Y-42610292D01*
X65089707Y-42721786D01*
X65089711Y-42721789D01*
X65220814Y-42809390D01*
X65220827Y-42809397D01*
X65358683Y-42866498D01*
X65366503Y-42869737D01*
X65521153Y-42900499D01*
X65521156Y-42900500D01*
X65521158Y-42900500D01*
X65678844Y-42900500D01*
X65678845Y-42900499D01*
X65833497Y-42869737D01*
X65946166Y-42823067D01*
X65979172Y-42809397D01*
X65979172Y-42809396D01*
X65979179Y-42809394D01*
X66110289Y-42721789D01*
X66221789Y-42610289D01*
X66309394Y-42479179D01*
X66369737Y-42333497D01*
X66400500Y-42178842D01*
X66400500Y-42021158D01*
X66400500Y-42021155D01*
X66400499Y-42021153D01*
X66385585Y-41946175D01*
X66369737Y-41866503D01*
X66335352Y-41783489D01*
X66309397Y-41720827D01*
X66309390Y-41720814D01*
X66221789Y-41589711D01*
X66221786Y-41589707D01*
X66110292Y-41478213D01*
X66110288Y-41478210D01*
X65979185Y-41390609D01*
X65979172Y-41390602D01*
X65833501Y-41330264D01*
X65833489Y-41330261D01*
X65678845Y-41299500D01*
X65678842Y-41299500D01*
X65521158Y-41299500D01*
X65521155Y-41299500D01*
X65366510Y-41330261D01*
X65366498Y-41330264D01*
X65220827Y-41390602D01*
X65220814Y-41390609D01*
X65089711Y-41478210D01*
X65089707Y-41478213D01*
X64978213Y-41589707D01*
X64978210Y-41589711D01*
X64890609Y-41720814D01*
X64890602Y-41720827D01*
X64830264Y-41866498D01*
X64830261Y-41866510D01*
X64799500Y-42021153D01*
X57747939Y-42021153D01*
X57809394Y-41929179D01*
X57869737Y-41783497D01*
X57900500Y-41628842D01*
X57900500Y-41471158D01*
X57900500Y-41471155D01*
X57900499Y-41471153D01*
X57887775Y-41407185D01*
X57869737Y-41316503D01*
X57831743Y-41224777D01*
X57809397Y-41170827D01*
X57809390Y-41170814D01*
X57721789Y-41039711D01*
X57721786Y-41039707D01*
X57610292Y-40928213D01*
X57610288Y-40928210D01*
X57479185Y-40840609D01*
X57479172Y-40840602D01*
X57333501Y-40780264D01*
X57333489Y-40780261D01*
X57178845Y-40749500D01*
X57178842Y-40749500D01*
X57021158Y-40749500D01*
X57021155Y-40749500D01*
X56866510Y-40780261D01*
X56866498Y-40780264D01*
X56720827Y-40840602D01*
X56720814Y-40840609D01*
X56589711Y-40928210D01*
X56589707Y-40928213D01*
X56478213Y-41039707D01*
X56478210Y-41039711D01*
X56390609Y-41170814D01*
X56390602Y-41170827D01*
X56330264Y-41316498D01*
X56330261Y-41316510D01*
X56299500Y-41471153D01*
X56299500Y-41628846D01*
X56330261Y-41783489D01*
X56330264Y-41783501D01*
X56390602Y-41929172D01*
X56390609Y-41929185D01*
X56478210Y-42060288D01*
X56478213Y-42060292D01*
X56589707Y-42171786D01*
X56589711Y-42171789D01*
X56639703Y-42205193D01*
X56684508Y-42258805D01*
X56693215Y-42328130D01*
X56663061Y-42391158D01*
X56639703Y-42411397D01*
X56539711Y-42478210D01*
X56539707Y-42478213D01*
X56428213Y-42589707D01*
X56428210Y-42589711D01*
X56340609Y-42720814D01*
X56340602Y-42720827D01*
X56280264Y-42866498D01*
X56280261Y-42866510D01*
X56249500Y-43021153D01*
X46332357Y-43021153D01*
X46338923Y-43000944D01*
X46346785Y-42976748D01*
X46351370Y-42962635D01*
X46361015Y-42932951D01*
X46395500Y-42715222D01*
X46395500Y-42494778D01*
X46361015Y-42277049D01*
X46326814Y-42171789D01*
X46292896Y-42067396D01*
X46292895Y-42067393D01*
X46231130Y-41946175D01*
X46192815Y-41870978D01*
X46083725Y-41720827D01*
X46063247Y-41692641D01*
X46063243Y-41692636D01*
X45907363Y-41536756D01*
X45907358Y-41536752D01*
X45767745Y-41435318D01*
X45725079Y-41379989D01*
X45719100Y-41310375D01*
X45751705Y-41248580D01*
X45767745Y-41234682D01*
X45907358Y-41133247D01*
X45907356Y-41133247D01*
X45907365Y-41133242D01*
X46063242Y-40977365D01*
X46192815Y-40799022D01*
X46292895Y-40602606D01*
X46361015Y-40392951D01*
X46395500Y-40175222D01*
X46395500Y-39954778D01*
X46361015Y-39737049D01*
X46299034Y-39546287D01*
X46292896Y-39527396D01*
X46292895Y-39527393D01*
X46258237Y-39459375D01*
X46192815Y-39330978D01*
X46109641Y-39216498D01*
X46088901Y-39187951D01*
X46088900Y-39187950D01*
X46063245Y-39152638D01*
X46031760Y-39121153D01*
X51199500Y-39121153D01*
X51199500Y-39278846D01*
X51230261Y-39433489D01*
X51230264Y-39433501D01*
X51279574Y-39552548D01*
X51287043Y-39622018D01*
X51279574Y-39647452D01*
X51230264Y-39766498D01*
X51230261Y-39766510D01*
X51199500Y-39921153D01*
X51199500Y-40078846D01*
X51230261Y-40233489D01*
X51230264Y-40233501D01*
X51290602Y-40379172D01*
X51290609Y-40379185D01*
X51378210Y-40510288D01*
X51378213Y-40510292D01*
X51489707Y-40621786D01*
X51489711Y-40621789D01*
X51620814Y-40709390D01*
X51620827Y-40709397D01*
X51717646Y-40749500D01*
X51766503Y-40769737D01*
X51905533Y-40797392D01*
X51921153Y-40800499D01*
X51921156Y-40800500D01*
X51921158Y-40800500D01*
X52078844Y-40800500D01*
X52078845Y-40800499D01*
X52233497Y-40769737D01*
X52379179Y-40709394D01*
X52510289Y-40621789D01*
X52621789Y-40510289D01*
X52709394Y-40379179D01*
X52769737Y-40233497D01*
X52800500Y-40078842D01*
X52800500Y-39921158D01*
X52800500Y-39921155D01*
X52800499Y-39921153D01*
X52782204Y-39829179D01*
X52769737Y-39766503D01*
X52757536Y-39737047D01*
X52720425Y-39647452D01*
X52717683Y-39621955D01*
X52711018Y-39597197D01*
X52713668Y-39584614D01*
X52712956Y-39577983D01*
X52716829Y-39562384D01*
X52718417Y-39557393D01*
X52769737Y-39433497D01*
X52782138Y-39371153D01*
X56299500Y-39371153D01*
X56299500Y-39528846D01*
X56330261Y-39683489D01*
X56330264Y-39683501D01*
X56390602Y-39829172D01*
X56390609Y-39829185D01*
X56478210Y-39960288D01*
X56478213Y-39960292D01*
X56589707Y-40071786D01*
X56589711Y-40071789D01*
X56720814Y-40159390D01*
X56720827Y-40159397D01*
X56866498Y-40219735D01*
X56866503Y-40219737D01*
X57021153Y-40250499D01*
X57021156Y-40250500D01*
X57021158Y-40250500D01*
X57178844Y-40250500D01*
X57178845Y-40250499D01*
X57333497Y-40219737D01*
X57464880Y-40165317D01*
X57479172Y-40159397D01*
X57479172Y-40159396D01*
X57479179Y-40159394D01*
X57610289Y-40071789D01*
X57721789Y-39960289D01*
X57809394Y-39829179D01*
X57869737Y-39683497D01*
X57900500Y-39528842D01*
X57900500Y-39371158D01*
X57900500Y-39371155D01*
X57900499Y-39371153D01*
X57869738Y-39216510D01*
X57869737Y-39216503D01*
X57869735Y-39216498D01*
X57809397Y-39070827D01*
X57809390Y-39070814D01*
X57721789Y-38939711D01*
X57721786Y-38939707D01*
X57610292Y-38828213D01*
X57610288Y-38828210D01*
X57479185Y-38740609D01*
X57479172Y-38740602D01*
X57333501Y-38680264D01*
X57333489Y-38680261D01*
X57178845Y-38649500D01*
X57178842Y-38649500D01*
X57021158Y-38649500D01*
X57021155Y-38649500D01*
X56866510Y-38680261D01*
X56866498Y-38680264D01*
X56720827Y-38740602D01*
X56720814Y-38740609D01*
X56589711Y-38828210D01*
X56589707Y-38828213D01*
X56478213Y-38939707D01*
X56478210Y-38939711D01*
X56390609Y-39070814D01*
X56390602Y-39070827D01*
X56330264Y-39216498D01*
X56330261Y-39216510D01*
X56299500Y-39371153D01*
X52782138Y-39371153D01*
X52790130Y-39330974D01*
X52800500Y-39278844D01*
X52800500Y-39121155D01*
X52800499Y-39121153D01*
X52785847Y-39047495D01*
X52769737Y-38966503D01*
X52769735Y-38966498D01*
X52709397Y-38820827D01*
X52709390Y-38820814D01*
X52621789Y-38689711D01*
X52621786Y-38689707D01*
X52510292Y-38578213D01*
X52510288Y-38578210D01*
X52379185Y-38490609D01*
X52379172Y-38490602D01*
X52233501Y-38430264D01*
X52233489Y-38430261D01*
X52078845Y-38399500D01*
X52078842Y-38399500D01*
X51921158Y-38399500D01*
X51921155Y-38399500D01*
X51766510Y-38430261D01*
X51766498Y-38430264D01*
X51620827Y-38490602D01*
X51620814Y-38490609D01*
X51489711Y-38578210D01*
X51489707Y-38578213D01*
X51378213Y-38689707D01*
X51378210Y-38689711D01*
X51290609Y-38820814D01*
X51290602Y-38820827D01*
X51230264Y-38966498D01*
X51230261Y-38966510D01*
X51199500Y-39121153D01*
X46031760Y-39121153D01*
X45907363Y-38996756D01*
X45907358Y-38996752D01*
X45767745Y-38895318D01*
X45725079Y-38839989D01*
X45719100Y-38770375D01*
X45751705Y-38708580D01*
X45767745Y-38694682D01*
X45907358Y-38593247D01*
X45907356Y-38593247D01*
X45907365Y-38593242D01*
X46063242Y-38437365D01*
X46192815Y-38259022D01*
X46292895Y-38062606D01*
X46361015Y-37852951D01*
X46395500Y-37635222D01*
X46395500Y-37414778D01*
X46361015Y-37197049D01*
X46326955Y-37092221D01*
X46292896Y-36987396D01*
X46292895Y-36987393D01*
X46258237Y-36919375D01*
X46192815Y-36790978D01*
X46134500Y-36710714D01*
X46063247Y-36612641D01*
X46063243Y-36612636D01*
X45907363Y-36456756D01*
X45907358Y-36456752D01*
X45729025Y-36327187D01*
X45729024Y-36327186D01*
X45729022Y-36327185D01*
X45654536Y-36289232D01*
X45532606Y-36227104D01*
X45532603Y-36227103D01*
X45322952Y-36158985D01*
X45214086Y-36141742D01*
X45105222Y-36124500D01*
X44884778Y-36124500D01*
X44812201Y-36135995D01*
X44667047Y-36158985D01*
X44457396Y-36227103D01*
X44457393Y-36227104D01*
X44260974Y-36327187D01*
X44082641Y-36456752D01*
X44082636Y-36456756D01*
X44067180Y-36472213D01*
X44005857Y-36505698D01*
X43936165Y-36500714D01*
X43880232Y-36458842D01*
X43855815Y-36393378D01*
X43855499Y-36384532D01*
X43855499Y-35921153D01*
X46299500Y-35921153D01*
X46299500Y-36078846D01*
X46330261Y-36233489D01*
X46330264Y-36233501D01*
X46390602Y-36379172D01*
X46390609Y-36379185D01*
X46478210Y-36510288D01*
X46478213Y-36510292D01*
X46589707Y-36621786D01*
X46589711Y-36621789D01*
X46720814Y-36709390D01*
X46720827Y-36709397D01*
X46854526Y-36764776D01*
X46866503Y-36769737D01*
X46987038Y-36793713D01*
X47021153Y-36800499D01*
X47021156Y-36800500D01*
X47021158Y-36800500D01*
X47178844Y-36800500D01*
X47178845Y-36800499D01*
X47333497Y-36769737D01*
X47451592Y-36720821D01*
X47479172Y-36709397D01*
X47479172Y-36709396D01*
X47479179Y-36709394D01*
X47610289Y-36621789D01*
X47721789Y-36510289D01*
X47809394Y-36379179D01*
X47869737Y-36233497D01*
X47878383Y-36190033D01*
X47910768Y-36128122D01*
X47971483Y-36093548D01*
X48041253Y-36097287D01*
X48097925Y-36138154D01*
X48121617Y-36190033D01*
X48130261Y-36233489D01*
X48130264Y-36233501D01*
X48190602Y-36379172D01*
X48190609Y-36379185D01*
X48278210Y-36510288D01*
X48278213Y-36510292D01*
X48389707Y-36621786D01*
X48389711Y-36621789D01*
X48520814Y-36709390D01*
X48520827Y-36709397D01*
X48654526Y-36764776D01*
X48666503Y-36769737D01*
X48787038Y-36793713D01*
X48821153Y-36800499D01*
X48821156Y-36800500D01*
X48821158Y-36800500D01*
X48978844Y-36800500D01*
X48978845Y-36800499D01*
X49133497Y-36769737D01*
X49251592Y-36720821D01*
X49279172Y-36709397D01*
X49279172Y-36709396D01*
X49279179Y-36709394D01*
X49410289Y-36621789D01*
X49521789Y-36510289D01*
X49609394Y-36379179D01*
X49669737Y-36233497D01*
X49700500Y-36078842D01*
X49700500Y-35921158D01*
X49700500Y-35921155D01*
X49700499Y-35921153D01*
X49691500Y-35875913D01*
X49669737Y-35766503D01*
X49660809Y-35744949D01*
X49609397Y-35620827D01*
X49609390Y-35620814D01*
X49521789Y-35489711D01*
X49521786Y-35489707D01*
X49410292Y-35378213D01*
X49410288Y-35378210D01*
X49320429Y-35318168D01*
X49279185Y-35290609D01*
X49279172Y-35290602D01*
X49133501Y-35230264D01*
X49133489Y-35230261D01*
X49087701Y-35221153D01*
X53599500Y-35221153D01*
X53599500Y-35378846D01*
X53630261Y-35533489D01*
X53630264Y-35533501D01*
X53690602Y-35679172D01*
X53690609Y-35679185D01*
X53778210Y-35810288D01*
X53778213Y-35810292D01*
X53889707Y-35921786D01*
X53889711Y-35921789D01*
X54020814Y-36009390D01*
X54020827Y-36009397D01*
X54080230Y-36034002D01*
X54166503Y-36069737D01*
X54166507Y-36069737D01*
X54166508Y-36069738D01*
X54209967Y-36078383D01*
X54271878Y-36110768D01*
X54306452Y-36171484D01*
X54302712Y-36241253D01*
X54261845Y-36297925D01*
X54209967Y-36321617D01*
X54166508Y-36330261D01*
X54166498Y-36330264D01*
X54020827Y-36390602D01*
X54020814Y-36390609D01*
X53889711Y-36478210D01*
X53889707Y-36478213D01*
X53778213Y-36589707D01*
X53778210Y-36589711D01*
X53690609Y-36720814D01*
X53690602Y-36720827D01*
X53630264Y-36866498D01*
X53630261Y-36866510D01*
X53599500Y-37021153D01*
X53599500Y-37178846D01*
X53630261Y-37333489D01*
X53630264Y-37333501D01*
X53690602Y-37479172D01*
X53690609Y-37479185D01*
X53778210Y-37610288D01*
X53778213Y-37610292D01*
X53889707Y-37721786D01*
X53889711Y-37721789D01*
X54020814Y-37809390D01*
X54020827Y-37809397D01*
X54125980Y-37852952D01*
X54166503Y-37869737D01*
X54285168Y-37893341D01*
X54321153Y-37900499D01*
X54321156Y-37900500D01*
X54321158Y-37900500D01*
X54478844Y-37900500D01*
X54478845Y-37900499D01*
X54633497Y-37869737D01*
X54779179Y-37809394D01*
X54910289Y-37721789D01*
X55021789Y-37610289D01*
X55096898Y-37497881D01*
X55150510Y-37453076D01*
X55219835Y-37444369D01*
X55282863Y-37474523D01*
X55303102Y-37497881D01*
X55378210Y-37610288D01*
X55378213Y-37610292D01*
X55489707Y-37721786D01*
X55489711Y-37721789D01*
X55620814Y-37809390D01*
X55620827Y-37809397D01*
X55725980Y-37852952D01*
X55766503Y-37869737D01*
X55885168Y-37893341D01*
X55921153Y-37900499D01*
X55921156Y-37900500D01*
X55921158Y-37900500D01*
X56078844Y-37900500D01*
X56078845Y-37900499D01*
X56233497Y-37869737D01*
X56379179Y-37809394D01*
X56510289Y-37721789D01*
X56621789Y-37610289D01*
X56709394Y-37479179D01*
X56769737Y-37333497D01*
X56800500Y-37178842D01*
X56800500Y-37021158D01*
X56800500Y-37021155D01*
X56800499Y-37021153D01*
X56769738Y-36866510D01*
X56769737Y-36866503D01*
X56742398Y-36800500D01*
X56709397Y-36720827D01*
X56709390Y-36720814D01*
X56621789Y-36589711D01*
X56621786Y-36589707D01*
X56510292Y-36478213D01*
X56510288Y-36478210D01*
X56379185Y-36390609D01*
X56379172Y-36390602D01*
X56233501Y-36330264D01*
X56233489Y-36330261D01*
X56078845Y-36299500D01*
X56078842Y-36299500D01*
X55921158Y-36299500D01*
X55921155Y-36299500D01*
X55766510Y-36330261D01*
X55766498Y-36330264D01*
X55620827Y-36390602D01*
X55620814Y-36390609D01*
X55489711Y-36478210D01*
X55489707Y-36478213D01*
X55378213Y-36589707D01*
X55378210Y-36589711D01*
X55303102Y-36702118D01*
X55249490Y-36746923D01*
X55180165Y-36755630D01*
X55117137Y-36725475D01*
X55096898Y-36702118D01*
X55021789Y-36589711D01*
X55021786Y-36589707D01*
X54910292Y-36478213D01*
X54910288Y-36478210D01*
X54779185Y-36390609D01*
X54779172Y-36390602D01*
X54633501Y-36330264D01*
X54633489Y-36330261D01*
X54590033Y-36321617D01*
X54528122Y-36289232D01*
X54493548Y-36228517D01*
X54497287Y-36158747D01*
X54538154Y-36102075D01*
X54590033Y-36078383D01*
X54607940Y-36074820D01*
X54633497Y-36069737D01*
X54753069Y-36020209D01*
X54779172Y-36009397D01*
X54779172Y-36009396D01*
X54779179Y-36009394D01*
X54910289Y-35921789D01*
X55021789Y-35810289D01*
X55109394Y-35679179D01*
X55169737Y-35533497D01*
X55200500Y-35378842D01*
X55200500Y-35221158D01*
X55200500Y-35221155D01*
X55200499Y-35221153D01*
X55191865Y-35177748D01*
X55169737Y-35066503D01*
X55141136Y-34997454D01*
X55109397Y-34920827D01*
X55109390Y-34920814D01*
X55021789Y-34789711D01*
X55021786Y-34789707D01*
X54910292Y-34678213D01*
X54910288Y-34678210D01*
X54779185Y-34590609D01*
X54779172Y-34590602D01*
X54633501Y-34530264D01*
X54633489Y-34530261D01*
X54478845Y-34499500D01*
X54478842Y-34499500D01*
X54321158Y-34499500D01*
X54321155Y-34499500D01*
X54166510Y-34530261D01*
X54166498Y-34530264D01*
X54020827Y-34590602D01*
X54020814Y-34590609D01*
X53889711Y-34678210D01*
X53889707Y-34678213D01*
X53778213Y-34789707D01*
X53778210Y-34789711D01*
X53690609Y-34920814D01*
X53690602Y-34920827D01*
X53630264Y-35066498D01*
X53630261Y-35066510D01*
X53599500Y-35221153D01*
X49087701Y-35221153D01*
X48978845Y-35199500D01*
X48978842Y-35199500D01*
X48821158Y-35199500D01*
X48821155Y-35199500D01*
X48666510Y-35230261D01*
X48666498Y-35230264D01*
X48520827Y-35290602D01*
X48520814Y-35290609D01*
X48389711Y-35378210D01*
X48389707Y-35378213D01*
X48278213Y-35489707D01*
X48278210Y-35489711D01*
X48190609Y-35620814D01*
X48190602Y-35620827D01*
X48130264Y-35766498D01*
X48130261Y-35766508D01*
X48121617Y-35809967D01*
X48089232Y-35871878D01*
X48028516Y-35906452D01*
X47958747Y-35902712D01*
X47902075Y-35861845D01*
X47878383Y-35809967D01*
X47869738Y-35766508D01*
X47869737Y-35766507D01*
X47869737Y-35766503D01*
X47860809Y-35744949D01*
X47809397Y-35620827D01*
X47809390Y-35620814D01*
X47721789Y-35489711D01*
X47721786Y-35489707D01*
X47610292Y-35378213D01*
X47610288Y-35378210D01*
X47479185Y-35290609D01*
X47479172Y-35290602D01*
X47333501Y-35230264D01*
X47333489Y-35230261D01*
X47178845Y-35199500D01*
X47178842Y-35199500D01*
X47021158Y-35199500D01*
X47021155Y-35199500D01*
X46866510Y-35230261D01*
X46866498Y-35230264D01*
X46720827Y-35290602D01*
X46720814Y-35290609D01*
X46589711Y-35378210D01*
X46589707Y-35378213D01*
X46478213Y-35489707D01*
X46478210Y-35489711D01*
X46390609Y-35620814D01*
X46390602Y-35620827D01*
X46330264Y-35766498D01*
X46330261Y-35766510D01*
X46299500Y-35921153D01*
X43855499Y-35921153D01*
X43855499Y-35307129D01*
X43855498Y-35307123D01*
X43855497Y-35307116D01*
X43849091Y-35247517D01*
X43846168Y-35239681D01*
X43798797Y-35112671D01*
X43798793Y-35112664D01*
X43712547Y-34997455D01*
X43712544Y-34997452D01*
X43597335Y-34911206D01*
X43597328Y-34911202D01*
X43462482Y-34860908D01*
X43462483Y-34860908D01*
X43402883Y-34854501D01*
X43402881Y-34854500D01*
X43402873Y-34854500D01*
X43402864Y-34854500D01*
X41507129Y-34854500D01*
X41507123Y-34854501D01*
X41447516Y-34860908D01*
X41312671Y-34911202D01*
X41312664Y-34911206D01*
X41197455Y-34997452D01*
X41197452Y-34997455D01*
X41111206Y-35112664D01*
X41111202Y-35112671D01*
X41060908Y-35247517D01*
X41054501Y-35307116D01*
X41054501Y-35307123D01*
X41054500Y-35307135D01*
X37954273Y-35307135D01*
X37980500Y-35107926D01*
X37980500Y-34862072D01*
X37948409Y-34618322D01*
X37884778Y-34380846D01*
X37790694Y-34153707D01*
X37667767Y-33940791D01*
X37518101Y-33745743D01*
X37518096Y-33745737D01*
X37344261Y-33571902D01*
X37344254Y-33571896D01*
X37268085Y-33513450D01*
X37149208Y-33422232D01*
X37147339Y-33421153D01*
X50399500Y-33421153D01*
X50399500Y-33578846D01*
X50430261Y-33733489D01*
X50430264Y-33733501D01*
X50490602Y-33879172D01*
X50490609Y-33879185D01*
X50578210Y-34010288D01*
X50578213Y-34010292D01*
X50689707Y-34121786D01*
X50689711Y-34121789D01*
X50820814Y-34209390D01*
X50820827Y-34209397D01*
X50927817Y-34253713D01*
X50966503Y-34269737D01*
X51121153Y-34300499D01*
X51121156Y-34300500D01*
X51121158Y-34300500D01*
X51278844Y-34300500D01*
X51278845Y-34300499D01*
X51433497Y-34269737D01*
X51579179Y-34209394D01*
X51710289Y-34121789D01*
X51821789Y-34010289D01*
X51909394Y-33879179D01*
X51969737Y-33733497D01*
X52000500Y-33578842D01*
X52000500Y-33421158D01*
X52000500Y-33421155D01*
X52000499Y-33421153D01*
X51982347Y-33329896D01*
X51969737Y-33266503D01*
X51944355Y-33205224D01*
X51909397Y-33120827D01*
X51909390Y-33120814D01*
X51821789Y-32989711D01*
X51821786Y-32989707D01*
X51710292Y-32878213D01*
X51710288Y-32878210D01*
X51579185Y-32790609D01*
X51579172Y-32790602D01*
X51433501Y-32730264D01*
X51433489Y-32730261D01*
X51278845Y-32699500D01*
X51278842Y-32699500D01*
X51121158Y-32699500D01*
X51121155Y-32699500D01*
X50966510Y-32730261D01*
X50966498Y-32730264D01*
X50820827Y-32790602D01*
X50820814Y-32790609D01*
X50689711Y-32878210D01*
X50689707Y-32878213D01*
X50578213Y-32989707D01*
X50578210Y-32989711D01*
X50490609Y-33120814D01*
X50490602Y-33120827D01*
X50430264Y-33266498D01*
X50430261Y-33266510D01*
X50399500Y-33421153D01*
X37147339Y-33421153D01*
X36936292Y-33299305D01*
X36936285Y-33299302D01*
X36709162Y-33205224D01*
X36709155Y-33205222D01*
X36709153Y-33205221D01*
X36471677Y-33141590D01*
X36430939Y-33136226D01*
X36227934Y-33109499D01*
X36227927Y-33109499D01*
X35982073Y-33109499D01*
X35982065Y-33109499D01*
X35750059Y-33140044D01*
X35738323Y-33141590D01*
X35518537Y-33200481D01*
X35500847Y-33205221D01*
X35500837Y-33205224D01*
X35273714Y-33299302D01*
X35273705Y-33299306D01*
X35093230Y-33403504D01*
X35062658Y-33421155D01*
X35060787Y-33422235D01*
X34865745Y-33571896D01*
X34865738Y-33571902D01*
X34691903Y-33745737D01*
X34691897Y-33745744D01*
X34542236Y-33940786D01*
X34419307Y-34153704D01*
X34419303Y-34153713D01*
X34325225Y-34380836D01*
X34325222Y-34380846D01*
X34269018Y-34590606D01*
X34261592Y-34618319D01*
X34261590Y-34618330D01*
X34229500Y-34862064D01*
X33324252Y-34862064D01*
X33328343Y-34856433D01*
X33329328Y-34854500D01*
X33356223Y-34801717D01*
X33435566Y-34645996D01*
X33435566Y-34645995D01*
X33435568Y-34645992D01*
X33508553Y-34421368D01*
X33514973Y-34380836D01*
X33545500Y-34188097D01*
X33545500Y-33951902D01*
X33508553Y-33718631D01*
X33460875Y-33571896D01*
X33435568Y-33494008D01*
X33435566Y-33494005D01*
X33435566Y-33494003D01*
X33351949Y-33329896D01*
X33328343Y-33283567D01*
X33189517Y-33092490D01*
X33022510Y-32925483D01*
X32831433Y-32786657D01*
X32802247Y-32771786D01*
X32620996Y-32679433D01*
X32396368Y-32606446D01*
X32163097Y-32569500D01*
X32163092Y-32569500D01*
X31926908Y-32569500D01*
X31926903Y-32569500D01*
X31693631Y-32606446D01*
X31469003Y-32679433D01*
X31258566Y-32786657D01*
X31171241Y-32850103D01*
X31067490Y-32925483D01*
X31067488Y-32925485D01*
X31067487Y-32925485D01*
X30900485Y-33092487D01*
X30900485Y-33092488D01*
X30900483Y-33092490D01*
X30879895Y-33120827D01*
X30761655Y-33283568D01*
X30734984Y-33335914D01*
X30687010Y-33386709D01*
X30619189Y-33403504D01*
X30553054Y-33380966D01*
X30509603Y-33326251D01*
X30500500Y-33279618D01*
X30500500Y-32071153D01*
X60755750Y-32071153D01*
X60755750Y-32228846D01*
X60786511Y-32383489D01*
X60786514Y-32383501D01*
X60846852Y-32529172D01*
X60846859Y-32529185D01*
X60934460Y-32660288D01*
X60934463Y-32660292D01*
X61045957Y-32771786D01*
X61045961Y-32771789D01*
X61177064Y-32859390D01*
X61177077Y-32859397D01*
X61222504Y-32878213D01*
X61322753Y-32919737D01*
X61477403Y-32950499D01*
X61477406Y-32950500D01*
X61477408Y-32950500D01*
X61635094Y-32950500D01*
X61635095Y-32950499D01*
X61782628Y-32921153D01*
X65455750Y-32921153D01*
X65455750Y-33078846D01*
X65486511Y-33233489D01*
X65486514Y-33233501D01*
X65546852Y-33379172D01*
X65546859Y-33379185D01*
X65634460Y-33510288D01*
X65634463Y-33510292D01*
X65745957Y-33621786D01*
X65745961Y-33621789D01*
X65877064Y-33709390D01*
X65877077Y-33709397D01*
X65964828Y-33745744D01*
X66022753Y-33769737D01*
X66177403Y-33800499D01*
X66177406Y-33800500D01*
X66177408Y-33800500D01*
X66335094Y-33800500D01*
X66335095Y-33800499D01*
X66489747Y-33769737D01*
X66635429Y-33709394D01*
X66766539Y-33621789D01*
X66878039Y-33510289D01*
X66965644Y-33379179D01*
X67025987Y-33233497D01*
X67056750Y-33078842D01*
X67056750Y-32921158D01*
X67056750Y-32921155D01*
X67039512Y-32834498D01*
X67045739Y-32764907D01*
X67088601Y-32709729D01*
X67154491Y-32686484D01*
X67208579Y-32695744D01*
X67266503Y-32719737D01*
X67421153Y-32750499D01*
X67421156Y-32750500D01*
X67421158Y-32750500D01*
X67578844Y-32750500D01*
X67578845Y-32750499D01*
X67733497Y-32719737D01*
X67879179Y-32659394D01*
X68010289Y-32571789D01*
X68121789Y-32460289D01*
X68209394Y-32329179D01*
X68269737Y-32183497D01*
X68300500Y-32028842D01*
X68300500Y-31871158D01*
X68300500Y-31871155D01*
X68300499Y-31871153D01*
X68699500Y-31871153D01*
X68699500Y-32028846D01*
X68730261Y-32183489D01*
X68730264Y-32183501D01*
X68790602Y-32329172D01*
X68790609Y-32329185D01*
X68878210Y-32460288D01*
X68878213Y-32460292D01*
X68989707Y-32571786D01*
X68989711Y-32571789D01*
X69120814Y-32659390D01*
X69120827Y-32659397D01*
X69242341Y-32709729D01*
X69266503Y-32719737D01*
X69421153Y-32750499D01*
X69421156Y-32750500D01*
X69421158Y-32750500D01*
X69578844Y-32750500D01*
X69578845Y-32750499D01*
X69733497Y-32719737D01*
X69879179Y-32659394D01*
X70010289Y-32571789D01*
X70121789Y-32460289D01*
X70209394Y-32329179D01*
X70269737Y-32183497D01*
X70300500Y-32028842D01*
X70300500Y-31871158D01*
X70300500Y-31871155D01*
X70300499Y-31871153D01*
X70280543Y-31770827D01*
X70269737Y-31716503D01*
X70237929Y-31639711D01*
X70209397Y-31570827D01*
X70209390Y-31570814D01*
X70121789Y-31439711D01*
X70121786Y-31439707D01*
X70010292Y-31328213D01*
X70010288Y-31328210D01*
X69879185Y-31240609D01*
X69879172Y-31240602D01*
X69733501Y-31180264D01*
X69733489Y-31180261D01*
X69578845Y-31149500D01*
X69578842Y-31149500D01*
X69421158Y-31149500D01*
X69421155Y-31149500D01*
X69266510Y-31180261D01*
X69266498Y-31180264D01*
X69120827Y-31240602D01*
X69120814Y-31240609D01*
X68989711Y-31328210D01*
X68989707Y-31328213D01*
X68878213Y-31439707D01*
X68878210Y-31439711D01*
X68790609Y-31570814D01*
X68790602Y-31570827D01*
X68730264Y-31716498D01*
X68730261Y-31716510D01*
X68699500Y-31871153D01*
X68300499Y-31871153D01*
X68280543Y-31770827D01*
X68269737Y-31716503D01*
X68237929Y-31639711D01*
X68209397Y-31570827D01*
X68209390Y-31570814D01*
X68121789Y-31439711D01*
X68121786Y-31439707D01*
X68010292Y-31328213D01*
X68010288Y-31328210D01*
X67879185Y-31240609D01*
X67879172Y-31240602D01*
X67733501Y-31180264D01*
X67733489Y-31180261D01*
X67578845Y-31149500D01*
X67578842Y-31149500D01*
X67421158Y-31149500D01*
X67421155Y-31149500D01*
X67266510Y-31180261D01*
X67266498Y-31180264D01*
X67120827Y-31240602D01*
X67120814Y-31240609D01*
X66989711Y-31328210D01*
X66989707Y-31328213D01*
X66878213Y-31439707D01*
X66878210Y-31439711D01*
X66790609Y-31570814D01*
X66790602Y-31570827D01*
X66730264Y-31716498D01*
X66730261Y-31716510D01*
X66699500Y-31871153D01*
X66699500Y-32028846D01*
X66716737Y-32115502D01*
X66710510Y-32185093D01*
X66667647Y-32240271D01*
X66601757Y-32263515D01*
X66547668Y-32254254D01*
X66489751Y-32230264D01*
X66489739Y-32230261D01*
X66335095Y-32199500D01*
X66335092Y-32199500D01*
X66177408Y-32199500D01*
X66177405Y-32199500D01*
X66022760Y-32230261D01*
X66022748Y-32230264D01*
X65877077Y-32290602D01*
X65877064Y-32290609D01*
X65745961Y-32378210D01*
X65745957Y-32378213D01*
X65634463Y-32489707D01*
X65634460Y-32489711D01*
X65546859Y-32620814D01*
X65546852Y-32620827D01*
X65486514Y-32766498D01*
X65486511Y-32766510D01*
X65455750Y-32921153D01*
X61782628Y-32921153D01*
X61789747Y-32919737D01*
X61935429Y-32859394D01*
X61935435Y-32859390D01*
X62006414Y-32811964D01*
X62044287Y-32786657D01*
X62066539Y-32771789D01*
X62178039Y-32660289D01*
X62265644Y-32529179D01*
X62325987Y-32383497D01*
X62356750Y-32228842D01*
X62356750Y-32071158D01*
X62356750Y-32071155D01*
X62356749Y-32071153D01*
X62325987Y-31916503D01*
X62307205Y-31871158D01*
X62265647Y-31770827D01*
X62265640Y-31770814D01*
X62178039Y-31639711D01*
X62178036Y-31639707D01*
X62066542Y-31528213D01*
X62066538Y-31528210D01*
X61935435Y-31440609D01*
X61935422Y-31440602D01*
X61789751Y-31380264D01*
X61789739Y-31380261D01*
X61635095Y-31349500D01*
X61635092Y-31349500D01*
X61477408Y-31349500D01*
X61477405Y-31349500D01*
X61322760Y-31380261D01*
X61322748Y-31380264D01*
X61177077Y-31440602D01*
X61177064Y-31440609D01*
X61045961Y-31528210D01*
X61045957Y-31528213D01*
X60934463Y-31639707D01*
X60934460Y-31639711D01*
X60846859Y-31770814D01*
X60846852Y-31770827D01*
X60786514Y-31916498D01*
X60786511Y-31916510D01*
X60755750Y-32071153D01*
X30500500Y-32071153D01*
X30500500Y-30624500D01*
X30520185Y-30557461D01*
X30572989Y-30511706D01*
X30624500Y-30500500D01*
X77336893Y-30500500D01*
X77403932Y-30520185D01*
G37*
%TD.AperFunction*%
%TD*%
M02*
