%TF.GenerationSoftware,KiCad,Pcbnew,10.0.4*%
%TF.CreationDate,2026-09-25T15:00:12-07:00*%
%TF.ProjectId,Ethernet,45746865-726e-4657-942e-6b696361645f,rev?*%
%TF.SameCoordinates,Original*%
%TF.FileFunction,Copper,L3,Inr*%
%TF.FilePolarity,Positive*%
%FSLAX46Y46*%
G04 Gerber Fmt 4.6, Leading zero omitted, Abs format (unit mm)*
G04 Created by KiCad (PCBNEW 10.0.4) date 2026-09-25 15:00:12*
%MOMM*%
%LPD*%
G01*
G04 APERTURE LIST*
%TA.AperFunction,ComponentPad*%
%ADD10R,1.800000X1.800000*%
%TD*%
%TA.AperFunction,ComponentPad*%
%ADD11C,1.800000*%
%TD*%
%TA.AperFunction,ComponentPad*%
%ADD12C,2.000000*%
%TD*%
%TA.AperFunction,ComponentPad*%
%ADD13C,3.000000*%
%TD*%
%TA.AperFunction,ComponentPad*%
%ADD14R,1.700000X1.700000*%
%TD*%
%TA.AperFunction,ComponentPad*%
%ADD15C,1.700000*%
%TD*%
%TA.AperFunction,ViaPad*%
%ADD16C,0.600000*%
%TD*%
%TA.AperFunction,Conductor*%
%ADD17C,0.500000*%
%TD*%
G04 APERTURE END LIST*
D10*
%TO.N,/RJ45/TXP*%
%TO.C,J1*%
X42455000Y-36255000D03*
D11*
%TO.N,/RJ45/TXN*%
X44995000Y-37525000D03*
%TO.N,Net-(J1-RD+)*%
X42455000Y-38795000D03*
%TO.N,Net-(J1-TCT)*%
X44995000Y-40065000D03*
%TO.N,Net-(J1-RCT)*%
X42455000Y-41334999D03*
%TO.N,Net-(J1-RD-)*%
X44995000Y-42605000D03*
%TO.N,unconnected-(J1-NC-Pad7)*%
X42455000Y-43875000D03*
%TO.N,GND*%
X44995000Y-45145000D03*
D12*
%TO.N,+3.3V*%
X32045000Y-34070000D03*
%TO.N,Net-(J1-Pad10)*%
X32045000Y-36609999D03*
%TO.N,+3.3V*%
X32045000Y-44790000D03*
%TO.N,Net-(J1-Pad12)*%
X32045000Y-47330000D03*
D13*
%TO.N,GND*%
X39155000Y-32955000D03*
X39155000Y-48445000D03*
%TD*%
D14*
%TO.N,GND*%
%TO.C,J2*%
X78200000Y-49600000D03*
D15*
%TO.N,+3.3V*%
X78200000Y-47060000D03*
%TO.N,/Connector/~{SCS}*%
X78200000Y-44520001D03*
%TO.N,/Connector/SCLK*%
X78200000Y-41980000D03*
%TO.N,/Connector/MISO*%
X78200000Y-39440000D03*
%TO.N,/Connector/MOSI*%
X78200000Y-36900000D03*
%TO.N,/Connector/~{INT}*%
X78200000Y-34360000D03*
%TO.N,/Connector/~{RST}*%
X78200000Y-31819999D03*
%TD*%
D16*
%TO.N,+3.3V*%
X66256250Y-33000000D03*
X65600000Y-42100000D03*
%TO.N,GND*%
X61000000Y-48475000D03*
X60000000Y-39700000D03*
X59000000Y-41700000D03*
X73050000Y-49775000D03*
X61000000Y-40700000D03*
X58700000Y-32900000D03*
X61000000Y-39700000D03*
X69400000Y-43400000D03*
X56000000Y-49400000D03*
X61000000Y-41700000D03*
X59000000Y-39700000D03*
X67650000Y-48150000D03*
X52000000Y-43700000D03*
X57900000Y-49300000D03*
X60000000Y-41700000D03*
X60000000Y-40700000D03*
X59000000Y-40700000D03*
X47000000Y-34400000D03*
%TO.N,+3.3VA*%
X47100000Y-36000000D03*
X61556250Y-32150000D03*
X59250000Y-43450000D03*
X58150000Y-43450000D03*
X57050000Y-43100000D03*
X57100000Y-39450000D03*
X61200000Y-43450000D03*
X57100000Y-41550000D03*
X51200000Y-33500000D03*
%TO.N,Net-(J1-RCT)*%
X54400000Y-35300000D03*
%TO.N,/RJ45/RXN*%
X54400000Y-37100000D03*
X52000000Y-39200000D03*
%TO.N,Net-(J1-TCT)*%
X48900000Y-36000000D03*
%TO.N,/RJ45/RXP*%
X56000000Y-37100000D03*
X52000000Y-40000000D03*
%TO.N,/W5500/SPDLED*%
X67500000Y-31950000D03*
X63500000Y-45800000D03*
%TO.N,/W5500/DUPLED*%
X62850000Y-43000000D03*
X69500000Y-31950000D03*
%TO.N,/RJ45/ACTLED*%
X65400000Y-46000000D03*
X55800000Y-48400000D03*
%TD*%
%TO.N,+3.3VA*%
D17*
X57100000Y-41550000D02*
X57100000Y-43050000D01*
X59250000Y-43450000D02*
X61200000Y-43450000D01*
X51200000Y-33500000D02*
X51200000Y-34819239D01*
X57800000Y-43100000D02*
X58150000Y-43450000D01*
X58150000Y-43450000D02*
X59250000Y-43450000D01*
X57100000Y-43050000D02*
X57050000Y-43100000D01*
X55830761Y-39450000D02*
X57100000Y-39450000D01*
X51200000Y-34819239D02*
X55830761Y-39450000D01*
X57100000Y-39450000D02*
X57100000Y-41550000D01*
X57050000Y-43100000D02*
X57800000Y-43100000D01*
%TD*%
%TA.AperFunction,Conductor*%
%TO.N,+3.3V*%
G36*
X79442539Y-30520185D02*
G01*
X79488294Y-30572989D01*
X79499500Y-30624500D01*
X79499500Y-50775500D01*
X79479815Y-50842539D01*
X79427011Y-50888294D01*
X79375500Y-50899500D01*
X30624500Y-50899500D01*
X30557461Y-50879815D01*
X30511706Y-50827011D01*
X30500500Y-50775500D01*
X30500500Y-47243389D01*
X30944500Y-47243389D01*
X30944500Y-47416611D01*
X30971598Y-47587701D01*
X31025127Y-47752445D01*
X31103768Y-47906788D01*
X31205586Y-48046928D01*
X31328072Y-48169414D01*
X31468212Y-48271232D01*
X31622555Y-48349873D01*
X31787299Y-48403402D01*
X31958389Y-48430500D01*
X31958390Y-48430500D01*
X32131610Y-48430500D01*
X32131611Y-48430500D01*
X32302701Y-48403402D01*
X32467445Y-48349873D01*
X32621788Y-48271232D01*
X32761928Y-48169414D01*
X32884414Y-48046928D01*
X32986232Y-47906788D01*
X33064873Y-47752445D01*
X33118402Y-47587701D01*
X33145500Y-47416611D01*
X33145500Y-47243389D01*
X33118402Y-47072299D01*
X33064873Y-46907555D01*
X32986232Y-46753212D01*
X32884414Y-46613072D01*
X32761928Y-46490586D01*
X32637936Y-46400500D01*
X32621789Y-46388768D01*
X32467447Y-46310128D01*
X32467446Y-46310127D01*
X32467445Y-46310127D01*
X32411856Y-46292065D01*
X34229500Y-46292065D01*
X34229500Y-46537934D01*
X34239393Y-46613072D01*
X34261591Y-46781677D01*
X34309844Y-46961760D01*
X34325222Y-47019152D01*
X34325225Y-47019162D01*
X34419303Y-47246285D01*
X34419306Y-47246292D01*
X34542233Y-47459208D01*
X34542235Y-47459211D01*
X34542236Y-47459212D01*
X34691897Y-47654254D01*
X34691903Y-47654261D01*
X34865738Y-47828096D01*
X34865745Y-47828102D01*
X34964768Y-47904085D01*
X35060792Y-47977767D01*
X35273708Y-48100694D01*
X35500847Y-48194778D01*
X35738323Y-48258409D01*
X35982073Y-48290500D01*
X35982080Y-48290500D01*
X36227920Y-48290500D01*
X36227927Y-48290500D01*
X36471677Y-48258409D01*
X36709153Y-48194778D01*
X36936292Y-48100694D01*
X37149208Y-47977767D01*
X37344256Y-47828101D01*
X37465383Y-47706973D01*
X37526704Y-47673490D01*
X37596396Y-47678474D01*
X37652330Y-47720345D01*
X37676747Y-47785809D01*
X37670994Y-47832974D01*
X37593910Y-48070210D01*
X37593910Y-48070213D01*
X37554500Y-48319038D01*
X37554500Y-48570962D01*
X37567863Y-48655329D01*
X37593910Y-48819785D01*
X37671760Y-49059383D01*
X37715595Y-49145413D01*
X37766546Y-49245410D01*
X37786132Y-49283848D01*
X37934201Y-49487649D01*
X37934205Y-49487654D01*
X38112345Y-49665794D01*
X38112350Y-49665798D01*
X38260184Y-49773205D01*
X38316155Y-49813870D01*
X38459184Y-49886747D01*
X38540616Y-49928239D01*
X38540618Y-49928239D01*
X38540621Y-49928241D01*
X38780215Y-50006090D01*
X39029038Y-50045500D01*
X39029039Y-50045500D01*
X39280961Y-50045500D01*
X39280962Y-50045500D01*
X39529785Y-50006090D01*
X39769379Y-49928241D01*
X39993845Y-49813870D01*
X40197656Y-49665793D01*
X40375793Y-49487656D01*
X40523870Y-49283845D01*
X40638241Y-49059379D01*
X40716090Y-48819785D01*
X40755500Y-48570962D01*
X40755500Y-48347273D01*
X55399500Y-48347273D01*
X55399500Y-48452727D01*
X55419596Y-48527725D01*
X55426793Y-48554586D01*
X55426794Y-48554589D01*
X55436247Y-48570962D01*
X55479520Y-48645913D01*
X55554087Y-48720480D01*
X55645413Y-48773207D01*
X55747273Y-48800500D01*
X55747275Y-48800500D01*
X55774590Y-48800500D01*
X55841629Y-48820185D01*
X55887384Y-48872989D01*
X55897328Y-48942147D01*
X55868303Y-49005703D01*
X55836590Y-49031887D01*
X55754085Y-49079521D01*
X55679521Y-49154085D01*
X55626794Y-49245410D01*
X55626794Y-49245411D01*
X55626793Y-49245413D01*
X55599500Y-49347273D01*
X55599500Y-49452727D01*
X55626793Y-49554587D01*
X55679520Y-49645913D01*
X55754087Y-49720480D01*
X55845413Y-49773207D01*
X55947273Y-49800500D01*
X55947275Y-49800500D01*
X56052725Y-49800500D01*
X56052727Y-49800500D01*
X56154587Y-49773207D01*
X56242807Y-49722273D01*
X72649500Y-49722273D01*
X72649500Y-49827727D01*
X72676793Y-49929587D01*
X72729520Y-50020913D01*
X72804087Y-50095480D01*
X72895413Y-50148207D01*
X72997273Y-50175500D01*
X72997275Y-50175500D01*
X73102725Y-50175500D01*
X73102727Y-50175500D01*
X73204587Y-50148207D01*
X73295913Y-50095480D01*
X73370480Y-50020913D01*
X73423207Y-49929587D01*
X73450500Y-49827727D01*
X73450500Y-49722273D01*
X73423207Y-49620413D01*
X73370480Y-49529087D01*
X73295913Y-49454520D01*
X73204587Y-49401793D01*
X73102727Y-49374500D01*
X72997273Y-49374500D01*
X72895413Y-49401793D01*
X72895410Y-49401794D01*
X72804085Y-49454521D01*
X72729521Y-49529085D01*
X72676794Y-49620410D01*
X72676793Y-49620413D01*
X72649500Y-49722273D01*
X56242807Y-49722273D01*
X56245913Y-49720480D01*
X56320480Y-49645913D01*
X56373207Y-49554587D01*
X56400500Y-49452727D01*
X56400500Y-49347273D01*
X56373705Y-49247273D01*
X57499500Y-49247273D01*
X57499500Y-49352727D01*
X57526793Y-49454587D01*
X57579520Y-49545913D01*
X57654087Y-49620480D01*
X57745413Y-49673207D01*
X57847273Y-49700500D01*
X57847275Y-49700500D01*
X57952725Y-49700500D01*
X57952727Y-49700500D01*
X58054587Y-49673207D01*
X58145913Y-49620480D01*
X58220480Y-49545913D01*
X58273207Y-49454587D01*
X58300500Y-49352727D01*
X58300500Y-49247273D01*
X58273207Y-49145413D01*
X58220480Y-49054087D01*
X58145913Y-48979520D01*
X58054587Y-48926793D01*
X57952727Y-48899500D01*
X57847273Y-48899500D01*
X57745413Y-48926793D01*
X57745410Y-48926794D01*
X57654085Y-48979521D01*
X57579521Y-49054085D01*
X57526794Y-49145410D01*
X57526793Y-49145413D01*
X57499500Y-49247273D01*
X56373705Y-49247273D01*
X56373207Y-49245413D01*
X56320480Y-49154087D01*
X56245913Y-49079520D01*
X56154587Y-49026793D01*
X56052727Y-48999500D01*
X56025410Y-48999500D01*
X55958371Y-48979815D01*
X55912616Y-48927011D01*
X55902672Y-48857853D01*
X55931697Y-48794297D01*
X55963410Y-48768113D01*
X56045913Y-48720480D01*
X56120480Y-48645913D01*
X56173207Y-48554587D01*
X56200500Y-48452727D01*
X56200500Y-48422273D01*
X60599500Y-48422273D01*
X60599500Y-48527727D01*
X60626793Y-48629587D01*
X60679520Y-48720913D01*
X60754087Y-48795480D01*
X60845413Y-48848207D01*
X60947273Y-48875500D01*
X60947275Y-48875500D01*
X61052725Y-48875500D01*
X61052727Y-48875500D01*
X61154587Y-48848207D01*
X61245913Y-48795480D01*
X61301295Y-48740098D01*
X77249500Y-48740098D01*
X77249500Y-50459894D01*
X77249501Y-50459902D01*
X77255330Y-50489212D01*
X77277542Y-50522457D01*
X77294219Y-50533599D01*
X77310787Y-50544669D01*
X77310790Y-50544669D01*
X77310791Y-50544670D01*
X77320647Y-50546630D01*
X77340101Y-50550500D01*
X79059898Y-50550499D01*
X79089213Y-50544669D01*
X79122457Y-50522457D01*
X79144669Y-50489213D01*
X79150500Y-50459899D01*
X79150499Y-48740102D01*
X79144669Y-48710787D01*
X79144668Y-48710785D01*
X79122457Y-48677542D01*
X79089214Y-48655332D01*
X79089215Y-48655332D01*
X79089213Y-48655331D01*
X79089211Y-48655330D01*
X79089208Y-48655329D01*
X79059901Y-48649500D01*
X77340105Y-48649500D01*
X77340097Y-48649501D01*
X77310787Y-48655330D01*
X77277542Y-48677542D01*
X77255332Y-48710785D01*
X77255329Y-48710791D01*
X77249500Y-48740098D01*
X61301295Y-48740098D01*
X61320480Y-48720913D01*
X61373207Y-48629587D01*
X61400500Y-48527727D01*
X61400500Y-48422273D01*
X61373207Y-48320413D01*
X61320480Y-48229087D01*
X61245913Y-48154520D01*
X61154587Y-48101793D01*
X61137718Y-48097273D01*
X67249500Y-48097273D01*
X67249500Y-48202727D01*
X67276793Y-48304587D01*
X67329520Y-48395913D01*
X67404087Y-48470480D01*
X67495413Y-48523207D01*
X67597273Y-48550500D01*
X67597275Y-48550500D01*
X67702725Y-48550500D01*
X67702727Y-48550500D01*
X67804587Y-48523207D01*
X67895913Y-48470480D01*
X67970480Y-48395913D01*
X68023207Y-48304587D01*
X68050500Y-48202727D01*
X68050500Y-48097273D01*
X68023207Y-47995413D01*
X67970480Y-47904087D01*
X67895913Y-47829520D01*
X67804587Y-47776793D01*
X67702727Y-47749500D01*
X67597273Y-47749500D01*
X67495413Y-47776793D01*
X67495410Y-47776794D01*
X67404085Y-47829521D01*
X67329521Y-47904085D01*
X67276794Y-47995410D01*
X67276793Y-47995413D01*
X67249500Y-48097273D01*
X61137718Y-48097273D01*
X61052727Y-48074500D01*
X60947273Y-48074500D01*
X60845413Y-48101793D01*
X60845410Y-48101794D01*
X60754085Y-48154521D01*
X60679521Y-48229085D01*
X60626794Y-48320410D01*
X60626793Y-48320413D01*
X60599500Y-48422273D01*
X56200500Y-48422273D01*
X56200500Y-48347273D01*
X56173207Y-48245413D01*
X56120480Y-48154087D01*
X56045913Y-48079520D01*
X55954587Y-48026793D01*
X55852727Y-47999500D01*
X55747273Y-47999500D01*
X55645413Y-48026793D01*
X55645410Y-48026794D01*
X55554085Y-48079521D01*
X55479521Y-48154085D01*
X55426794Y-48245410D01*
X55426793Y-48245413D01*
X55399500Y-48347273D01*
X40755500Y-48347273D01*
X40755500Y-48319038D01*
X40716090Y-48070215D01*
X40638241Y-47830621D01*
X40638239Y-47830618D01*
X40638239Y-47830616D01*
X40596747Y-47749184D01*
X40523870Y-47606155D01*
X40386158Y-47416610D01*
X40375798Y-47402350D01*
X40375794Y-47402345D01*
X40197654Y-47224205D01*
X40197649Y-47224201D01*
X39993848Y-47076132D01*
X39993847Y-47076131D01*
X39993845Y-47076130D01*
X39882039Y-47019162D01*
X39769383Y-46961760D01*
X39529785Y-46883910D01*
X39280962Y-46844500D01*
X39029038Y-46844500D01*
X38904626Y-46864205D01*
X38780214Y-46883910D01*
X38540616Y-46961760D01*
X38316151Y-47076132D01*
X38112351Y-47224200D01*
X38019672Y-47316879D01*
X37958348Y-47350363D01*
X37888657Y-47345379D01*
X37832723Y-47303507D01*
X37808307Y-47238042D01*
X37817429Y-47181746D01*
X37884778Y-47019153D01*
X37948409Y-46781677D01*
X37980500Y-46537927D01*
X37980500Y-46292073D01*
X37948409Y-46048323D01*
X37884778Y-45810847D01*
X37790694Y-45583708D01*
X37667767Y-45370792D01*
X37570125Y-45243543D01*
X43994499Y-45243543D01*
X44032947Y-45436829D01*
X44032950Y-45436839D01*
X44108364Y-45618907D01*
X44108371Y-45618920D01*
X44217860Y-45782781D01*
X44217863Y-45782785D01*
X44357214Y-45922136D01*
X44357218Y-45922139D01*
X44521079Y-46031628D01*
X44521092Y-46031635D01*
X44703160Y-46107049D01*
X44703165Y-46107051D01*
X44703169Y-46107051D01*
X44703170Y-46107052D01*
X44896456Y-46145500D01*
X44896459Y-46145500D01*
X45093543Y-46145500D01*
X45223582Y-46119632D01*
X45286835Y-46107051D01*
X45468914Y-46031632D01*
X45632782Y-45922139D01*
X45772139Y-45782782D01*
X45795865Y-45747273D01*
X63099500Y-45747273D01*
X63099500Y-45852727D01*
X63126793Y-45954587D01*
X63179520Y-46045913D01*
X63254087Y-46120480D01*
X63345413Y-46173207D01*
X63447273Y-46200500D01*
X63447275Y-46200500D01*
X63552725Y-46200500D01*
X63552727Y-46200500D01*
X63654587Y-46173207D01*
X63745913Y-46120480D01*
X63820480Y-46045913D01*
X63873207Y-45954587D01*
X63875167Y-45947273D01*
X64999500Y-45947273D01*
X64999500Y-46052727D01*
X65026793Y-46154587D01*
X65079520Y-46245913D01*
X65154087Y-46320480D01*
X65245413Y-46373207D01*
X65347273Y-46400500D01*
X65347275Y-46400500D01*
X65452725Y-46400500D01*
X65452727Y-46400500D01*
X65554587Y-46373207D01*
X65645913Y-46320480D01*
X65720480Y-46245913D01*
X65773207Y-46154587D01*
X65800500Y-46052727D01*
X65800500Y-45947273D01*
X65773207Y-45845413D01*
X65720480Y-45754087D01*
X65645913Y-45679520D01*
X65554587Y-45626793D01*
X65452727Y-45599500D01*
X65347273Y-45599500D01*
X65245413Y-45626793D01*
X65245410Y-45626794D01*
X65154085Y-45679521D01*
X65079521Y-45754085D01*
X65026794Y-45845410D01*
X65026793Y-45845413D01*
X64999500Y-45947273D01*
X63875167Y-45947273D01*
X63900500Y-45852727D01*
X63900500Y-45747273D01*
X63873207Y-45645413D01*
X63820480Y-45554087D01*
X63745913Y-45479520D01*
X63654587Y-45426793D01*
X63552727Y-45399500D01*
X63447273Y-45399500D01*
X63345413Y-45426793D01*
X63345410Y-45426794D01*
X63254085Y-45479521D01*
X63179521Y-45554085D01*
X63126794Y-45645410D01*
X63126793Y-45645413D01*
X63099500Y-45747273D01*
X45795865Y-45747273D01*
X45803593Y-45735707D01*
X45847328Y-45670255D01*
X45847329Y-45670253D01*
X45881625Y-45618925D01*
X45881628Y-45618920D01*
X45881632Y-45618914D01*
X45889674Y-45599500D01*
X45943106Y-45470501D01*
X45957051Y-45436835D01*
X45992564Y-45258303D01*
X45995500Y-45243543D01*
X45995500Y-45046456D01*
X45957052Y-44853170D01*
X45957051Y-44853169D01*
X45957051Y-44853165D01*
X45950377Y-44837052D01*
X45881635Y-44671092D01*
X45881628Y-44671079D01*
X45772139Y-44507218D01*
X45772136Y-44507214D01*
X45691302Y-44426380D01*
X77249500Y-44426380D01*
X77249500Y-44613621D01*
X77286025Y-44797244D01*
X77286027Y-44797252D01*
X77357676Y-44970229D01*
X77357681Y-44970238D01*
X77461697Y-45125908D01*
X77461700Y-45125912D01*
X77594088Y-45258300D01*
X77594092Y-45258303D01*
X77749762Y-45362319D01*
X77749768Y-45362322D01*
X77749769Y-45362323D01*
X77922749Y-45433974D01*
X78106379Y-45470500D01*
X78106383Y-45470501D01*
X78106384Y-45470501D01*
X78293617Y-45470501D01*
X78293618Y-45470500D01*
X78477251Y-45433974D01*
X78650231Y-45362323D01*
X78805908Y-45258303D01*
X78938302Y-45125909D01*
X79042322Y-44970232D01*
X79113973Y-44797252D01*
X79150500Y-44613617D01*
X79150500Y-44426385D01*
X79113973Y-44242750D01*
X79042322Y-44069770D01*
X79042321Y-44069769D01*
X79042318Y-44069763D01*
X78938302Y-43914093D01*
X78938299Y-43914089D01*
X78805911Y-43781701D01*
X78805907Y-43781698D01*
X78650237Y-43677682D01*
X78650228Y-43677677D01*
X78477251Y-43606028D01*
X78477243Y-43606026D01*
X78293620Y-43569501D01*
X78293616Y-43569501D01*
X78106384Y-43569501D01*
X78106379Y-43569501D01*
X77922756Y-43606026D01*
X77922748Y-43606028D01*
X77749771Y-43677677D01*
X77749762Y-43677682D01*
X77594092Y-43781698D01*
X77594088Y-43781701D01*
X77461700Y-43914089D01*
X77461697Y-43914093D01*
X77357681Y-44069763D01*
X77357676Y-44069772D01*
X77286027Y-44242749D01*
X77286025Y-44242757D01*
X77249500Y-44426380D01*
X45691302Y-44426380D01*
X45632785Y-44367863D01*
X45632781Y-44367860D01*
X45468920Y-44258371D01*
X45468907Y-44258364D01*
X45286839Y-44182950D01*
X45286829Y-44182947D01*
X45093543Y-44144500D01*
X45093541Y-44144500D01*
X44896459Y-44144500D01*
X44896457Y-44144500D01*
X44703170Y-44182947D01*
X44703160Y-44182950D01*
X44521092Y-44258364D01*
X44521079Y-44258371D01*
X44357218Y-44367860D01*
X44357214Y-44367863D01*
X44217863Y-44507214D01*
X44217860Y-44507218D01*
X44108371Y-44671079D01*
X44108364Y-44671092D01*
X44032950Y-44853160D01*
X44032947Y-44853170D01*
X43994500Y-45046456D01*
X43994500Y-45046459D01*
X43994500Y-45243541D01*
X43994500Y-45243543D01*
X43994499Y-45243543D01*
X37570125Y-45243543D01*
X37518101Y-45175744D01*
X37518096Y-45175738D01*
X37344261Y-45001903D01*
X37344254Y-45001897D01*
X37149212Y-44852236D01*
X37149211Y-44852235D01*
X37149208Y-44852233D01*
X36936292Y-44729306D01*
X36936285Y-44729303D01*
X36709162Y-44635225D01*
X36709155Y-44635223D01*
X36709153Y-44635222D01*
X36471677Y-44571591D01*
X36430939Y-44566227D01*
X36227934Y-44539500D01*
X36227927Y-44539500D01*
X35982073Y-44539500D01*
X35982065Y-44539500D01*
X35750059Y-44570045D01*
X35738323Y-44571591D01*
X35581479Y-44613617D01*
X35500847Y-44635222D01*
X35500837Y-44635225D01*
X35273714Y-44729303D01*
X35273705Y-44729307D01*
X35060787Y-44852236D01*
X34865745Y-45001897D01*
X34865738Y-45001903D01*
X34691903Y-45175738D01*
X34691897Y-45175745D01*
X34542236Y-45370787D01*
X34419307Y-45583705D01*
X34419303Y-45583714D01*
X34325225Y-45810837D01*
X34325222Y-45810847D01*
X34262237Y-46045914D01*
X34261592Y-46048320D01*
X34261590Y-46048331D01*
X34229500Y-46292065D01*
X32411856Y-46292065D01*
X32302701Y-46256598D01*
X32302699Y-46256597D01*
X32302698Y-46256597D01*
X32171271Y-46235781D01*
X32131611Y-46229500D01*
X31958389Y-46229500D01*
X31918728Y-46235781D01*
X31787302Y-46256597D01*
X31622552Y-46310128D01*
X31468211Y-46388768D01*
X31452064Y-46400500D01*
X31328072Y-46490586D01*
X31328070Y-46490588D01*
X31328069Y-46490588D01*
X31205588Y-46613069D01*
X31205588Y-46613070D01*
X31205586Y-46613072D01*
X31161859Y-46673256D01*
X31103768Y-46753211D01*
X31025128Y-46907552D01*
X30971597Y-47072302D01*
X30947539Y-47224200D01*
X30944500Y-47243389D01*
X30500500Y-47243389D01*
X30500500Y-43973543D01*
X41454499Y-43973543D01*
X41492947Y-44166829D01*
X41492950Y-44166839D01*
X41568364Y-44348907D01*
X41568371Y-44348920D01*
X41677860Y-44512781D01*
X41677863Y-44512785D01*
X41817214Y-44652136D01*
X41817218Y-44652139D01*
X41981079Y-44761628D01*
X41981092Y-44761635D01*
X42163160Y-44837049D01*
X42163165Y-44837051D01*
X42163169Y-44837051D01*
X42163170Y-44837052D01*
X42356456Y-44875500D01*
X42356459Y-44875500D01*
X42553543Y-44875500D01*
X42683582Y-44849632D01*
X42746835Y-44837051D01*
X42928914Y-44761632D01*
X43092782Y-44652139D01*
X43232139Y-44512782D01*
X43341632Y-44348914D01*
X43417051Y-44166835D01*
X43455500Y-43973541D01*
X43455500Y-43776459D01*
X43455500Y-43776456D01*
X43429803Y-43647273D01*
X51599500Y-43647273D01*
X51599500Y-43752727D01*
X51626793Y-43854587D01*
X51679520Y-43945913D01*
X51754087Y-44020480D01*
X51845413Y-44073207D01*
X51947273Y-44100500D01*
X51947275Y-44100500D01*
X52052725Y-44100500D01*
X52052727Y-44100500D01*
X52154587Y-44073207D01*
X52245913Y-44020480D01*
X52320480Y-43945913D01*
X52373207Y-43854587D01*
X52400500Y-43752727D01*
X52400500Y-43647273D01*
X52373207Y-43545413D01*
X52320480Y-43454087D01*
X52245913Y-43379520D01*
X52154587Y-43326793D01*
X52052727Y-43299500D01*
X51947273Y-43299500D01*
X51845413Y-43326793D01*
X51845410Y-43326794D01*
X51754085Y-43379521D01*
X51679521Y-43454085D01*
X51626794Y-43545410D01*
X51626793Y-43545413D01*
X51599500Y-43647273D01*
X43429803Y-43647273D01*
X43417052Y-43583170D01*
X43417051Y-43583169D01*
X43417051Y-43583165D01*
X43410377Y-43567052D01*
X43341635Y-43401092D01*
X43341628Y-43401079D01*
X43232139Y-43237218D01*
X43232136Y-43237214D01*
X43092785Y-43097863D01*
X43092781Y-43097860D01*
X42928920Y-42988371D01*
X42928907Y-42988364D01*
X42746839Y-42912950D01*
X42746829Y-42912947D01*
X42553543Y-42874500D01*
X42553541Y-42874500D01*
X42356459Y-42874500D01*
X42356457Y-42874500D01*
X42163170Y-42912947D01*
X42163160Y-42912950D01*
X41981092Y-42988364D01*
X41981079Y-42988371D01*
X41817218Y-43097860D01*
X41817214Y-43097863D01*
X41677863Y-43237214D01*
X41677860Y-43237218D01*
X41568371Y-43401079D01*
X41568364Y-43401092D01*
X41492950Y-43583160D01*
X41492947Y-43583170D01*
X41454500Y-43776456D01*
X41454500Y-43776459D01*
X41454500Y-43973541D01*
X41454500Y-43973543D01*
X41454499Y-43973543D01*
X30500500Y-43973543D01*
X30500500Y-42703543D01*
X43994499Y-42703543D01*
X44032947Y-42896829D01*
X44032950Y-42896839D01*
X44108364Y-43078907D01*
X44108371Y-43078920D01*
X44217860Y-43242781D01*
X44217863Y-43242785D01*
X44357214Y-43382136D01*
X44357218Y-43382139D01*
X44521079Y-43491628D01*
X44521092Y-43491635D01*
X44687883Y-43560721D01*
X44703165Y-43567051D01*
X44703169Y-43567051D01*
X44703170Y-43567052D01*
X44896456Y-43605500D01*
X44896459Y-43605500D01*
X45093543Y-43605500D01*
X45223582Y-43579632D01*
X45286835Y-43567051D01*
X45339074Y-43545413D01*
X45389359Y-43524585D01*
X45468907Y-43491635D01*
X45468907Y-43491634D01*
X45468914Y-43491632D01*
X45632782Y-43382139D01*
X45772139Y-43242782D01*
X45881632Y-43078914D01*
X45957051Y-42896835D01*
X45992564Y-42718302D01*
X45995500Y-42703543D01*
X45995500Y-42506456D01*
X45957052Y-42313170D01*
X45957051Y-42313169D01*
X45957051Y-42313165D01*
X45957049Y-42313160D01*
X45881635Y-42131092D01*
X45881628Y-42131079D01*
X45772139Y-41967218D01*
X45772136Y-41967214D01*
X45632785Y-41827863D01*
X45632781Y-41827860D01*
X45468920Y-41718371D01*
X45468907Y-41718364D01*
X45286839Y-41642950D01*
X45286829Y-41642947D01*
X45093543Y-41604500D01*
X45093541Y-41604500D01*
X44896459Y-41604500D01*
X44896457Y-41604500D01*
X44703170Y-41642947D01*
X44703160Y-41642950D01*
X44521092Y-41718364D01*
X44521079Y-41718371D01*
X44357218Y-41827860D01*
X44357214Y-41827863D01*
X44217863Y-41967214D01*
X44217860Y-41967218D01*
X44108371Y-42131079D01*
X44108364Y-42131092D01*
X44032950Y-42313160D01*
X44032947Y-42313170D01*
X43994500Y-42506456D01*
X43994500Y-42506459D01*
X43994500Y-42703541D01*
X43994500Y-42703543D01*
X43994499Y-42703543D01*
X30500500Y-42703543D01*
X30500500Y-41433542D01*
X41454499Y-41433542D01*
X41492947Y-41626828D01*
X41492950Y-41626838D01*
X41568364Y-41808906D01*
X41568371Y-41808919D01*
X41677860Y-41972780D01*
X41677863Y-41972784D01*
X41817214Y-42112135D01*
X41817218Y-42112138D01*
X41981079Y-42221627D01*
X41981092Y-42221634D01*
X42163160Y-42297048D01*
X42163165Y-42297050D01*
X42163169Y-42297050D01*
X42163170Y-42297051D01*
X42356456Y-42335499D01*
X42356459Y-42335499D01*
X42553543Y-42335499D01*
X42683582Y-42309631D01*
X42746835Y-42297050D01*
X42928914Y-42221631D01*
X43092782Y-42112138D01*
X43232139Y-41972781D01*
X43341632Y-41808913D01*
X43417051Y-41626834D01*
X43451413Y-41454087D01*
X43455500Y-41433542D01*
X43455500Y-41236455D01*
X43417052Y-41043169D01*
X43417051Y-41043168D01*
X43417051Y-41043164D01*
X43376769Y-40945913D01*
X43341635Y-40861091D01*
X43341628Y-40861078D01*
X43232139Y-40697217D01*
X43232136Y-40697213D01*
X43092785Y-40557862D01*
X43092781Y-40557859D01*
X42928920Y-40448370D01*
X42928907Y-40448363D01*
X42746839Y-40372949D01*
X42746829Y-40372946D01*
X42553543Y-40334499D01*
X42553541Y-40334499D01*
X42356459Y-40334499D01*
X42356457Y-40334499D01*
X42163170Y-40372946D01*
X42163160Y-40372949D01*
X41981092Y-40448363D01*
X41981079Y-40448370D01*
X41817218Y-40557859D01*
X41817214Y-40557862D01*
X41677863Y-40697213D01*
X41677860Y-40697217D01*
X41568371Y-40861078D01*
X41568364Y-40861091D01*
X41492950Y-41043159D01*
X41492947Y-41043169D01*
X41454500Y-41236455D01*
X41454500Y-41236458D01*
X41454500Y-41433540D01*
X41454500Y-41433542D01*
X41454499Y-41433542D01*
X30500500Y-41433542D01*
X30500500Y-40163543D01*
X43994499Y-40163543D01*
X44032947Y-40356829D01*
X44032950Y-40356839D01*
X44108364Y-40538907D01*
X44108371Y-40538920D01*
X44217860Y-40702781D01*
X44217863Y-40702785D01*
X44357214Y-40842136D01*
X44357218Y-40842139D01*
X44521079Y-40951628D01*
X44521092Y-40951635D01*
X44687296Y-41020478D01*
X44703165Y-41027051D01*
X44703169Y-41027051D01*
X44703170Y-41027052D01*
X44896456Y-41065500D01*
X44896459Y-41065500D01*
X45093543Y-41065500D01*
X45223582Y-41039632D01*
X45286835Y-41027051D01*
X45468914Y-40951632D01*
X45632782Y-40842139D01*
X45772139Y-40702782D01*
X45881632Y-40538914D01*
X45957051Y-40356835D01*
X45979115Y-40245913D01*
X45995500Y-40163543D01*
X45995500Y-39966456D01*
X45957052Y-39773170D01*
X45957051Y-39773169D01*
X45957051Y-39773165D01*
X45950377Y-39757052D01*
X45881635Y-39591092D01*
X45881628Y-39591079D01*
X45772139Y-39427218D01*
X45772136Y-39427214D01*
X45632785Y-39287863D01*
X45632781Y-39287860D01*
X45564518Y-39242248D01*
X45468920Y-39178371D01*
X45468907Y-39178364D01*
X45393846Y-39147273D01*
X51599500Y-39147273D01*
X51599500Y-39252727D01*
X51626793Y-39354587D01*
X51671938Y-39432781D01*
X51679521Y-39445914D01*
X51745926Y-39512319D01*
X51779411Y-39573642D01*
X51774427Y-39643334D01*
X51745926Y-39687681D01*
X51679521Y-39754085D01*
X51626794Y-39845410D01*
X51626793Y-39845413D01*
X51599500Y-39947273D01*
X51599500Y-40052727D01*
X51625883Y-40151188D01*
X51626793Y-40154586D01*
X51626794Y-40154589D01*
X51631964Y-40163543D01*
X51679520Y-40245913D01*
X51754087Y-40320480D01*
X51845413Y-40373207D01*
X51947273Y-40400500D01*
X51947275Y-40400500D01*
X52052725Y-40400500D01*
X52052727Y-40400500D01*
X52154587Y-40373207D01*
X52245913Y-40320480D01*
X52320480Y-40245913D01*
X52373207Y-40154587D01*
X52400500Y-40052727D01*
X52400500Y-39947273D01*
X52373207Y-39845413D01*
X52320480Y-39754087D01*
X52254074Y-39687681D01*
X52220589Y-39626358D01*
X52225573Y-39556666D01*
X52254074Y-39512319D01*
X52263668Y-39502725D01*
X52320480Y-39445913D01*
X52373207Y-39354587D01*
X52400500Y-39252727D01*
X52400500Y-39147273D01*
X52373207Y-39045413D01*
X52320480Y-38954087D01*
X52245913Y-38879520D01*
X52154587Y-38826793D01*
X52052727Y-38799500D01*
X51947273Y-38799500D01*
X51845413Y-38826793D01*
X51845410Y-38826794D01*
X51754085Y-38879521D01*
X51679521Y-38954085D01*
X51626794Y-39045410D01*
X51626793Y-39045413D01*
X51599500Y-39147273D01*
X45393846Y-39147273D01*
X45286839Y-39102950D01*
X45286829Y-39102947D01*
X45093543Y-39064500D01*
X45093541Y-39064500D01*
X44896459Y-39064500D01*
X44896457Y-39064500D01*
X44703170Y-39102947D01*
X44703160Y-39102950D01*
X44521092Y-39178364D01*
X44521079Y-39178371D01*
X44357218Y-39287860D01*
X44357214Y-39287863D01*
X44217863Y-39427214D01*
X44217860Y-39427218D01*
X44108371Y-39591079D01*
X44108364Y-39591092D01*
X44032950Y-39773160D01*
X44032947Y-39773170D01*
X43994500Y-39966456D01*
X43994500Y-39966459D01*
X43994500Y-40163541D01*
X43994500Y-40163543D01*
X43994499Y-40163543D01*
X30500500Y-40163543D01*
X30500500Y-38893543D01*
X41454499Y-38893543D01*
X41492947Y-39086829D01*
X41492950Y-39086839D01*
X41568364Y-39268907D01*
X41568371Y-39268920D01*
X41677860Y-39432781D01*
X41677863Y-39432785D01*
X41817214Y-39572136D01*
X41817218Y-39572139D01*
X41981079Y-39681628D01*
X41981092Y-39681635D01*
X42137685Y-39746497D01*
X42163165Y-39757051D01*
X42163169Y-39757051D01*
X42163170Y-39757052D01*
X42356456Y-39795500D01*
X42356459Y-39795500D01*
X42553543Y-39795500D01*
X42688106Y-39768733D01*
X42746835Y-39757051D01*
X42928914Y-39681632D01*
X43092782Y-39572139D01*
X43232139Y-39432782D01*
X43341632Y-39268914D01*
X43417051Y-39086835D01*
X43429632Y-39023582D01*
X43455500Y-38893543D01*
X43455500Y-38696456D01*
X43417052Y-38503170D01*
X43417051Y-38503169D01*
X43417051Y-38503165D01*
X43410377Y-38487052D01*
X43341635Y-38321092D01*
X43341628Y-38321079D01*
X43232139Y-38157218D01*
X43232136Y-38157214D01*
X43092785Y-38017863D01*
X43092781Y-38017860D01*
X42928920Y-37908371D01*
X42928907Y-37908364D01*
X42746839Y-37832950D01*
X42746829Y-37832947D01*
X42553543Y-37794500D01*
X42553541Y-37794500D01*
X42356459Y-37794500D01*
X42356457Y-37794500D01*
X42163170Y-37832947D01*
X42163160Y-37832950D01*
X41981092Y-37908364D01*
X41981079Y-37908371D01*
X41817218Y-38017860D01*
X41817214Y-38017863D01*
X41677863Y-38157214D01*
X41677860Y-38157218D01*
X41568371Y-38321079D01*
X41568364Y-38321092D01*
X41492950Y-38503160D01*
X41492947Y-38503170D01*
X41454500Y-38696456D01*
X41454500Y-38696459D01*
X41454500Y-38893541D01*
X41454500Y-38893543D01*
X41454499Y-38893543D01*
X30500500Y-38893543D01*
X30500500Y-36523388D01*
X30944500Y-36523388D01*
X30944500Y-36696609D01*
X30969441Y-36854086D01*
X30971598Y-36867700D01*
X31025127Y-37032444D01*
X31103768Y-37186787D01*
X31205586Y-37326927D01*
X31328072Y-37449413D01*
X31468212Y-37551231D01*
X31622555Y-37629872D01*
X31787299Y-37683401D01*
X31958389Y-37710499D01*
X31958390Y-37710499D01*
X32131610Y-37710499D01*
X32131611Y-37710499D01*
X32302701Y-37683401D01*
X32467445Y-37629872D01*
X32479866Y-37623543D01*
X43994499Y-37623543D01*
X44032947Y-37816829D01*
X44032950Y-37816839D01*
X44108364Y-37998907D01*
X44108371Y-37998920D01*
X44217860Y-38162781D01*
X44217863Y-38162785D01*
X44357214Y-38302136D01*
X44357218Y-38302139D01*
X44521079Y-38411628D01*
X44521092Y-38411635D01*
X44703160Y-38487049D01*
X44703165Y-38487051D01*
X44703169Y-38487051D01*
X44703170Y-38487052D01*
X44896456Y-38525500D01*
X44896459Y-38525500D01*
X45093543Y-38525500D01*
X45223582Y-38499632D01*
X45286835Y-38487051D01*
X45468914Y-38411632D01*
X45632782Y-38302139D01*
X45772139Y-38162782D01*
X45881632Y-37998914D01*
X45957051Y-37816835D01*
X45992564Y-37638302D01*
X45995500Y-37623543D01*
X45995500Y-37426456D01*
X45957052Y-37233170D01*
X45957051Y-37233169D01*
X45957051Y-37233165D01*
X45928776Y-37164902D01*
X45881635Y-37051092D01*
X45881628Y-37051079D01*
X45772139Y-36887218D01*
X45772136Y-36887214D01*
X45632785Y-36747863D01*
X45632781Y-36747860D01*
X45468920Y-36638371D01*
X45468907Y-36638364D01*
X45286839Y-36562950D01*
X45286829Y-36562947D01*
X45093543Y-36524500D01*
X45093541Y-36524500D01*
X44896459Y-36524500D01*
X44896457Y-36524500D01*
X44703170Y-36562947D01*
X44703160Y-36562950D01*
X44521092Y-36638364D01*
X44521079Y-36638371D01*
X44357218Y-36747860D01*
X44357214Y-36747863D01*
X44217863Y-36887214D01*
X44217860Y-36887218D01*
X44108371Y-37051079D01*
X44108364Y-37051092D01*
X44032950Y-37233160D01*
X44032947Y-37233170D01*
X43994500Y-37426456D01*
X43994500Y-37426459D01*
X43994500Y-37623541D01*
X43994500Y-37623543D01*
X43994499Y-37623543D01*
X32479866Y-37623543D01*
X32621788Y-37551231D01*
X32761928Y-37449413D01*
X32884414Y-37326927D01*
X32986232Y-37186787D01*
X33064873Y-37032444D01*
X33118402Y-36867700D01*
X33145500Y-36696610D01*
X33145500Y-36523388D01*
X33118402Y-36352298D01*
X33064873Y-36187554D01*
X32986232Y-36033211D01*
X32884414Y-35893071D01*
X32761928Y-35770585D01*
X32621788Y-35668767D01*
X32467445Y-35590126D01*
X32302701Y-35536597D01*
X32302699Y-35536596D01*
X32302698Y-35536596D01*
X32171271Y-35515780D01*
X32131611Y-35509499D01*
X31958389Y-35509499D01*
X31918728Y-35515780D01*
X31787302Y-35536596D01*
X31622552Y-35590127D01*
X31468211Y-35668767D01*
X31424535Y-35700500D01*
X31328072Y-35770585D01*
X31328070Y-35770587D01*
X31328069Y-35770587D01*
X31205588Y-35893068D01*
X31205588Y-35893069D01*
X31205586Y-35893071D01*
X31166206Y-35947273D01*
X31103768Y-36033210D01*
X31025128Y-36187551D01*
X30971597Y-36352301D01*
X30944500Y-36523388D01*
X30500500Y-36523388D01*
X30500500Y-34862064D01*
X34229500Y-34862064D01*
X34229500Y-35107933D01*
X34249565Y-35260330D01*
X34261591Y-35351676D01*
X34313637Y-35545914D01*
X34325222Y-35589151D01*
X34325225Y-35589161D01*
X34393539Y-35754085D01*
X34419306Y-35816291D01*
X34542233Y-36029207D01*
X34542235Y-36029210D01*
X34542236Y-36029211D01*
X34691897Y-36224253D01*
X34691903Y-36224260D01*
X34865738Y-36398095D01*
X34865745Y-36398101D01*
X34933071Y-36449762D01*
X35060792Y-36547766D01*
X35273708Y-36670693D01*
X35500847Y-36764777D01*
X35738323Y-36828408D01*
X35982073Y-36860499D01*
X35982080Y-36860499D01*
X36227920Y-36860499D01*
X36227927Y-36860499D01*
X36471677Y-36828408D01*
X36709153Y-36764777D01*
X36936292Y-36670693D01*
X37149208Y-36547766D01*
X37344256Y-36398100D01*
X37518101Y-36224255D01*
X37667767Y-36029207D01*
X37790694Y-35816291D01*
X37884778Y-35589152D01*
X37948409Y-35351676D01*
X37949275Y-35345098D01*
X41454500Y-35345098D01*
X41454500Y-37164894D01*
X41454501Y-37164902D01*
X41460330Y-37194212D01*
X41482542Y-37227457D01*
X41491093Y-37233170D01*
X41515787Y-37249669D01*
X41515790Y-37249669D01*
X41515791Y-37249670D01*
X41525647Y-37251630D01*
X41545101Y-37255500D01*
X43364898Y-37255499D01*
X43394213Y-37249669D01*
X43427457Y-37227457D01*
X43449669Y-37194213D01*
X43455500Y-37164899D01*
X43455499Y-35947273D01*
X46699500Y-35947273D01*
X46699500Y-36052727D01*
X46700828Y-36057681D01*
X46726793Y-36154586D01*
X46726794Y-36154589D01*
X46730900Y-36161700D01*
X46779520Y-36245913D01*
X46854087Y-36320480D01*
X46945413Y-36373207D01*
X47047273Y-36400500D01*
X47047275Y-36400500D01*
X47152725Y-36400500D01*
X47152727Y-36400500D01*
X47254587Y-36373207D01*
X47345913Y-36320480D01*
X47420480Y-36245913D01*
X47473207Y-36154587D01*
X47500500Y-36052727D01*
X47500500Y-35947273D01*
X48499500Y-35947273D01*
X48499500Y-36052727D01*
X48500828Y-36057681D01*
X48526793Y-36154586D01*
X48526794Y-36154589D01*
X48530900Y-36161700D01*
X48579520Y-36245913D01*
X48654087Y-36320480D01*
X48745413Y-36373207D01*
X48847273Y-36400500D01*
X48847275Y-36400500D01*
X48952725Y-36400500D01*
X48952727Y-36400500D01*
X49054587Y-36373207D01*
X49145913Y-36320480D01*
X49220480Y-36245913D01*
X49273207Y-36154587D01*
X49300500Y-36052727D01*
X49300500Y-35947273D01*
X49273207Y-35845413D01*
X49220480Y-35754087D01*
X49145913Y-35679520D01*
X49054587Y-35626793D01*
X48952727Y-35599500D01*
X48847273Y-35599500D01*
X48745413Y-35626793D01*
X48745410Y-35626794D01*
X48654085Y-35679521D01*
X48579521Y-35754085D01*
X48526794Y-35845410D01*
X48526793Y-35845413D01*
X48499500Y-35947273D01*
X47500500Y-35947273D01*
X47473207Y-35845413D01*
X47420480Y-35754087D01*
X47345913Y-35679520D01*
X47254587Y-35626793D01*
X47152727Y-35599500D01*
X47047273Y-35599500D01*
X46945413Y-35626793D01*
X46945410Y-35626794D01*
X46854085Y-35679521D01*
X46779521Y-35754085D01*
X46726794Y-35845410D01*
X46726793Y-35845413D01*
X46699500Y-35947273D01*
X43455499Y-35947273D01*
X43455499Y-35345102D01*
X43449669Y-35315787D01*
X43449668Y-35315785D01*
X43427457Y-35282542D01*
X43394214Y-35260332D01*
X43394215Y-35260332D01*
X43394213Y-35260331D01*
X43394211Y-35260330D01*
X43394208Y-35260329D01*
X43364901Y-35254500D01*
X41545105Y-35254500D01*
X41545097Y-35254501D01*
X41515787Y-35260330D01*
X41482542Y-35282542D01*
X41460332Y-35315785D01*
X41460329Y-35315791D01*
X41454500Y-35345098D01*
X37949275Y-35345098D01*
X37980500Y-35107926D01*
X37980500Y-34862072D01*
X37948409Y-34618322D01*
X37884778Y-34380846D01*
X37870872Y-34347275D01*
X37817431Y-34218256D01*
X37809962Y-34148787D01*
X37841237Y-34086307D01*
X37901326Y-34050655D01*
X37971151Y-34053149D01*
X38019673Y-34083122D01*
X38112345Y-34175794D01*
X38112350Y-34175798D01*
X38237032Y-34266384D01*
X38316155Y-34323870D01*
X38427977Y-34380846D01*
X38540616Y-34438239D01*
X38540618Y-34438239D01*
X38540621Y-34438241D01*
X38780215Y-34516090D01*
X39029038Y-34555500D01*
X39029039Y-34555500D01*
X39280961Y-34555500D01*
X39280962Y-34555500D01*
X39529785Y-34516090D01*
X39769379Y-34438241D01*
X39947914Y-34347273D01*
X46599500Y-34347273D01*
X46599500Y-34452727D01*
X46626793Y-34554587D01*
X46679520Y-34645913D01*
X46754087Y-34720480D01*
X46845413Y-34773207D01*
X46947273Y-34800500D01*
X46947275Y-34800500D01*
X47052725Y-34800500D01*
X47052727Y-34800500D01*
X47154587Y-34773207D01*
X47245913Y-34720480D01*
X47320480Y-34645913D01*
X47373207Y-34554587D01*
X47400500Y-34452727D01*
X47400500Y-34347273D01*
X47373207Y-34245413D01*
X47320480Y-34154087D01*
X47245913Y-34079520D01*
X47154587Y-34026793D01*
X47052727Y-33999500D01*
X46947273Y-33999500D01*
X46845413Y-34026793D01*
X46845410Y-34026794D01*
X46754085Y-34079521D01*
X46679521Y-34154085D01*
X46626794Y-34245410D01*
X46626793Y-34245413D01*
X46599500Y-34347273D01*
X39947914Y-34347273D01*
X39993845Y-34323870D01*
X40072968Y-34266384D01*
X40110897Y-34238828D01*
X40197649Y-34175798D01*
X40197647Y-34175798D01*
X40197656Y-34175793D01*
X40375793Y-33997656D01*
X40523870Y-33793845D01*
X40638241Y-33569379D01*
X40677916Y-33447273D01*
X50799500Y-33447273D01*
X50799500Y-33552727D01*
X50822044Y-33636865D01*
X50826794Y-33654589D01*
X50826794Y-33654590D01*
X50832885Y-33665139D01*
X50849500Y-33727142D01*
X50849500Y-34865385D01*
X50858641Y-34899497D01*
X50858642Y-34899501D01*
X50873384Y-34954524D01*
X50873385Y-34954525D01*
X50919527Y-35034447D01*
X50919529Y-35034450D01*
X50919530Y-35034451D01*
X55615549Y-39730470D01*
X55684846Y-39770478D01*
X55684848Y-39770480D01*
X55689499Y-39773165D01*
X55695473Y-39776614D01*
X55784617Y-39800500D01*
X56625500Y-39800500D01*
X56692539Y-39820185D01*
X56738294Y-39872989D01*
X56749500Y-39924500D01*
X56749500Y-41322857D01*
X56732888Y-41384855D01*
X56726795Y-41395408D01*
X56726793Y-41395413D01*
X56699500Y-41497273D01*
X56699500Y-41602727D01*
X56726302Y-41702756D01*
X56726794Y-41704589D01*
X56726794Y-41704590D01*
X56732885Y-41715139D01*
X56749500Y-41777142D01*
X56749500Y-42786256D01*
X56732887Y-42848256D01*
X56676794Y-42945410D01*
X56676793Y-42945413D01*
X56649500Y-43047273D01*
X56649500Y-43152727D01*
X56676793Y-43254587D01*
X56729520Y-43345913D01*
X56804087Y-43420480D01*
X56895413Y-43473207D01*
X56997273Y-43500500D01*
X56997275Y-43500500D01*
X57102725Y-43500500D01*
X57102727Y-43500500D01*
X57204587Y-43473207D01*
X57215142Y-43467112D01*
X57277142Y-43450500D01*
X57603456Y-43450500D01*
X57632896Y-43459144D01*
X57662883Y-43465668D01*
X57667898Y-43469422D01*
X57670495Y-43470185D01*
X57691137Y-43486819D01*
X57741544Y-43537226D01*
X57773637Y-43592809D01*
X57776793Y-43604587D01*
X57829520Y-43695913D01*
X57904087Y-43770480D01*
X57995413Y-43823207D01*
X58097273Y-43850500D01*
X58097275Y-43850500D01*
X58202725Y-43850500D01*
X58202727Y-43850500D01*
X58304587Y-43823207D01*
X58315142Y-43817112D01*
X58377142Y-43800500D01*
X59022858Y-43800500D01*
X59084857Y-43817112D01*
X59095413Y-43823207D01*
X59197273Y-43850500D01*
X59197275Y-43850500D01*
X59302725Y-43850500D01*
X59302727Y-43850500D01*
X59404587Y-43823207D01*
X59415142Y-43817112D01*
X59477142Y-43800500D01*
X60972858Y-43800500D01*
X61034857Y-43817112D01*
X61045413Y-43823207D01*
X61147273Y-43850500D01*
X61147275Y-43850500D01*
X61252725Y-43850500D01*
X61252727Y-43850500D01*
X61354587Y-43823207D01*
X61445913Y-43770480D01*
X61520480Y-43695913D01*
X61573207Y-43604587D01*
X61600500Y-43502727D01*
X61600500Y-43397273D01*
X61573207Y-43295413D01*
X61520480Y-43204087D01*
X61445913Y-43129520D01*
X61359312Y-43079521D01*
X61354589Y-43076794D01*
X61354588Y-43076793D01*
X61354587Y-43076793D01*
X61252727Y-43049500D01*
X61147273Y-43049500D01*
X61045413Y-43076793D01*
X61045410Y-43076794D01*
X61034858Y-43082887D01*
X60972858Y-43099500D01*
X59477142Y-43099500D01*
X59415142Y-43082887D01*
X59404589Y-43076794D01*
X59404588Y-43076793D01*
X59404587Y-43076793D01*
X59302727Y-43049500D01*
X59197273Y-43049500D01*
X59095413Y-43076793D01*
X59095410Y-43076794D01*
X59084858Y-43082887D01*
X59022858Y-43099500D01*
X58377142Y-43099500D01*
X58368962Y-43097873D01*
X58363886Y-43098789D01*
X58348761Y-43093854D01*
X58329688Y-43090061D01*
X58322184Y-43086952D01*
X58304587Y-43076793D01*
X58284962Y-43071534D01*
X58277453Y-43068424D01*
X58261463Y-43055538D01*
X58237226Y-43041544D01*
X58142955Y-42947273D01*
X62449500Y-42947273D01*
X62449500Y-43052727D01*
X62476793Y-43154587D01*
X62529520Y-43245913D01*
X62604087Y-43320480D01*
X62695413Y-43373207D01*
X62797273Y-43400500D01*
X62797275Y-43400500D01*
X62902725Y-43400500D01*
X62902727Y-43400500D01*
X63004587Y-43373207D01*
X63049506Y-43347273D01*
X68999500Y-43347273D01*
X68999500Y-43452727D01*
X69026793Y-43554587D01*
X69079520Y-43645913D01*
X69154087Y-43720480D01*
X69245413Y-43773207D01*
X69347273Y-43800500D01*
X69347275Y-43800500D01*
X69452725Y-43800500D01*
X69452727Y-43800500D01*
X69554587Y-43773207D01*
X69645913Y-43720480D01*
X69720480Y-43645913D01*
X69773207Y-43554587D01*
X69800500Y-43452727D01*
X69800500Y-43347273D01*
X69773207Y-43245413D01*
X69720480Y-43154087D01*
X69645913Y-43079520D01*
X69554587Y-43026793D01*
X69452727Y-42999500D01*
X69347273Y-42999500D01*
X69245413Y-43026793D01*
X69245410Y-43026794D01*
X69154085Y-43079521D01*
X69079521Y-43154085D01*
X69026794Y-43245410D01*
X69026793Y-43245413D01*
X68999500Y-43347273D01*
X63049506Y-43347273D01*
X63095913Y-43320480D01*
X63170480Y-43245913D01*
X63223207Y-43154587D01*
X63250500Y-43052727D01*
X63250500Y-42947273D01*
X63223207Y-42845413D01*
X63170480Y-42754087D01*
X63095913Y-42679520D01*
X63004587Y-42626793D01*
X62902727Y-42599500D01*
X62797273Y-42599500D01*
X62695413Y-42626793D01*
X62695410Y-42626794D01*
X62604085Y-42679521D01*
X62529521Y-42754085D01*
X62476794Y-42845410D01*
X62476793Y-42845413D01*
X62449500Y-42947273D01*
X58142955Y-42947273D01*
X58015213Y-42819531D01*
X58015208Y-42819527D01*
X57935290Y-42773387D01*
X57935283Y-42773384D01*
X57920898Y-42769529D01*
X57920898Y-42769530D01*
X57883520Y-42759515D01*
X57846144Y-42749500D01*
X57846143Y-42749500D01*
X57574500Y-42749500D01*
X57507461Y-42729815D01*
X57461706Y-42677011D01*
X57450500Y-42625500D01*
X57450500Y-41777142D01*
X57467115Y-41715139D01*
X57473205Y-41704590D01*
X57473207Y-41704587D01*
X57500500Y-41602727D01*
X57500500Y-41497273D01*
X57473207Y-41395413D01*
X57472255Y-41393764D01*
X57467112Y-41384855D01*
X57450500Y-41322857D01*
X57450500Y-39677142D01*
X57452982Y-39666002D01*
X57451948Y-39658249D01*
X57455810Y-39647273D01*
X58599500Y-39647273D01*
X58599500Y-39752727D01*
X58626793Y-39854587D01*
X58679520Y-39945913D01*
X58754087Y-40020480D01*
X58845413Y-40073207D01*
X58871606Y-40080225D01*
X58931267Y-40116590D01*
X58961796Y-40179437D01*
X58953501Y-40248812D01*
X58909016Y-40302690D01*
X58871607Y-40319774D01*
X58845417Y-40326792D01*
X58845413Y-40326793D01*
X58845410Y-40326794D01*
X58754085Y-40379521D01*
X58679521Y-40454085D01*
X58626794Y-40545410D01*
X58626793Y-40545413D01*
X58599500Y-40647273D01*
X58599500Y-40752727D01*
X58626793Y-40854585D01*
X58626793Y-40854586D01*
X58626794Y-40854589D01*
X58630545Y-40861085D01*
X58679520Y-40945913D01*
X58754087Y-41020480D01*
X58845413Y-41073207D01*
X58871606Y-41080225D01*
X58931267Y-41116590D01*
X58961796Y-41179437D01*
X58953501Y-41248812D01*
X58909016Y-41302690D01*
X58871607Y-41319774D01*
X58860103Y-41322857D01*
X58845413Y-41326793D01*
X58845410Y-41326794D01*
X58754085Y-41379521D01*
X58679521Y-41454085D01*
X58626794Y-41545410D01*
X58626793Y-41545413D01*
X58599500Y-41647273D01*
X58599500Y-41752727D01*
X58626793Y-41854587D01*
X58679520Y-41945913D01*
X58754087Y-42020480D01*
X58845413Y-42073207D01*
X58947273Y-42100500D01*
X58947275Y-42100500D01*
X59052725Y-42100500D01*
X59052727Y-42100500D01*
X59154587Y-42073207D01*
X59245913Y-42020480D01*
X59320480Y-41945913D01*
X59373207Y-41854587D01*
X59380225Y-41828393D01*
X59416589Y-41768733D01*
X59479436Y-41738203D01*
X59548812Y-41746497D01*
X59602690Y-41790982D01*
X59619775Y-41828394D01*
X59626792Y-41854585D01*
X59626793Y-41854587D01*
X59679520Y-41945913D01*
X59754087Y-42020480D01*
X59845413Y-42073207D01*
X59947273Y-42100500D01*
X59947275Y-42100500D01*
X60052725Y-42100500D01*
X60052727Y-42100500D01*
X60154587Y-42073207D01*
X60245913Y-42020480D01*
X60320480Y-41945913D01*
X60373207Y-41854587D01*
X60380225Y-41828393D01*
X60416589Y-41768733D01*
X60479436Y-41738203D01*
X60548812Y-41746497D01*
X60602690Y-41790982D01*
X60619775Y-41828394D01*
X60626792Y-41854585D01*
X60626793Y-41854587D01*
X60679520Y-41945913D01*
X60754087Y-42020480D01*
X60845413Y-42073207D01*
X60947273Y-42100500D01*
X60947275Y-42100500D01*
X61052725Y-42100500D01*
X61052727Y-42100500D01*
X61154587Y-42073207D01*
X61245913Y-42020480D01*
X61320480Y-41945913D01*
X61354852Y-41886379D01*
X77249500Y-41886379D01*
X77249500Y-42073620D01*
X77286025Y-42257243D01*
X77286027Y-42257251D01*
X77357676Y-42430228D01*
X77357681Y-42430237D01*
X77461697Y-42585907D01*
X77461700Y-42585911D01*
X77594088Y-42718299D01*
X77594092Y-42718302D01*
X77749762Y-42822318D01*
X77749768Y-42822321D01*
X77749769Y-42822322D01*
X77922749Y-42893973D01*
X78018149Y-42912949D01*
X78106379Y-42930499D01*
X78106383Y-42930500D01*
X78106384Y-42930500D01*
X78293617Y-42930500D01*
X78293618Y-42930499D01*
X78477251Y-42893973D01*
X78650231Y-42822322D01*
X78805908Y-42718302D01*
X78938302Y-42585908D01*
X79042322Y-42430231D01*
X79113973Y-42257251D01*
X79150500Y-42073616D01*
X79150500Y-41886384D01*
X79113973Y-41702749D01*
X79042322Y-41529769D01*
X79042321Y-41529768D01*
X79042318Y-41529762D01*
X78938302Y-41374092D01*
X78938299Y-41374088D01*
X78805911Y-41241700D01*
X78805907Y-41241697D01*
X78650237Y-41137681D01*
X78650228Y-41137676D01*
X78477251Y-41066027D01*
X78477243Y-41066025D01*
X78293620Y-41029500D01*
X78293616Y-41029500D01*
X78106384Y-41029500D01*
X78106379Y-41029500D01*
X77922756Y-41066025D01*
X77922748Y-41066027D01*
X77749771Y-41137676D01*
X77749762Y-41137681D01*
X77594092Y-41241697D01*
X77594088Y-41241700D01*
X77461700Y-41374088D01*
X77461697Y-41374092D01*
X77357681Y-41529762D01*
X77357676Y-41529771D01*
X77286027Y-41702748D01*
X77286025Y-41702756D01*
X77249500Y-41886379D01*
X61354852Y-41886379D01*
X61373207Y-41854587D01*
X61400500Y-41752727D01*
X61400500Y-41647273D01*
X61373207Y-41545413D01*
X61320480Y-41454087D01*
X61245913Y-41379520D01*
X61154587Y-41326793D01*
X61154585Y-41326792D01*
X61138979Y-41322611D01*
X61128393Y-41319774D01*
X61068733Y-41283411D01*
X61038203Y-41220564D01*
X61046497Y-41151188D01*
X61090982Y-41097310D01*
X61128392Y-41080225D01*
X61154587Y-41073207D01*
X61245913Y-41020480D01*
X61320480Y-40945913D01*
X61373207Y-40854587D01*
X61400500Y-40752727D01*
X61400500Y-40647273D01*
X61373207Y-40545413D01*
X61320480Y-40454087D01*
X61245913Y-40379520D01*
X61154587Y-40326793D01*
X61154585Y-40326792D01*
X61138979Y-40322611D01*
X61128393Y-40319774D01*
X61068733Y-40283411D01*
X61038203Y-40220564D01*
X61046497Y-40151188D01*
X61090982Y-40097310D01*
X61128392Y-40080225D01*
X61154587Y-40073207D01*
X61245913Y-40020480D01*
X61320480Y-39945913D01*
X61373207Y-39854587D01*
X61400500Y-39752727D01*
X61400500Y-39647273D01*
X61373207Y-39545413D01*
X61320480Y-39454087D01*
X61245913Y-39379520D01*
X61188511Y-39346379D01*
X77249500Y-39346379D01*
X77249500Y-39533620D01*
X77286025Y-39717243D01*
X77286027Y-39717251D01*
X77357676Y-39890228D01*
X77357681Y-39890237D01*
X77461697Y-40045907D01*
X77461700Y-40045911D01*
X77594088Y-40178299D01*
X77594092Y-40178302D01*
X77749762Y-40282318D01*
X77749768Y-40282321D01*
X77749769Y-40282322D01*
X77922749Y-40353973D01*
X78106379Y-40390499D01*
X78106383Y-40390500D01*
X78106384Y-40390500D01*
X78293617Y-40390500D01*
X78293618Y-40390499D01*
X78477251Y-40353973D01*
X78650231Y-40282322D01*
X78805908Y-40178302D01*
X78938302Y-40045908D01*
X79042322Y-39890231D01*
X79113973Y-39717251D01*
X79150500Y-39533616D01*
X79150500Y-39346384D01*
X79113973Y-39162749D01*
X79042322Y-38989769D01*
X79042321Y-38989768D01*
X79042318Y-38989762D01*
X78938302Y-38834092D01*
X78938299Y-38834088D01*
X78805911Y-38701700D01*
X78805907Y-38701697D01*
X78650237Y-38597681D01*
X78650228Y-38597676D01*
X78477251Y-38526027D01*
X78477243Y-38526025D01*
X78293620Y-38489500D01*
X78293616Y-38489500D01*
X78106384Y-38489500D01*
X78106379Y-38489500D01*
X77922756Y-38526025D01*
X77922748Y-38526027D01*
X77749771Y-38597676D01*
X77749762Y-38597681D01*
X77594092Y-38701697D01*
X77594088Y-38701700D01*
X77461700Y-38834088D01*
X77461697Y-38834092D01*
X77357681Y-38989762D01*
X77357676Y-38989771D01*
X77286027Y-39162748D01*
X77286025Y-39162756D01*
X77249500Y-39346379D01*
X61188511Y-39346379D01*
X61154587Y-39326793D01*
X61052727Y-39299500D01*
X60947273Y-39299500D01*
X60845413Y-39326793D01*
X60845410Y-39326794D01*
X60754085Y-39379521D01*
X60679521Y-39454085D01*
X60626794Y-39545410D01*
X60626793Y-39545413D01*
X60619775Y-39571606D01*
X60583410Y-39631267D01*
X60520563Y-39661796D01*
X60451188Y-39653501D01*
X60397310Y-39609016D01*
X60380225Y-39571606D01*
X60373207Y-39545413D01*
X60320480Y-39454087D01*
X60245913Y-39379520D01*
X60154587Y-39326793D01*
X60052727Y-39299500D01*
X59947273Y-39299500D01*
X59845413Y-39326793D01*
X59845410Y-39326794D01*
X59754085Y-39379521D01*
X59679521Y-39454085D01*
X59626794Y-39545410D01*
X59626793Y-39545413D01*
X59619775Y-39571606D01*
X59583410Y-39631267D01*
X59520563Y-39661796D01*
X59451188Y-39653501D01*
X59397310Y-39609016D01*
X59380225Y-39571606D01*
X59373207Y-39545413D01*
X59320480Y-39454087D01*
X59245913Y-39379520D01*
X59154587Y-39326793D01*
X59052727Y-39299500D01*
X58947273Y-39299500D01*
X58845413Y-39326793D01*
X58845410Y-39326794D01*
X58754085Y-39379521D01*
X58679521Y-39454085D01*
X58626794Y-39545410D01*
X58626793Y-39545413D01*
X58599500Y-39647273D01*
X57455810Y-39647273D01*
X57459485Y-39636826D01*
X57462235Y-39624487D01*
X57464474Y-39619712D01*
X57473207Y-39604587D01*
X57500500Y-39502727D01*
X57500500Y-39397273D01*
X57473207Y-39295413D01*
X57420480Y-39204087D01*
X57345913Y-39129520D01*
X57254587Y-39076793D01*
X57152727Y-39049500D01*
X57047273Y-39049500D01*
X56945413Y-39076793D01*
X56945410Y-39076794D01*
X56934858Y-39082887D01*
X56872858Y-39099500D01*
X56027305Y-39099500D01*
X55960266Y-39079815D01*
X55939624Y-39063181D01*
X54538930Y-37662487D01*
X54505445Y-37601164D01*
X54510429Y-37531472D01*
X54552301Y-37475539D01*
X54564603Y-37467424D01*
X54645913Y-37420480D01*
X54720480Y-37345913D01*
X54773207Y-37254587D01*
X54800500Y-37152727D01*
X54800500Y-37047273D01*
X55599500Y-37047273D01*
X55599500Y-37152727D01*
X55625476Y-37249669D01*
X55626793Y-37254586D01*
X55626794Y-37254589D01*
X55627320Y-37255500D01*
X55679520Y-37345913D01*
X55754087Y-37420480D01*
X55845413Y-37473207D01*
X55947273Y-37500500D01*
X55947275Y-37500500D01*
X56052725Y-37500500D01*
X56052727Y-37500500D01*
X56154587Y-37473207D01*
X56245913Y-37420480D01*
X56320480Y-37345913D01*
X56373207Y-37254587D01*
X56400500Y-37152727D01*
X56400500Y-37047273D01*
X56373207Y-36945413D01*
X56320480Y-36854087D01*
X56272772Y-36806379D01*
X77249500Y-36806379D01*
X77249500Y-36993620D01*
X77286025Y-37177243D01*
X77286027Y-37177251D01*
X77357676Y-37350228D01*
X77357681Y-37350237D01*
X77461697Y-37505907D01*
X77461700Y-37505911D01*
X77594088Y-37638299D01*
X77594092Y-37638302D01*
X77749762Y-37742318D01*
X77749768Y-37742321D01*
X77749769Y-37742322D01*
X77922749Y-37813973D01*
X78018149Y-37832949D01*
X78106379Y-37850499D01*
X78106383Y-37850500D01*
X78106384Y-37850500D01*
X78293617Y-37850500D01*
X78293618Y-37850499D01*
X78477251Y-37813973D01*
X78650231Y-37742322D01*
X78805908Y-37638302D01*
X78938302Y-37505908D01*
X79042322Y-37350231D01*
X79113973Y-37177251D01*
X79150500Y-36993616D01*
X79150500Y-36806384D01*
X79113973Y-36622749D01*
X79042322Y-36449769D01*
X79042321Y-36449768D01*
X79042318Y-36449762D01*
X78938302Y-36294092D01*
X78938299Y-36294088D01*
X78805911Y-36161700D01*
X78805907Y-36161697D01*
X78650237Y-36057681D01*
X78650228Y-36057676D01*
X78477251Y-35986027D01*
X78477243Y-35986025D01*
X78293620Y-35949500D01*
X78293616Y-35949500D01*
X78106384Y-35949500D01*
X78106379Y-35949500D01*
X77922756Y-35986025D01*
X77922748Y-35986027D01*
X77749771Y-36057676D01*
X77749762Y-36057681D01*
X77594092Y-36161697D01*
X77594088Y-36161700D01*
X77461700Y-36294088D01*
X77461697Y-36294092D01*
X77357681Y-36449762D01*
X77357676Y-36449771D01*
X77286027Y-36622748D01*
X77286025Y-36622756D01*
X77249500Y-36806379D01*
X56272772Y-36806379D01*
X56245913Y-36779520D01*
X56154587Y-36726793D01*
X56052727Y-36699500D01*
X55947273Y-36699500D01*
X55845413Y-36726793D01*
X55845410Y-36726794D01*
X55754085Y-36779521D01*
X55679521Y-36854085D01*
X55626794Y-36945410D01*
X55626793Y-36945413D01*
X55599500Y-37047273D01*
X54800500Y-37047273D01*
X54773207Y-36945413D01*
X54720480Y-36854087D01*
X54645913Y-36779520D01*
X54554587Y-36726793D01*
X54452727Y-36699500D01*
X54347273Y-36699500D01*
X54245413Y-36726793D01*
X54245410Y-36726794D01*
X54154085Y-36779521D01*
X54079520Y-36854086D01*
X54032579Y-36935389D01*
X53982012Y-36983604D01*
X53913405Y-36996826D01*
X53848540Y-36970858D01*
X53837512Y-36961069D01*
X52123716Y-35247273D01*
X53999500Y-35247273D01*
X53999500Y-35352727D01*
X54026793Y-35454587D01*
X54079520Y-35545913D01*
X54154087Y-35620480D01*
X54245413Y-35673207D01*
X54347273Y-35700500D01*
X54347275Y-35700500D01*
X54452725Y-35700500D01*
X54452727Y-35700500D01*
X54554587Y-35673207D01*
X54645913Y-35620480D01*
X54720480Y-35545913D01*
X54773207Y-35454587D01*
X54800500Y-35352727D01*
X54800500Y-35247273D01*
X54773207Y-35145413D01*
X54720480Y-35054087D01*
X54645913Y-34979520D01*
X54554587Y-34926793D01*
X54452727Y-34899500D01*
X54347273Y-34899500D01*
X54245413Y-34926793D01*
X54245410Y-34926794D01*
X54154085Y-34979521D01*
X54079521Y-35054085D01*
X54026794Y-35145410D01*
X54026793Y-35145413D01*
X53999500Y-35247273D01*
X52123716Y-35247273D01*
X51586819Y-34710376D01*
X51553334Y-34649053D01*
X51550500Y-34622695D01*
X51550500Y-34266379D01*
X77249500Y-34266379D01*
X77249500Y-34453620D01*
X77286025Y-34637243D01*
X77286027Y-34637251D01*
X77357676Y-34810228D01*
X77357681Y-34810237D01*
X77461697Y-34965907D01*
X77461700Y-34965911D01*
X77594088Y-35098299D01*
X77594092Y-35098302D01*
X77749762Y-35202318D01*
X77749768Y-35202321D01*
X77749769Y-35202322D01*
X77922749Y-35273973D01*
X78106379Y-35310499D01*
X78106383Y-35310500D01*
X78106384Y-35310500D01*
X78293617Y-35310500D01*
X78293618Y-35310499D01*
X78477251Y-35273973D01*
X78650231Y-35202322D01*
X78805908Y-35098302D01*
X78938302Y-34965908D01*
X79042322Y-34810231D01*
X79113973Y-34637251D01*
X79150500Y-34453616D01*
X79150500Y-34266384D01*
X79113973Y-34082749D01*
X79042322Y-33909769D01*
X79042321Y-33909768D01*
X79042318Y-33909762D01*
X78938302Y-33754092D01*
X78938299Y-33754088D01*
X78805911Y-33621700D01*
X78805907Y-33621697D01*
X78650237Y-33517681D01*
X78650228Y-33517676D01*
X78477251Y-33446027D01*
X78477243Y-33446025D01*
X78293620Y-33409500D01*
X78293616Y-33409500D01*
X78106384Y-33409500D01*
X78106379Y-33409500D01*
X77922756Y-33446025D01*
X77922748Y-33446027D01*
X77749771Y-33517676D01*
X77749762Y-33517681D01*
X77594092Y-33621697D01*
X77594088Y-33621700D01*
X77461700Y-33754088D01*
X77461697Y-33754092D01*
X77357681Y-33909762D01*
X77357676Y-33909771D01*
X77286027Y-34082748D01*
X77286025Y-34082756D01*
X77249500Y-34266379D01*
X51550500Y-34266379D01*
X51550500Y-33727142D01*
X51567115Y-33665139D01*
X51573205Y-33654590D01*
X51573207Y-33654587D01*
X51600500Y-33552727D01*
X51600500Y-33447273D01*
X51573207Y-33345413D01*
X51520480Y-33254087D01*
X51445913Y-33179520D01*
X51354587Y-33126793D01*
X51252727Y-33099500D01*
X51147273Y-33099500D01*
X51045413Y-33126793D01*
X51045410Y-33126794D01*
X50954085Y-33179521D01*
X50879521Y-33254085D01*
X50826794Y-33345410D01*
X50826793Y-33345413D01*
X50799500Y-33447273D01*
X40677916Y-33447273D01*
X40716090Y-33329785D01*
X40755500Y-33080962D01*
X40755500Y-32847273D01*
X58299500Y-32847273D01*
X58299500Y-32952727D01*
X58326793Y-33054587D01*
X58379520Y-33145913D01*
X58454087Y-33220480D01*
X58545413Y-33273207D01*
X58647273Y-33300500D01*
X58647275Y-33300500D01*
X58752725Y-33300500D01*
X58752727Y-33300500D01*
X58854587Y-33273207D01*
X58945913Y-33220480D01*
X59020480Y-33145913D01*
X59073207Y-33054587D01*
X59100500Y-32952727D01*
X59100500Y-32847273D01*
X59073207Y-32745413D01*
X59020480Y-32654087D01*
X58945913Y-32579520D01*
X58854587Y-32526793D01*
X58752727Y-32499500D01*
X58647273Y-32499500D01*
X58545413Y-32526793D01*
X58545410Y-32526794D01*
X58454085Y-32579521D01*
X58379521Y-32654085D01*
X58326794Y-32745410D01*
X58326793Y-32745413D01*
X58299500Y-32847273D01*
X40755500Y-32847273D01*
X40755500Y-32829038D01*
X40716090Y-32580215D01*
X40638241Y-32340621D01*
X40638239Y-32340618D01*
X40638239Y-32340616D01*
X40538792Y-32145441D01*
X40537972Y-32143832D01*
X40523870Y-32116155D01*
X40510151Y-32097273D01*
X61155750Y-32097273D01*
X61155750Y-32202727D01*
X61183043Y-32304587D01*
X61235770Y-32395913D01*
X61310337Y-32470480D01*
X61401663Y-32523207D01*
X61503523Y-32550500D01*
X61503525Y-32550500D01*
X61608975Y-32550500D01*
X61608977Y-32550500D01*
X61710837Y-32523207D01*
X61802163Y-32470480D01*
X61876730Y-32395913D01*
X61929457Y-32304587D01*
X61956750Y-32202727D01*
X61956750Y-32097273D01*
X61929457Y-31995413D01*
X61876730Y-31904087D01*
X61869916Y-31897273D01*
X67099500Y-31897273D01*
X67099500Y-32002727D01*
X67126793Y-32104587D01*
X67179520Y-32195913D01*
X67254087Y-32270480D01*
X67345413Y-32323207D01*
X67447273Y-32350500D01*
X67447275Y-32350500D01*
X67552725Y-32350500D01*
X67552727Y-32350500D01*
X67654587Y-32323207D01*
X67745913Y-32270480D01*
X67820480Y-32195913D01*
X67873207Y-32104587D01*
X67900500Y-32002727D01*
X67900500Y-31897273D01*
X69099500Y-31897273D01*
X69099500Y-32002727D01*
X69126793Y-32104587D01*
X69179520Y-32195913D01*
X69254087Y-32270480D01*
X69345413Y-32323207D01*
X69447273Y-32350500D01*
X69447275Y-32350500D01*
X69552725Y-32350500D01*
X69552727Y-32350500D01*
X69654587Y-32323207D01*
X69745913Y-32270480D01*
X69820480Y-32195913D01*
X69873207Y-32104587D01*
X69900500Y-32002727D01*
X69900500Y-31897273D01*
X69873207Y-31795413D01*
X69833350Y-31726378D01*
X77249500Y-31726378D01*
X77249500Y-31913619D01*
X77286025Y-32097242D01*
X77286027Y-32097250D01*
X77357676Y-32270227D01*
X77357681Y-32270236D01*
X77461697Y-32425906D01*
X77461700Y-32425910D01*
X77594088Y-32558298D01*
X77594092Y-32558301D01*
X77749762Y-32662317D01*
X77749768Y-32662320D01*
X77749769Y-32662321D01*
X77922749Y-32733972D01*
X78106379Y-32770498D01*
X78106383Y-32770499D01*
X78106384Y-32770499D01*
X78293617Y-32770499D01*
X78293618Y-32770498D01*
X78477251Y-32733972D01*
X78650231Y-32662321D01*
X78805908Y-32558301D01*
X78938302Y-32425907D01*
X79042322Y-32270230D01*
X79113973Y-32097250D01*
X79150500Y-31913615D01*
X79150500Y-31726383D01*
X79113973Y-31542748D01*
X79042322Y-31369768D01*
X79042321Y-31369767D01*
X79042318Y-31369761D01*
X78938302Y-31214091D01*
X78938299Y-31214087D01*
X78805911Y-31081699D01*
X78805907Y-31081696D01*
X78650237Y-30977680D01*
X78650228Y-30977675D01*
X78477251Y-30906026D01*
X78477243Y-30906024D01*
X78293620Y-30869499D01*
X78293616Y-30869499D01*
X78106384Y-30869499D01*
X78106379Y-30869499D01*
X77922756Y-30906024D01*
X77922748Y-30906026D01*
X77749771Y-30977675D01*
X77749762Y-30977680D01*
X77594092Y-31081696D01*
X77594088Y-31081699D01*
X77461700Y-31214087D01*
X77461697Y-31214091D01*
X77357681Y-31369761D01*
X77357676Y-31369770D01*
X77286027Y-31542747D01*
X77286025Y-31542755D01*
X77249500Y-31726378D01*
X69833350Y-31726378D01*
X69820480Y-31704087D01*
X69745913Y-31629520D01*
X69654587Y-31576793D01*
X69552727Y-31549500D01*
X69447273Y-31549500D01*
X69345413Y-31576793D01*
X69345410Y-31576794D01*
X69254085Y-31629521D01*
X69179521Y-31704085D01*
X69126794Y-31795410D01*
X69126793Y-31795413D01*
X69099500Y-31897273D01*
X67900500Y-31897273D01*
X67873207Y-31795413D01*
X67820480Y-31704087D01*
X67745913Y-31629520D01*
X67654587Y-31576793D01*
X67552727Y-31549500D01*
X67447273Y-31549500D01*
X67345413Y-31576793D01*
X67345410Y-31576794D01*
X67254085Y-31629521D01*
X67179521Y-31704085D01*
X67126794Y-31795410D01*
X67126793Y-31795413D01*
X67099500Y-31897273D01*
X61869916Y-31897273D01*
X61802163Y-31829520D01*
X61710837Y-31776793D01*
X61608977Y-31749500D01*
X61503523Y-31749500D01*
X61401663Y-31776793D01*
X61401660Y-31776794D01*
X61310335Y-31829521D01*
X61235771Y-31904085D01*
X61183044Y-31995410D01*
X61183043Y-31995413D01*
X61155750Y-32097273D01*
X40510151Y-32097273D01*
X40441460Y-32002727D01*
X40375798Y-31912350D01*
X40375794Y-31912345D01*
X40197654Y-31734205D01*
X40197649Y-31734201D01*
X39993848Y-31586132D01*
X39993847Y-31586131D01*
X39993845Y-31586130D01*
X39923747Y-31550413D01*
X39769383Y-31471760D01*
X39529785Y-31393910D01*
X39377372Y-31369770D01*
X39280962Y-31354500D01*
X39029038Y-31354500D01*
X38932628Y-31369770D01*
X38780214Y-31393910D01*
X38540616Y-31471760D01*
X38316151Y-31586132D01*
X38112350Y-31734201D01*
X38112345Y-31734205D01*
X37934205Y-31912345D01*
X37934201Y-31912350D01*
X37786132Y-32116151D01*
X37671760Y-32340616D01*
X37593910Y-32580214D01*
X37580905Y-32662322D01*
X37554500Y-32829038D01*
X37554500Y-33080962D01*
X37593910Y-33329785D01*
X37670994Y-33567024D01*
X37672989Y-33636865D01*
X37636909Y-33696698D01*
X37574208Y-33727526D01*
X37504794Y-33719562D01*
X37465382Y-33693023D01*
X37344261Y-33571902D01*
X37344254Y-33571896D01*
X37149212Y-33422235D01*
X37149211Y-33422234D01*
X37149208Y-33422232D01*
X36936292Y-33299305D01*
X36873286Y-33273207D01*
X36709162Y-33205224D01*
X36709155Y-33205222D01*
X36709153Y-33205221D01*
X36471677Y-33141590D01*
X36430939Y-33136226D01*
X36227934Y-33109499D01*
X36227927Y-33109499D01*
X35982073Y-33109499D01*
X35982065Y-33109499D01*
X35750059Y-33140044D01*
X35738323Y-33141590D01*
X35500847Y-33205221D01*
X35500837Y-33205224D01*
X35273714Y-33299302D01*
X35273705Y-33299306D01*
X35097867Y-33400827D01*
X35082845Y-33409500D01*
X35060787Y-33422235D01*
X34865745Y-33571896D01*
X34865738Y-33571902D01*
X34691903Y-33745737D01*
X34691897Y-33745744D01*
X34542236Y-33940786D01*
X34419307Y-34153704D01*
X34419303Y-34153713D01*
X34325225Y-34380836D01*
X34325222Y-34380846D01*
X34305724Y-34453616D01*
X34261592Y-34618319D01*
X34261590Y-34618330D01*
X34229500Y-34862064D01*
X30500500Y-34862064D01*
X30500500Y-30624500D01*
X30520185Y-30557461D01*
X30572989Y-30511706D01*
X30624500Y-30500500D01*
X79375500Y-30500500D01*
X79442539Y-30520185D01*
G37*
%TD.AperFunction*%
%TD*%
M02*
